SplineFontDB: 3.0
FontName: Purisa-BoldOblique
FullName: Purisa Bold Oblique
FamilyName: Purisa
Weight: Bold
Copyright: Purisa, Thai handwriting outline font.\n\nCopyright (C) 2003, 2004 Poonlap Veerathanabutr <poonlap@linux.thai.net>
UComments: "2003-11-27: Created.+AAoACgAA-Acknowlegement:+AAoA-Hanwriting by Ms.Purisa Cholasueksa. +AAoA-Co-operated by Mr.Teeratep Sosakul.+AAoACgAA-2004-02-14:+AAoA-Modified most characters. Make numbers bigger." 
Version: 003.004
ItalicAngle: -12
UnderlinePosition: -100
UnderlineWidth: 50
Ascent: 800
Descent: 200
LayerCount: 2
Layer: 0 0 "Back"  1
Layer: 1 0 "Fore"  0
FSType: 8
OS2Version: 4
OS2_WeightWidthSlopeOnly: 0
OS2_UseTypoMetrics: 0
CreationTime: 1153666222
ModificationTime: 1447406816
PfmFamily: 65
TTFWeight: 700
TTFWidth: 5
LineGap: 113
VLineGap: 0
OS2TypoAscent: 0
OS2TypoAOffset: 1
OS2TypoDescent: 0
OS2TypoDOffset: 1
OS2TypoLinegap: 0
OS2WinAscent: 0
OS2WinAOffset: 1
OS2WinDescent: 0
OS2WinDOffset: 1
HheadAscent: 0
HheadAOffset: 1
HheadDescent: 0
HheadDOffset: 1
OS2Vendor: 'PfEd'
Lookup: 4 8 1 "'liga' Standard Ligatures lookup 2"  {"'liga' Standard Ligatures lookup 2 subtable"  } ['liga' ('latn' <'dflt' > ) ]
Lookup: 6 0 0 "'ccmp' Thai Tone Tilde Reordering"  {"'ccmp' Thai Tone Tilde Reordering"  } ['ccmp' ('DFLT' <'dflt' > 'latn' <'dflt' > 'thai' <'KUY ' 'MLY ' 'PAL ' 'SAN ' 'THA ' 'dflt' > ) ]
Lookup: 6 0 0 "'ccmp' Thai Conditional Descender Removal"  {"'ccmp' Thai Conditional Descender Removal"  } ['ccmp' ('DFLT' <'dflt' > 'thai' <'KUY ' 'MLY ' 'THA ' 'dflt' > ) ]
Lookup: 1 0 0 "'ccmp' Pali-Sanskrit Descender Removal"  {"'ccmp' Pali-Sanskrit Descender Removal" ("descless" ) } ['ccmp' ('thai' <'PAL ' 'SAN ' > ) ]
Lookup: 6 0 0 "'ccmp' Thai General Composition"  {"'ccmp' Thai Below Vowel Tone Reordering"  "'ccmp' Thai General Composition"  } ['ccmp' ('DFLT' <'dflt' > 'thai' <'KUY ' 'MLY ' 'PAL ' 'SAN ' 'THA ' 'dflt' > ) ]

StartChar: uni0E34
Encoding: 3636 3636 0
Width: 0
Flags: W
HStem: 553 21G<27 48.5> 566 76<-233.719 -16.6141> 713 66<-179.883 -59.3574>
AnchorPoint: "AboveMark" 22 560 mark 0
AnchorPoint: "AboveMark" 69 780 basemark 0
AnchorPoint: "AboveBase" 57 560 mark 0
LayerCount: 2
Fore
SplineSet
71 585 m 0x60
 71 565 63 553 34 553 c 0xa0
 20 553 8 558 5 566 c 1
 -48 578 -277 563 -331 591 c 0
 -342 596 -347 604 -347 614 c 0
 -347 653 -235 779 -89 779 c 0
 -26 779 38 745 38 716 c 0
 38 696 71 659 71 585 c 0x60
-244 647 m 1
 -234 645 -222 642 -197 642 c 0x60
 -178 642 -181 644 -155 644 c 0
 -111 644 -49 636 -15 633 c 1
 -50 695 -80 713 -117 713 c 0
 -143 713 -170 701 -210 672 c 2
 -244 647 l 1
EndSplineSet
Validated: 1
EndChar

StartChar: uni0E35
Encoding: 3637 3637 1
Width: 0
Flags: W
HStem: 628 83<-193.18 -123> 718 65<-199.462 -125.165>
AnchorPoint: "AboveMark" 36 560 mark 0
AnchorPoint: "AboveMark" 83 780 basemark 0
AnchorPoint: "AboveBase" 57 560 mark 0
LayerCount: 2
Fore
SplineSet
-393 666 m 0
 -393 701 -327 744 -309 744 c 0
 -299 744 -300 762 -213 777 c 0
 -188 781 -167 783 -148 783 c 0
 -29 783 -4 714 20 697 c 1
 39 750 34 827 102 827 c 2
 138 827 l 1
 109 724 l 1
 84 639 68 578 29 578 c 0
 5 578 -26 609 -44 628 c 1
 -333 638 -393 632 -393 666 c 0
-200 711 m 1
 -189 711 -178 711 -167 711 c 0
 -149 711 -133 712 -123 712 c 1
 -135 715 -148 718 -164 718 c 0
 -181 718 -191 715 -200 711 c 1
EndSplineSet
Validated: 1
EndChar

StartChar: uni0E36
Encoding: 3638 3638 2
Width: 0
Flags: W
HStem: 533 21G<-147 -119.5> 583 55<-351 -169.104> 695 66<-304.34 -177.106>
VStem: -162 229<579 685>
AnchorPoint: "AboveMark" -29 560 mark 0
AnchorPoint: "AboveMark" 18 780 basemark 0
AnchorPoint: "AboveBase" 27 560 mark 0
LayerCount: 2
Fore
SplineSet
67 685 m 0
 67 628 -4 558 -41 558 c 0
 -59 558 -69 576 -83 577 c 1
 -90 569 -104 533 -135 533 c 1
 -159 536 -162 553 -162 567 c 2
 -162 579 l 2
 -162 582 -162 583 -170 583 c 0
 -186 583 -202 581 -330 578 c 2
 -442 576 l 1
 -439 612 l 1
 -432 635 -437 640 -393 684 c 0
 -380 697 -347 717 -324 729 c 0
 -272 757 -254 761 -218 761 c 0
 -116 761 -113 687 -96 661 c 1
 -78 671 -25 721 17 721 c 0
 43 721 67 718 67 685 c 0
-20 633 m 1
 -15 637 -11 645 -7 650 c 1
 -19 650 -24 641 -20 633 c 1
-168 659 m 1
 -169 662 -172 667 -181 678 c 0
 -194 694 -201 695 -218 695 c 0
 -281 695 -292 690 -332 655 c 2
 -351 638 l 1
 -312 638 -190 649 -168 659 c 1
EndSplineSet
Validated: 1
EndChar

StartChar: uni0E37
Encoding: 3639 3639 3
Width: 0
Flags: W
HStem: 574 290<-108 -27> 601 56<-304.317 -169.199> 711 68<-310.765 -188.515>
VStem: 9 111<698.253 813.706>
AnchorPoint: "AboveMark" -37 560 mark 0
AnchorPoint: "AboveMark" 10 780 basemark 0
AnchorPoint: "AboveBase" 57 560 mark 0
LayerCount: 2
Fore
SplineSet
-246 711 m 0x70
 -282 711 -333 679 -341 667 c 1
 -330 661 -265 657 -218 657 c 0
 -193 657 -173 657 -169 659 c 1
 -169 677 -200 711 -246 711 c 0x70
-427 636 m 0
 -427 689 -342 779 -226 779 c 0x70
 -163 779 -134 755 -111 734 c 1
 -100 773 l 1
 -86 813 -69 864 -27 864 c 0
 -19 864 6 856 6 825 c 0
 6 793 -39 696 -50 646 c 0
 -60 601 -76 574 -108 574 c 0x90
 -147 574 -139 599 -153 601 c 1
 -178 601 -229 586 -308 586 c 0
 -353 586 -427 590 -427 636 c 0
120 808 m 0
 120 758 94 633 40 633 c 0
 20 633 9 641 9 687 c 0
 9 774 37 863 79 863 c 0
 95 863 120 855 120 808 c 0
EndSplineSet
Validated: 1
EndChar

StartChar: uni0E38
Encoding: 3640 3640 4
Width: 0
Flags: W
HStem: -146 52<-293 -264.125> -81 56<-292.396 -238>
VStem: -259 60<-158.672 -81.9797>
DStem2: -298.531 -306 -234 -306 0.207912 0.978148<37.2356 164.545>
AnchorPoint: "BelowMark" -190 -38 mark 0
AnchorPoint: "BelowMark" -252 -327 basemark 0
AnchorPoint: "BelowBase" -190 -38 mark 0
LayerCount: 2
Fore
SplineSet
-360 -117 m 0
 -360 -78 -292 -25 -251 -25 c 0
 -225 -25 -199 -41 -199 -85 c 0
 -199 -106 -204 -138 -214 -191 c 2
 -234 -306 l 1
 -264 -297 l 2
 -280 -292 -287 -289 -287 -271 c 0
 -287 -258 -284 -236 -276 -200 c 2
 -264 -145 l 1
 -298 -146 l 2
 -305 -146 -312 -146 -319 -146 c 0
 -353 -146 -360 -130 -360 -117 c 0
-259 -85 m 0
 -259 -83 -261 -81 -268 -81 c 0
 -275 -81 -285 -83 -293 -94 c 1
 -279 -94 l 2
 -266 -94 -259 -93 -259 -85 c 0
EndSplineSet
Validated: 1
Substitution2: "Thai Sara U Mai Ek Reordering" uni0E48.low
Substitution2: "Thai Sara U Mai Tho Reordering" uni0E49.low
Substitution2: "Thai Sara U Mai Tri Reordering" uni0E4A.low
Substitution2: "Thai Sara U Mai Chattawa Reordering" uni0E4B.low
Substitution2: "Thai Sara U Thanthakhat Reordering" uni0E4C.low
Substitution2: "Thai Sara U Nikhahit Reordering" uni0E4D
EndChar

StartChar: uni0E39
Encoding: 3641 3641 5
Width: 0
Flags: W
HStem: -137 43<-376.719 -312.362> -82 44<-338.11 -288.5>
VStem: -304 4<-224.5 -159.5> -247 79<-126.792 -71.2438>
AnchorPoint: "BelowMark" -190 -38 mark 0
AnchorPoint: "BelowMark" -242 -280 basemark 0
AnchorPoint: "BelowBase" -190 -38 mark 0
LayerCount: 2
Fore
SplineSet
-404 -108 m 0
 -404 -78 -341 -38 -304 -38 c 0
 -273 -38 -251 -60 -251 -81 c 1
 -246 -83 -244 -89 -244 -97 c 0
 -244 -107 -246 -114 -247 -127 c 1
 -233 -90 -220 -40 -193 -40 c 0
 -173 -40 -168 -55 -168 -68 c 0
 -168 -72 -168 -77 -169 -80 c 0
 -172 -94 -228 -255 -275 -255 c 0
 -293 -255 -304 -233 -304 -216 c 0
 -304 -202 -300 -186 -300 -165 c 0
 -300 -154 -301 -142 -304 -129 c 1
 -321 -134 -337 -137 -351 -137 c 0
 -382 -137 -404 -125 -404 -108 c 0
-339 -91 m 1
 -336 -93 -334 -94 -330 -94 c 0
 -322 -94 -313 -90 -312 -88 c 1
 -313 -83 -316 -82 -320 -82 c 0
 -327 -82 -337 -89 -339 -91 c 1
EndSplineSet
Validated: 1
Substitution2: "Thai Sara UU Mai Ek Reordering" uni0E48.low
Substitution2: "Thai Sara UU Mai Tho Reordering" uni0E49.low
Substitution2: "Thai Sara UU Mai Tri Reordering" uni0E4A.low
Substitution2: "Thai Sara UU Mai Chattawa Reordering" uni0E4B.low
Substitution2: "Thai Sara UU Thanthakhat Reordering" uni0E4C.low
Substitution2: "Thai Sara UU Nikhahit Reordering" uni0E4D
EndChar

StartChar: uni0E3A
Encoding: 3642 3642 6
Width: 0
Flags: W
HStem: -212 171<-319.04 -266.5>
VStem: -388 184<-149.574 -106.528>
AnchorPoint: "BelowMark" -190 -38 mark 0
AnchorPoint: "BelowMark" -232 -237 basemark 0
AnchorPoint: "BelowBase" -190 -38 mark 0
LayerCount: 2
Fore
SplineSet
-254 -41 m 0
 -223 -41 -204 -59 -204 -89 c 0
 -204 -144 -262 -212 -334 -212 c 0
 -372 -212 -388 -192 -388 -166 c 0
 -388 -109 -318 -41 -254 -41 c 0
EndSplineSet
Validated: 1
Substitution2: "Thai Phinthu Maitaikhu Reordering" uni0E47
Substitution2: "Thai Phinthu Mai Ek Reordering" uni0E48.low
Substitution2: "Thai Phinthu Mai Tho Reordering" uni0E49.low
Substitution2: "Thai Phinthu Mai Tri Reordering" uni0E4A.low
Substitution2: "Thai Phinthu Mai Chattawa Reordering" uni0E4B.low
Substitution2: "Thai Phinthu Thanthakhat Reordering" uni0E4C.low
Substitution2: "Thai Phinthu Nikhahit Reordering" uni0E4D
EndChar

StartChar: uni0E48
Encoding: 3656 3656 7
Width: 0
Flags: W
HStem: 830 153<76 103.31>
VStem: 35 98
DStem2: 35 830 100.348 830 0.207912 0.978148<12.3625 158.181>
AnchorPoint: "AboveMark" 113 1038 basemark 0
AnchorPoint: "AboveMark" 58 780 mark 0
LayerCount: 2
Fore
SplineSet
76 983 m 1
 133 983 l 1
 108 866 l 2
 104 847 96 830 49 830 c 2
 35 830 l 1
 76 983 l 1
EndSplineSet
Validated: 1
Substitution2: "Thai Mai Ek Tilde Reordering" tildecomb
MultipleSubs2: "Thai Tone Nikhahit Attachment" uni0E4D uni0E48
Substitution2: "Thai Tone Low Variant" uni0E48.low
Substitution2: "Thai Sara U Mai Ek Reordering" uni0E38
Substitution2: "Thai Sara UU Mai Ek Reordering" uni0E39
Substitution2: "Thai Phinthu Mai Ek Reordering" uni0E3A
EndChar

StartChar: uni0E49
Encoding: 3657 3657 8
Width: 0
Flags: W
HStem: 773 245
VStem: 16 113<942.559 999.738>
AnchorPoint: "AboveMark" 121 1038 basemark 0
AnchorPoint: "AboveMark" 66 780 mark 0
LayerCount: 2
Fore
SplineSet
125 942 m 1
 200 1010 201 1018 222 1018 c 0
 238 1018 243 1008 243 999 c 0
 243 997 242 995 242 993 c 0
 230 957 170 920 155 902 c 1
 149 890 35 802 16 800 c 1
 7 797 -17 773 -36 773 c 0
 -47 773 -57 779 -57 790 c 0
 -57 807 -39 832 7 873 c 1
 26 891 l 1
 21 909 16 916 16 930 c 0
 16 937 17 945 20 957 c 0
 29 997 36 1010 76 1010 c 0
 103 1010 104 1007 117 991 c 0
 125 981 129 977 129 967 c 0
 129 961 127 954 125 942 c 1
EndSplineSet
Validated: 1
Substitution2: "Thai Mai Tho Tilde Reordering" tildecomb
MultipleSubs2: "Thai Tone Nikhahit Attachment" uni0E4D uni0E49
Substitution2: "Thai Tone Low Variant" uni0E49.low
Substitution2: "Thai Sara U Mai Tho Reordering" uni0E38
Substitution2: "Thai Sara UU Mai Tho Reordering" uni0E39
Substitution2: "Thai Phinthu Mai Tho Reordering" uni0E3A
EndChar

StartChar: uni0E4B
Encoding: 3659 3659 9
Width: 0
Flags: W
HStem: 884 55<139 190>
VStem: 81 60<939.657 1007.26>
AnchorPoint: "AboveMark" 118 1038 basemark 0
AnchorPoint: "AboveMark" 63 780 mark 0
LayerCount: 2
Fore
SplineSet
141 983 m 0
 141 968 137 953 134 939 c 1
 200 937 l 1
 190 887 l 1
 144 884 l 1
 139 884 l 1
 104 838 l 1
 95 808 l 1
 41 808 l 1
 50 842 l 2
 55 863 58 875 61 883 c 1
 34 880 6 864 -11 864 c 0
 -24 864 -27 874 -27 885 c 0
 -27 889 -27 894 -26 898 c 0
 -21 922 25 936 62 938 c 2
 80 939 l 1
 81 957 l 2
 84 1006 101 1010 120 1010 c 0
 134 1010 141 1002 141 983 c 0
EndSplineSet
Validated: 1
Substitution2: "Thai Mai Chattawa Tilde Reordering" tildecomb
MultipleSubs2: "Thai Tone Nikhahit Attachment" uni0E4D uni0E4B
Substitution2: "Thai Tone Low Variant" uni0E4B.low
Substitution2: "Thai Sara U Mai Chattawa Reordering" uni0E38
Substitution2: "Thai Sara UU Mai Chattawa Reordering" uni0E39
Substitution2: "Thai Phinthu Mai Chattawa Reordering" uni0E3A
EndChar

StartChar: uni0E4C
Encoding: 3660 3660 10
Width: 0
Flags: W
HStem: 928 59<62.7839 148.639>
VStem: -14 140<831.293 894.879>
AnchorPoint: "AboveMark" 126 1038 basemark 0
AnchorPoint: "AboveMark" 71 780 mark 0
LayerCount: 2
Fore
SplineSet
263 1044 m 0
 263 1022 192 898 167 898 c 0
 145 898 140 928 112 928 c 0
 90 928 67 911 59 903 c 1
 78 895 126 904 126 871 c 0
 126 829 75 811 41 811 c 0
 12 811 -14 839 -14 869 c 0
 -14 916 71 987 115 987 c 0
 135 987 156 982 167 977 c 1
 194 1016 207 1065 240 1065 c 0
 258 1065 263 1053 263 1044 c 0
EndSplineSet
Validated: 1
MultipleSubs2: "Thai Tone Nikhahit Attachment" uni0E4D uni0E4C
Substitution2: "Thai Tone Low Variant" uni0E4C.low
Substitution2: "Thai Sara U Thanthakhat Reordering" uni0E38
Substitution2: "Thai Sara UU Thanthakhat Reordering" uni0E39
Substitution2: "Thai Phinthu Thanthakhat Reordering" uni0E3A
EndChar

StartChar: exclam
Encoding: 33 33 12
Width: 519
Flags: W
HStem: 6 130<234 310.245> 545 20G<336.5 360>
VStem: 198 153<34.1485 88.9152>
LayerCount: 2
Fore
SplineSet
317 503 m 0
 317 511 311 512 311 523 c 0
 311 526 312 530 313 535 c 0
 313 536 313 537 313 538 c 0
 315 547 321 565 352 565 c 0
 368 565 397 559 428 557 c 1
 475 551 l 1
 461 502 l 2
 443 442 397 379 345 249 c 0
 334 222 319 211 306 211 c 0
 289 211 283 223 283 248 c 0
 283 269 308 468 308 468 c 2
 310 479 317 496 317 503 c 0
351 97 m 0
 351 61 311 -11 274 -11 c 0
 255 -11 243 6 235 6 c 0
 233 6 232 6 230 4 c 1
 210 7 198 26 198 43 c 0
 198 72 242 120 266 131 c 0
 277 136 290 136 296 136 c 0
 340 136 351 117 351 97 c 0
EndSplineSet
Validated: 1
EndChar

StartChar: quotedbl
Encoding: 34 34 13
Width: 572
Flags: W
HStem: 457 291<455.783 490.172>
VStem: 302 113<484.577 688.335> 419 105<513.313 683.216> 421 85<469.779 510.487>
LayerCount: 2
Fore
SplineSet
487 748 m 0xe0
 500 748 524 735 524 678 c 0xe0
 524 636 515 574 506 531 c 0
 497 487 487 457 458 457 c 0
 442 457 426 468 421 486 c 0xd0
 419 492 419 500 419 511 c 0
 419 555 430 633 439 676 c 0
 445 703 456 748 487 748 c 0xe0
302 555 m 0
 302 637 316 722 372 722 c 0
 405 722 415 687 415 576 c 0
 415 506 389 457 351 457 c 0
 304 457 302 513 302 555 c 0
EndSplineSet
Validated: 1
EndChar

StartChar: numbersign
Encoding: 35 35 14
Width: 655
Flags: W
HStem: 132 86<125.561 208.785>
VStem: 180 103<29.7917 102.617>
LayerCount: 2
Fore
SplineSet
359 236 m 2
 373 239 397 244 407 247 c 1
 424 256 458 355 465 388 c 0
 466 392 467 395 461 395 c 0
 457 395 449 392 436 389 c 0
 396 380 397 388 359 270 c 2
 347 233 l 1
 359 236 l 2
652 481 m 0
 652 447 602 409 578 409 c 0
 572 409 570 410 569 410 c 0
 564 402 554 379 526 303 c 2
 516 276 l 1
 565 280 l 2
 586 282 601 283 611 283 c 0
 626 283 638 279 638 266 c 0
 638 264 637 262 637 260 c 0
 627 211 587 204 548 194 c 0
 467 174 467 174 457 131 c 0
 440 55 420 23 378 18 c 2
 332 13 l 1
 376 152 l 1
 356 152 l 2
 313 152 309 148 283 80 c 0
 275 59 246 -22 210 -22 c 0
 194 -22 180 -12 180 15 c 0
 180 28 184 48 194 79 c 2
 211 132 l 1
 168 132 l 2
 127 132 95 134 95 156 c 0
 95 193 157 214 199 218 c 0
 273 225 250 238 308 363 c 1
 252 357 l 2
 231 355 212 353 199 353 c 0
 180 353 169 357 169 373 c 0
 169 418 205 429 237 438 c 0
 344 466 330 423 361 517 c 0
 372 550 383 585 421 585 c 0
 440 585 447 575 447 556 c 0
 447 548 445 537 443 526 c 2
 438 502 l 2
 435 489 434 479 440 479 c 0
 523 480 523 537 549 574 c 0
 558 587 575 596 589 596 c 0
 603 596 614 588 614 568 c 0
 614 563 613 558 612 552 c 1
 613 507 l 1
 624 507 652 506 652 481 c 0
EndSplineSet
Validated: 1
EndChar

StartChar: dollar
Encoding: 36 36 15
Width: 706
Flags: W
VStem: 243 100<411.269 459.204> 498 84<200.972 302.097>
DStem2: 267 21 329 -48 0.334253 0.942483<-153.725 66.7903>
LayerCount: 2
Fore
SplineSet
394 112 m 1
 440 142 498 212 498 260 c 0
 498 291 471 308 457 315 c 1
 436 287 408 178 398 131 c 2
 394 112 l 1
343 439 m 0
 343 430 368 407 380 397 c 1
 388 414 402 454 410 491 c 0
 411 497 412 503 413 509 c 1
 397 492 l 2
 361 454 343 441 343 439 c 0
606 737 m 0
 606 716 572 646 555 591 c 2
 552 581 l 1
 572 573 635 508 635 485 c 0
 635 479 629 457 603 457 c 0
 572 457 544 490 523 503 c 1
 517 490 509 470 503 453 c 2
 485 396 l 1
 513 384 l 2
 560 364 582 321 582 277 c 0
 582 198 499 90 414 67 c 0
 368 55 361 47 329 -48 c 0
 307 -116 299 -132 291 -139 c 1
 287 -141 266 -147 249 -147 c 0
 228 -147 222 -139 222 -127 c 0
 222 -110 248 -25 267 21 c 2
 292 83 l 1
 267 109 l 2
 229 148 200 179 176 236 c 0
 173 243 172 248 172 253 c 0
 172 274 186 283 187 287 c 0
 188 293 196 294 203 294 c 0
 206 294 215 294 224 286 c 0
 245 267 294 232 324 183 c 1
 328 193 l 1
 347 246 351 311 353 320 c 1
 352 326 347 329 334 331 c 0
 276 343 243 380 243 415 c 0
 243 460 318 556 408 580 c 1
 439 593 443 591 468 649 c 0
 507 737 509 745 540 753 c 0
 547 755 560 757 572 757 c 0
 589 757 606 753 606 737 c 0
EndSplineSet
Validated: 1
EndChar

StartChar: percent
Encoding: 37 37 16
Width: 786
Flags: W
HStem: 544 20G<760 783.5>
VStem: 238 136<376.296 455.088>
LayerCount: 2
Fore
SplineSet
775 564 m 0
 792 564 798 554 798 541 c 0
 798 471 609 359 449 203 c 0
 415 170 319 95 260 52 c 0
 183 -5 130 -47 103 -47 c 0
 87 -47 72 -36 72 -19 c 0
 72 5 100 37 185 101 c 0
 298 187 466 329 558 416 c 0
 628 482 745 564 775 564 c 0
238 382 m 0
 238 441 281 499 318 499 c 0
 340 499 374 476 374 436 c 0
 374 391 328 329 277 329 c 0
 252 329 238 351 238 382 c 0
662 147 m 0
 662 118 595 29 528 29 c 0
 502 29 475 47 475 71 c 0
 475 103 561 208 613 208 c 0
 650 208 662 167 662 147 c 0
EndSplineSet
Validated: 1
EndChar

StartChar: ampersand
Encoding: 38 38 17
Width: 734
Flags: W
HStem: -58 96<203.001 256.301> 21 108<551.801 652.105>
VStem: 113 90<-2 117.681> 241 96<411.176 506.593> 400 92<484.078 537>
DStem2: 192 217 260 176 0.572182 0.820127<-124.35 64.6756>
LayerCount: 2
Fore
SplineSet
260 176 m 2xb8
 225 128 203 84 203 55 c 0
 203 46 205 39 211 38 c 1
 234 38 344 110 387 119 c 0
 392 120 397 121 399 122 c 1
 395 138 329 172 301 214 c 1
 295 224 l 1
 260 176 l 2xb8
492 548 m 0
 492 475 364 339 364 309 c 0
 364 287 430 212 453 212 c 1
 495 216 571 365 637 365 c 0
 655 365 675 350 675 330 c 0
 675 293 561 204 532 160 c 1
 555 156 562 130 589 129 c 0
 639 128 678 93 678 67 c 0
 678 58 668 21 620 21 c 0x78
 583 21 534 44 493 79 c 2
 468 100 l 1
 410 57 l 2
 371 28 238 -58 196 -58 c 0
 170 -58 113 -37 113 33 c 0
 113 70 130 128 192 217 c 2
 252 303 l 1
 247 353 l 2
 244 381 241 405 241 427 c 0
 241 521 280 560 349 597 c 0
 374 610 411 626 429 626 c 1
 429 626 467 621 472 617 c 0
 487 606 492 572 492 548 c 0
337 411 m 1
 378 436 389 473 393 493 c 0
 398 515 400 529 400 537 c 1
 358 516 354 510 344 460 c 0
 341 446 337 423 337 411 c 1
EndSplineSet
Validated: 1
EndChar

StartChar: quotesingle
Encoding: 39 39 18
Width: 613
Flags: W
HStem: 440 274<387.9 455.428>
VStem: 357 99<458.566 507.793>
LayerCount: 2
Fore
SplineSet
357 614 m 0
 357 626 371 714 433 714 c 0
 471 714 547 701 556 696 c 1
 560 691 562 688 562 681 c 0
 562 658 539 610 517 590 c 0
 497 571 473 486 456 461 c 0
 444 443 430 440 417 440 c 0
 384 440 357 474 357 524 c 0
 357 548 362 559 362 583 c 0
 362 602 357 602 357 614 c 0
EndSplineSet
Validated: 1
EndChar

StartChar: parenleft
Encoding: 40 40 19
Width: 651
Flags: W
VStem: 229 109<125.974 340.015>
LayerCount: 2
Fore
SplineSet
466 -101 m 0
 466 -143 423 -153 407 -153 c 0
 325 -153 229 89 229 245 c 0
 229 319 235 324 363 600 c 0
 409 698 446 753 507 805 c 0
 553 844 588 857 605 857 c 0
 616 857 628 852 628 837 c 0
 628 818 600 782 567 742 c 0
 493 653 338 364 338 232 c 0
 338 162 395 18 430 -24 c 0
 458 -58 466 -83 466 -101 c 0
EndSplineSet
Validated: 1
EndChar

StartChar: parenright
Encoding: 41 41 20
Width: 636
Flags: W
VStem: 445 116<379.714 674.798>
LayerCount: 2
Fore
SplineSet
361 801 m 0
 361 840 388 850 406 850 c 0
 468 850 550 733 559 628 c 0
 561 613 561 598 561 580 c 0
 561 460 522 253 478 158 c 0
 403 -4 333 -62 292 -132 c 0
 270 -170 243 -181 221 -181 c 0
 208 -181 170 -175 170 -154 c 0
 170 -142 200 -90 259 -8 c 0
 312 64 383 156 426 356 c 0
 440 423 445 480 445 528 c 0
 445 682 389 745 383 752 c 1
 369 759 361 780 361 801 c 0
EndSplineSet
Validated: 1
EndChar

StartChar: asterisk
Encoding: 42 42 21
Width: 772
Flags: W
HStem: 305 116<615.488 708.273>
VStem: 291 99<521.818 601.486>
LayerCount: 2
Fore
SplineSet
223 110 m 0
 223 168 324 229 327 245 c 1
 315 256 224 239 196 281 c 0
 193 285 190 291 190 297 c 0
 190 302 192 321 225 331 c 0
 286 349 351 377 373 389 c 1
 360 416 291 494 291 554 c 0
 291 596 326 616 349 616 c 0
 373 616 392 598 392 572 c 0
 392 563 390 560 390 551 c 0
 390 536 396 525 402 519 c 1
 402 519 431 644 487 644 c 0
 513 644 518 626 518 592 c 0
 518 570 516 542 515 509 c 1
 534 528 631 644 692 644 c 0
 711 644 727 631 727 611 c 0
 727 586 705 563 685 548 c 0
 661 529 598 449 581 419 c 1
 588 418 599 418 614 418 c 0
 646 418 661 421 693 421 c 0
 722 421 739 413 739 385 c 0
 739 326 702 319 632 305 c 2
 611 301 l 1
 629 283 l 2
 644 269 660 255 660 238 c 0
 660 221 624 160 590 160 c 0
 560 160 502 224 478 238 c 1
 477 233 477 228 477 224 c 0
 477 200 492 194 492 176 c 0
 492 140 443 113 408 113 c 0
 396 113 388 116 379 116 c 0
 332 116 314 72 264 72 c 0
 239 72 223 87 223 110 c 0
EndSplineSet
Validated: 1
EndChar

StartChar: plus
Encoding: 43 43 22
Width: 715
Flags: W
VStem: 408 94<503.69 583.994>
DStem2: 273 396 301 296 0.982155 0.188072<-98.2445 64.4043>
LayerCount: 2
Fore
SplineSet
678 432 m 0
 703 430 713 411 713 391 c 0
 713 318 620 336 489 310 c 2
 464 305 l 1
 392 7 l 1
 300 7 l 1
 356 305 l 1
 301 296 l 2
 254 288 219 285 193 285 c 0
 161 285 144 292 144 315 c 0
 144 378 200 382 273 396 c 2
 367 414 l 1
 379 471 l 2
 385 499 396 549 408 565 c 0
 422 584 446 595 466 595 c 0
 494 595 502 577 502 550 c 0
 502 533 499 512 496 489 c 2
 487 409 l 1
 549 416 l 2
 626 425 666 432 678 432 c 0
EndSplineSet
Validated: 1
EndChar

StartChar: comma
Encoding: 44 44 23
Width: 496
Flags: W
VStem: 104 293
LayerCount: 2
Fore
SplineSet
362 209 m 0
 377 209 397 203 397 179 c 0
 397 147 357 87 294 2 c 0
 176 -158 162 -173 133 -173 c 0
 119 -173 104 -168 104 -147 c 0
 104 -113 147 -43 214 51 c 0
 305 178 332 209 362 209 c 0
EndSplineSet
Validated: 1
EndChar

StartChar: hyphen
Encoding: 45 45 24
Width: 931
Flags: W
HStem: 329 140<321.465 830.133>
LayerCount: 2
Fore
SplineSet
624 469 m 0
 866 469 908 463 922 430 c 0
 925 422 929 412 929 402 c 0
 929 343 831 336 529 329 c 2
 172 321 l 1
 192 386 l 2
 210 443 228 450 326 460 c 0
 377 465 505 469 624 469 c 0
EndSplineSet
Validated: 1
EndChar

StartChar: period
Encoding: 46 46 25
Width: 545
Flags: W
VStem: 125 322<9 76>
LayerCount: 2
Fore
SplineSet
125 -3 m 0
 125 76 270 170 291 170 c 0
 304 170 297 176 309 188 c 0
 319 198 332 202 344 202 c 0
 364 202 375 193 375 175 c 1
 377 173 382 170 390 170 c 0
 426 170 447 139 447 99 c 0
 447 9 325 -106 223 -106 c 0
 145 -106 125 -43 125 -3 c 0
270 25 m 1
 283 25 297 35 307 43 c 1
 286 41 272 31 270 25 c 1
EndSplineSet
Validated: 1
EndChar

StartChar: slash
Encoding: 47 47 26
Width: 772
Flags: W
DStem2: 280 155 211 -94 0.564684 0.825307<-251.47 875.935>
LayerCount: 2
Fore
SplineSet
120 -172 m 0
 103 -172 87 -165 87 -144 c 0
 87 -98 156 -27 280 155 c 2
 657 706 l 2
 722 801 720 879 790 879 c 0
 813 879 834 864 834 839 c 0
 834 803 794 766 731 657 c 0
 668 548 427 232 410 193 c 0
 404 178 365 121 334 78 c 2
 211 -94 l 2
 171 -149 149 -172 120 -172 c 0
EndSplineSet
Validated: 1
EndChar

StartChar: zero
Encoding: 48 48 27
Width: 616
Flags: W
HStem: -4 87<222.124 329.114> 524 103<482.57 565.091>
VStem: 113 97<94.6135 206.702> 570 80<383.205 519.787>
LayerCount: 2
Fore
SplineSet
428 180 m 1
 437 214 535 295 566 441 c 0
 569 455 570 467 570 477 c 0
 570 513 552 524 525 524 c 0
 510 524 491 520 472 510 c 0
 383 466 210 221 210 140 c 0
 210 108 233 83 268 83 c 0
 295 83 316 93 365 127 c 0
 399 151 425 174 428 180 c 1
113 140 m 0
 113 219 284 423 293 467 c 0
 300 500 486 627 551 627 c 0
 591 627 650 582 650 486 c 0
 650 342 519 176 497 149 c 0
 470 116 370 -4 230 -4 c 0
 178 -4 142 22 123 89 c 0
 117 112 113 126 113 140 c 0
EndSplineSet
Validated: 1
EndChar

StartChar: one
Encoding: 49 49 28
Width: 378
Flags: W
VStem: 147 269
LayerCount: 2
Fore
SplineSet
279 2 m 0
 259 2 248 12 248 49 c 0
 248 144 316 392 321 473 c 1
 288 444 216 357 175 357 c 0
 160 357 147 368 147 385 c 0
 147 417 179 431 220 472 c 2
 264 516 l 2
 310 561 344 631 388 631 c 0
 399 631 416 624 416 586 c 0
 416 536 338 78 313 21 c 1
 304 10 293 2 279 2 c 0
EndSplineSet
Validated: 1
EndChar

StartChar: two
Encoding: 50 50 29
Width: 850
Flags: W
HStem: 520 86<408.886 577.021>
VStem: 579 91<423.262 552.5>
LayerCount: 2
Fore
SplineSet
537 606 m 0
 600 606 670 588 670 517 c 0
 670 479 653 408 595 327 c 24
 520 222 439 128 375 75 c 1
 441 85 596 105 692 105 c 0
 741 105 780 101 780 73 c 0
 780 70 780 68 779 65 c 0
 767 8 715 44 522 12 c 0
 371 -13 302 -11 282 -24 c 0
 271 -31 257 -34 244 -34 c 0
 216 -34 189 -19 189 1 c 0
 189 36 317 128 330 136 c 0
 387 171 579 406 579 492 c 0
 579 512 564 520 510 520 c 0
 336 520 197 344 164 344 c 1
 160 349 152 344 152 361 c 0
 152 367 153 377 156 391 c 0
 170 458 215 446 226 472 c 1
 235 496 273 513 334 551 c 0
 358 567 442 606 537 606 c 0
EndSplineSet
Validated: 1
EndChar

StartChar: three
Encoding: 51 51 30
Width: 620
Flags: W
HStem: -10 82<230.5 371.67> 290 75<275.088 339.12>
VStem: 162 96<72 147.04> 521 99<215.328 330.841>
LayerCount: 2
Fore
SplineSet
204 510 m 1
 193 511 187 519 187 527 c 0
 187 534 191 542 200 547 c 0
 248 574 549 614 582 620 c 0
 610 625 625 629 635 629 c 0
 656 629 671 602 671 584 c 0
 671 557 611 515 502 423 c 1
 516 423 l 2
 563 423 620 363 620 311 c 0
 620 248 582 167 538 116 c 0
 472 39 344 -10 256 -10 c 0
 205 -10 162 7 162 69 c 0
 162 97 171 160 209 160 c 0
 239 160 258 127 258 97 c 0
 258 85 256 82 256 78 c 0
 256 72 261 72 279 72 c 0
 385 72 459 137 472 149 c 0
 516 191 521 272 521 288 c 0
 521 329 500 335 471 335 c 0
 380 335 360 290 313 290 c 0
 283 290 271 307 271 325 c 0
 271 345 285 365 305 365 c 1
 332 371 479 502 493 516 c 1
 407 510 238 480 225 480 c 0
 207 480 204 484 204 510 c 1
EndSplineSet
Validated: 1
EndChar

StartChar: four
Encoding: 52 52 31
Width: 616
Flags: W
HStem: -17 21G<376 401.5> 255 83<511.781 616.686>
VStem: 356 88<-2.76538 190.618>
LayerCount: 2
Fore
SplineSet
236 255 m 1
 381 276 385 281 390 303 c 0
 394 324 397 345 401 384 c 2
 404 420 l 1
 373 393 l 2
 333 358 264 288 236 255 c 1
444 31 m 0
 444 12 414 -17 389 -17 c 0
 363 -17 356 15 356 55 c 0
 356 103 366 163 366 192 c 0
 366 197 366 201 365 204 c 1
 323 198 203 172 147 172 c 0
 117 172 105 182 105 198 c 0
 105 220 132 257 164 290 c 0
 273 402 468 585 494 585 c 1
 508 586 510 612 539 612 c 0
 560 612 570 595 570 581 c 0
 570 565 552 540 533 525 c 1
 510 504 506 497 491 425 c 0
 478 363 473 332 473 319 c 0
 473 312 474 310 476 310 c 0
 515 310 553 338 574 338 c 0
 605 338 625 320 625 299 c 0
 625 290 619 260 571 255 c 0
 558 254 522 245 497 238 c 2
 458 227 l 1
 447 155 l 2
 441 121 440 97 440 79 c 0
 440 52 444 40 444 31 c 0
EndSplineSet
Validated: 1
EndChar

StartChar: five
Encoding: 53 53 32
Width: 549
Flags: W
HStem: -12 84<162.978 325.233> 355 77<350.546 448>
VStem: 88 52<94.8857 159.372> 443 82<212.834 354.927>
LayerCount: 2
Fore
SplineSet
361 507 m 2
 323 507 290 496 290 464 c 0
 290 456 292 450 292 439 c 0
 292 413 284 397 280 386 c 1
 291 391 l 2
 358 421 415 432 444 432 c 0
 452 432 470 432 482 426 c 0
 512 412 525 366 525 317 c 0
 525 272 516 237 503 206 c 0
 442 54 349 -12 198 -12 c 0
 146 -12 137 -7 114 32 c 0
 99 56 88 81 88 107 c 0
 88 130 100 162 118 162 c 0
 130 162 130 161 140 132 c 0
 155 85 184 72 255 72 c 0
 321 72 351 93 394 160 c 0
 422 203 443 263 443 307 c 0
 443 336 434 355 421 355 c 0
 395 355 314 322 279 292 c 0
 254 271 237 260 223 260 c 0
 212 260 203 266 193 279 c 0
 190 284 189 295 189 309 c 0
 189 377 226 558 254 571 c 0
 287 587 479 580 554 595 c 0
 575 600 593 601 605 601 c 0
 631 601 640 593 640 583 c 0
 640 579 638 570 630 563 c 0
 597 536 449 507 379 507 c 2
 361 507 l 2
EndSplineSet
Validated: 1
EndChar

StartChar: six
Encoding: 54 54 33
Width: 495
Flags: W
HStem: -7 66<183.88 264.586> 249 76<278.119 386.296>
VStem: 88 90<61.0072 184.42> 396 84<164.104 236.956>
LayerCount: 2
Fore
SplineSet
303 98 m 0
 337 113 396 181 396 207 c 0
 396 236 351 249 334 249 c 0
 311 248 259 229 216 198 c 0
 198 185 178 174 178 114 c 0
 178 67 203 59 205 59 c 0
 211 59 222 61 303 98 c 0
243 286 m 1
 262 292 304 325 348 325 c 0
 390 325 446 302 466 275 c 0
 476 260 480 242 480 225 c 0
 480 168 450 151 423 111 c 0
 404 83 310 16 267 3 c 0
 252 -2 220 -7 190 -7 c 0
 124 -7 88 46 88 114 c 0
 88 128 90 142 93 157 c 0
 109 232 284 548 289 559 c 0
 302 583 323 619 361 619 c 0
 378 619 393 608 393 593 c 0
 393 548 256 346 243 286 c 1
EndSplineSet
Validated: 1
EndChar

StartChar: seven
Encoding: 55 55 34
Width: 491
Flags: W
HStem: 529 95<355.125 456>
LayerCount: 2
Fore
SplineSet
217 334 m 0
 194 334 185 340 185 364 c 0
 185 377 188 395 193 420 c 2
 227 581 l 1
 427 614 l 2
 464 620 490 624 510 624 c 0
 544 624 557 610 557 585 c 0
 557 521 450 288 340 34 c 0
 327 4 313 -8 281 -8 c 0
 256 -8 244 -4 244 12 c 0
 244 45 308 179 333 229 c 0
 372 308 442 484 456 529 c 1
 444 529 l 2
 425 529 400 529 372 527 c 2
 293 522 l 1
 288 484 l 2
 287 474 284 463 282 452 c 0
 261 355 240 334 217 334 c 0
EndSplineSet
Validated: 1
EndChar

StartChar: eight
Encoding: 56 56 35
Width: 578
Flags: W
HStem: -22 83<276.11 357.957> 554 58<384.503 504.251>
VStem: 137 97<102.761 179.622> 181 105<374.694 477.16> 375 78<79.4506 175.56> 551 70<471.004 514.329>
LayerCount: 2
Fore
SplineSet
318 61 m 0xec
 338 61 375 89 375 118 c 0
 375 160 318 231 299 231 c 0
 289 231 234 186 234 151 c 0
 234 109 291 61 318 61 c 0xec
551 487 m 0
 551 499 497 554 439 554 c 0
 427 554 429 551 363 523 c 0
 315 502 286 450 286 433 c 0xdc
 286 409 313 363 327 346 c 1
 356 364 462 443 520 466 c 0
 540 474 551 483 551 487 c 0
453 135 m 0
 453 37 362 -22 303 -22 c 1
 212 -19 137 103 137 135 c 0xec
 137 164 215 256 248 280 c 0
 248 281 248 282 248 283 c 0
 248 311 181 347 181 415 c 0
 181 504 302 591 365 591 c 0
 391 591 376 612 459 612 c 0
 592 612 621 535 621 495 c 0
 621 413 402 325 402 287 c 0
 402 261 453 209 453 135 c 0
EndSplineSet
Validated: 1
EndChar

StartChar: nine
Encoding: 57 57 36
Width: 514
Flags: W
HStem: 285 70<234.453 347.807> 546 70<391.902 493.5>
VStem: 150 84<356.417 435.853> 343 89<-7.07983 136.485> 477 87<474.664 545.815>
LayerCount: 2
Fore
SplineSet
446 546 m 0
 313 546 234 425 234 380 c 0
 234 365 243 355 269 355 c 0
 317 355 448 405 472 519 c 0
 473 524 477 539 477 544 c 1
 477 544 464 546 446 546 c 0
432 39 m 0
 432 21 414 -22 375 -22 c 0
 351 -22 343 -5 343 18 c 0
 343 77 412 307 412 334 c 1
 371 311 l 2
 335 291 314 285 266 285 c 0
 196 285 184 293 169 315 c 0
 158 331 150 349 150 370 c 0
 150 376 150 397 167 429 c 0
 211 512 282 563 408 600 c 0
 453 613 469 616 482 616 c 0
 505 616 564 604 564 546 c 0
 564 478 517 478 448 157 c 0
 434 90 431 65 431 53 c 0
 431 46 432 43 432 39 c 0
EndSplineSet
Validated: 1
EndChar

StartChar: colon
Encoding: 58 58 37
Width: 401
Flags: W
HStem: 512 20G<274.5 305>
VStem: 145 118<46.2426 113.406> 218 123<403.893 487.981>
LayerCount: 2
Fore
SplineSet
218 429 m 0xa0
 218 460 256 532 293 532 c 0
 317 532 341 504 341 464 c 0
 341 448 335 400 307 400 c 1
 295 392 295 356 258 356 c 0
 239 356 229 363 222 399 c 0
 219 411 218 420 218 429 c 0xa0
145 53 m 0xc0
 145 115 201 148 226 148 c 0
 257 148 263 117 263 97 c 0
 263 68 247 60 233 30 c 0
 219 0 199 -15 182 -15 c 0
 152 -15 145 25 145 53 c 0xc0
EndSplineSet
Validated: 1
EndChar

StartChar: semicolon
Encoding: 59 59 38
Width: 367
Flags: W
VStem: 211 133<318.429 416.918>
LayerCount: 2
Fore
SplineSet
344 402 m 0
 344 357 318 282 278 282 c 0
 250 282 211 294 211 344 c 0
 211 352 212 361 214 370 c 0
 222 409 234 431 274 443 c 0
 291 448 304 451 312 451 c 0
 337 451 344 427 344 402 c 0
252 148 m 0
 271 148 277 133 277 123 c 0
 277 94 151 -101 131 -107 c 0
 129 -108 124 -110 118 -110 c 0
 100 -110 90 -102 90 -85 c 0
 90 -81 91 -76 92 -71 c 0
 101 -49 203 121 222 135 c 0
 230 142 240 148 252 148 c 0
EndSplineSet
Validated: 1
EndChar

StartChar: less
Encoding: 60 60 39
Width: 545
Flags: W
VStem: 130 109<272.309 344.986>
DStem2: 257 452 306 386 0.796905 0.604105<-93.0487 362.589>
LayerCount: 2
Fore
SplineSet
556 659 m 0
 564 659 586 654 586 630 c 0
 586 589 544 570 436 487 c 2
 306 386 l 2
 269 356 244 329 239 321 c 1
 239 296 334 148 381 110 c 0
 402 93 447 52 447 24 c 0
 447 5 410 -33 383 -33 c 0
 373 -33 364 -27 359 -13 c 1
 355 -6 337 13 305 39 c 0
 220 108 130 249 130 317 c 0
 130 342 144 366 257 452 c 2
 443 593 l 2
 495 632 537 659 556 659 c 0
EndSplineSet
Validated: 1
EndChar

StartChar: equal
Encoding: 61 61 40
Width: 515
Flags: W
HStem: 187 89<174.668 421.995> 325 94<193.427 418.488> 325 86<182.022 401.678>
VStem: 141 324<217.375 250.518>
LayerCount: 2
Fore
SplineSet
465 247 m 0x90
 465 199 334 187 239 187 c 0
 171 187 141 188 141 213 c 0
 141 230 152 248 173 256 c 0
 208 269 281 276 345 276 c 0
 445 276 465 264 465 247 c 0x90
403 419 m 0xd0
 442 419 462 414 462 394 c 0
 462 378 452 361 434 352 c 0
 397 334 259 325 214 325 c 0xd0
 178 325 176 339 176 358 c 0
 176 402 181 398 279 411 c 1xb0
 334 416 375 419 403 419 c 0xd0
EndSplineSet
Validated: 1
EndChar

StartChar: greater
Encoding: 62 62 41
Width: 594
Flags: W
LayerCount: 2
Fore
SplineSet
466 311 m 1
 433 362 232 499 232 560 c 0
 232 589 275 601 291 601 c 0
 312 601 365 544 367 542 c 0
 480 416 571 371 571 326 c 0
 571 296 516 244 412 135 c 0
 337 57 282 -9 277 -13 c 1
 263 -34 235 -46 212 -46 c 0
 191 -46 175 -35 175 -19 c 0
 175 8 234 61 248 67 c 0
 262 73 448 279 466 311 c 1
EndSplineSet
Validated: 1
EndChar

StartChar: question
Encoding: 63 63 42
Width: 632
Flags: W
HStem: 533 21G<354 417.5> 781 74<425.848 520.352>
VStem: 254 126<18.3086 83.792> 273 72<602.162 716.644> 398 99<636.223 689.727> 549 70<616.536 752.979>
LayerCount: 2
Fore
SplineSet
254 7 m 0xec
 254 45 279 113 313 113 c 0
 334 113 380 75 380 57 c 0
 380 51 337 -32 286 -32 c 0
 261 -32 254 -13 254 7 c 0xec
273 662 m 0xdc
 273 764 424 855 497 855 c 0
 572 855 619 778 619 698 c 0
 619 613 569 544 467 440 c 2
 426 398 l 1
 412 327 l 1
 405 295 l 2
 397 258 385 218 357 218 c 0
 335 218 328 232 328 257 c 0
 328 277 333 305 340 338 c 0
 357 418 369 452 436 503 c 0
 502 552 549 637 549 696 c 0
 549 754 494 781 483 781 c 0
 444 781 345 717 345 680 c 0xdc
 345 656 364 594 377 590 c 1
 397 592 421 622 429 635 c 1
 428 635 398 636 398 656 c 0
 398 684 440 706 461 706 c 0
 480 706 497 689 497 659 c 0
 497 614 455 533 380 533 c 0xec
 328 533 273 594 273 662 c 0xdc
EndSplineSet
Validated: 1
EndChar

StartChar: at
Encoding: 64 64 43
Width: 704
Flags: W
HStem: -34 74<262.648 435.38> 160 66<267.5 355.073> 425 72<394.582 458.395> 580 63<435.802 575.533>
VStem: 112 83<95.9804 311.679> 226 78<232.574 324.65> 622 78<369.608 541.035>
LayerCount: 2
Fore
SplineSet
347 226 m 0
 362 226 358 269 384 276 c 1
 385 278 387 281 389 292 c 0
 397 330 412 340 429 371 c 0
 437 386 452 395 467 396 c 1
 455 408 431 425 419 425 c 1
 396 419 349 374 347 365 c 0
 340 333 304 325 304 269 c 0
 304 232 343 226 347 226 c 0
534 381 m 0
 534 338 498 312 498 256 c 0
 498 247 500 242 502 241 c 1
 514 245 548 272 554 283 c 1
 557 297 571 303 580 305 c 1
 595 324 622 414 622 436 c 0
 622 533 619 529 579 556 c 0
 554 573 535 580 513 580 c 0
 491 580 464 572 397 542 c 0
 331 512 314 497 264 424 c 0
 231 375 225 363 209 288 c 0
 200 244 195 216 195 190 c 0
 195 169 198 149 203 121 c 0
 207 100 250 40 373 40 c 0
 396 40 406 45 434 61 c 0
 472 82 488 99 522 148 c 2
 547 184 l 1
 532 177 512 169 487 169 c 0
 451 169 440 178 428 200 c 0
 421 213 417 226 416 235 c 1
 411 230 356 160 287 160 c 0
 248 160 226 193 226 239 c 0
 226 272 238 313 260 345 c 0
 292 393 406 497 438 497 c 0
 478 497 534 436 534 381 c 0
651 230 m 0
 651 190 552 18 435 -25 c 0
 416 -32 362 -34 330 -34 c 0
 290 -34 265 -32 250 -29 c 0
 212 -20 136 32 132 65 c 0
 131 74 130 76 129 78 c 1
 116 81 112 107 112 140 c 0
 112 194 123 265 127 282 c 0
 151 397 183 454 260 531 c 0
 316 587 345 604 436 628 c 0
 471 637 518 643 556 643 c 0
 588 643 610 640 620 634 c 0
 647 619 700 556 700 489 c 0
 700 471 698 449 693 426 c 0
 671 322 639 279 625 257 c 1
 635 255 651 251 651 230 c 0
EndSplineSet
Validated: 1
EndChar

StartChar: A
Encoding: 65 65 44
Width: 816
Flags: W
VStem: 618 119<387.912 608.011> 640 97<243 308> 646 101<69.7734 277.227>
DStem2: 448 375 458 290 0.995957 0.0898314<0 170.53>
LayerCount: 2
Fore
SplineSet
747 105 m 0x20
 747 63 740 52 712 52 c 0
 700 52 687 58 677 63 c 0
 639 86 658 113 646 243 c 2x20
 640 308 l 1x40
 596 303 l 2
 564 299 504 293 458 290 c 2
 385 285 l 1
 346 242 l 2
 262 148 207 68 178 23 c 0
 165 2 139 -31 104 -31 c 0
 94 -31 67 -27 67 -10 c 0
 67 20 123 62 128 84 c 0
 132 103 143 124 160 132 c 1
 172 136 206 215 241 246 c 0
 262 264 279 282 389 454 c 0
 455 556 595 742 623 763 c 1
 633 766 642 771 654 771 c 0
 662 771 673 769 685 761 c 1
 699 740 737 586 737 528 c 0x80
 737 510 734 515 734 484 c 0
 734 449 739 401 739 350 c 0
 739 308 737 308 737 280 c 0x40
 737 221 747 152 747 105 c 0x20
615 406 m 0
 617 416 618 448 618 483 c 0x80
 618 531 616 586 611 611 c 1
 533 525 448 375 448 375 c 1
 515 379 l 2
 591 384 611 385 615 406 c 0
EndSplineSet
Validated: 1
EndChar

StartChar: B
Encoding: 66 66 45
Width: 707
Flags: W
HStem: 12 81<358.932 483.694> 24 70<334.311 412.884> 718 69<411.442 643.425>
VStem: 233 98<53 261.505> 614 83<250.881 386.4> 644 84<659.439 712.199>
LayerCount: 2
Fore
SplineSet
517 142 m 0xb8
 564 181 591 204 608 286 c 0
 612 304 614 319 614 332 c 0
 614 381 588 399 545 399 c 0
 487 399 421 369 373 354 c 0
 359 349 360 340 343 238 c 0
 336 192 331 160 331 139 c 0
 331 96 350 95 402 94 c 0x78
 412 94 420 93 428 93 c 0
 460 93 464 97 517 142 c 0xb8
644 693 m 0x34
 644 701 635 718 575 718 c 0
 515 718 430 705 413 698 c 0
 405 695 404 693 400 672 c 2
 396 652 l 2
 383 592 377 504 377 464 c 0
 377 442 379 437 384 437 c 0
 407 440 548 553 606 633 c 0
 625 659 644 688 644 693 c 0x34
697 364 m 0x78
 697 175 518 12 414 12 c 0xb8
 390 12 378 24 358 24 c 0
 335 24 303 7 276 7 c 0
 244 7 233 31 233 75 c 0
 233 144 260 261 271 411 c 0
 274 455 284 530 290 579 c 2
 300 655 l 1
 273 655 l 2
 261 655 216 656 216 683 c 0
 216 718 289 745 403 771 c 0
 444 780 527 787 608 787 c 0
 674 787 678 781 710 758 c 16
 724 748 728 727 728 713 c 0x74
 728 710 727 706 727 704 c 0
 704 607 606 520 580 489 c 1
 616 487 677 443 688 416 c 0
 695 401 697 382 697 364 c 0x78
EndSplineSet
Validated: 1
EndChar

StartChar: C
Encoding: 67 67 46
Width: 779
Flags: W
HStem: 10 96<313.827 451.839> 723 87<569.701 692.69>
VStem: 166 97<160.115 312.87> 689 86<685.794 722.86>
LayerCount: 2
Fore
SplineSet
775 716 m 0
 775 698 768 676 741 676 c 0
 700 676 689 718 689 718 c 1
 687 722 683 723 675 723 c 0
 608 723 475 673 409 619 c 0
 359 579 316 503 273 303 c 0
 266 273 263 252 263 235 c 0
 263 163 314 106 376 106 c 0
 407 106 496 142 527 167 c 2
 593 218 l 2
 670 277 721 362 756 362 c 1
 762 360 773 360 773 340 c 0
 773 335 773 329 771 321 c 0
 760 270 543 10 353 10 c 0
 207 10 166 156 166 179 c 0
 166 241 228 506 264 577 c 0
 328 705 528 810 654 810 c 0
 723 810 775 765 775 716 c 0
EndSplineSet
Validated: 1
EndChar

StartChar: D
Encoding: 68 68 47
Width: 907
Flags: W
HStem: 611 116<226.105 274.307> 685 107<467.088 702.091>
VStem: 851 99<459.535 604.934>
LayerCount: 2
Fore
SplineSet
508 685 m 0x60
 474 685 470 682 464 654 c 0
 444 562 455 243 404 112 c 2
 390 76 l 1
 431 76 l 2
 491 76 563 112 664 198 c 0
 779 296 817 385 844 512 c 0
 848 533 851 547 851 558 c 0
 851 577 844 587 829 607 c 0
 805 638 781 649 693 665 c 0
 675 668 584 685 508 685 c 0x60
199 662 m 0
 209 694 243 727 263 727 c 1xa0
 292 736 273 769 401 782 c 0
 465 788 510 792 547 792 c 0x60
 586 792 616 788 657 781 c 0
 863 747 950 692 950 577 c 0
 950 557 947 536 942 512 c 0
 880 220 611 36 437 0 c 1
 362 -18 396 -76 325 -76 c 0
 302 -76 286 -68 286 -52 c 1
 280 -46 245 -42 245 -7 c 0
 245 7 252 41 284 52 c 1
 292 57 303 90 310 123 c 0
 329 214 321 264 350 513 c 2
 368 668 l 1
 345 666 l 1
 288 659 263 611 234 611 c 0xa0
 219 611 198 635 198 656 c 0
 198 658 199 660 199 662 c 0
EndSplineSet
Validated: 1
EndChar

StartChar: E
Encoding: 69 69 48
Width: 631
Flags: W
HStem: -11 101<214 373.939> 710 83<471.078 674.181>
LayerCount: 2
Fore
SplineSet
214 -11 m 0
 121 -11 121 19 121 45 c 0
 121 119 158 303 181 508 c 0
 183 520 184 558 193 598 c 0
 212 686 248 710 269 710 c 0
 299 710 406 793 601 793 c 0
 672 793 697 776 697 757 c 0
 697 738 673 723 580 710 c 0
 455 692 343 656 309 631 c 0
 297 622 292 612 289 599 c 0
 289 597 268 402 268 386 c 1
 300 398 487 439 543 439 c 0
 569 439 578 424 578 411 c 0
 578 399 570 387 559 378 c 0
 510 340 298 315 258 294 c 0
 252 291 252 290 250 281 c 0
 245 257 234 208 226 161 c 2
 214 90 l 1
 256 90 l 2
 317 90 438 117 510 150 c 0
 530 160 547 169 561 169 c 0
 582 169 596 147 596 129 c 0
 596 62 357 -11 214 -11 c 0
EndSplineSet
Validated: 1
EndChar

StartChar: F
Encoding: 70 70 49
Width: 654
Flags: W
HStem: 662 127<537.816 589.059>
DStem2: 327 433 314 330 0.988506 0.151183<0 190.574>
LayerCount: 2
Fore
SplineSet
292 183 m 2
 269 29 258 10 217 10 c 0
 207 10 177 14 171 30 c 0
 171 32 170 35 170 38 c 0
 170 52 174 74 179 96 c 0
 205 219 188 298 240 544 c 2
 275 710 l 1
 364 739 l 1
 418 755 477 765 504 765 c 0
 579 765 561 789 668 789 c 0
 703 789 750 788 750 762 c 0
 750 694 640 695 463 662 c 2
 359 643 l 1
 347 586 l 2
 338 543 329 487 328 465 c 2
 327 433 l 1
 385 439 l 2
 411 442 470 447 520 447 c 0
 574 447 606 442 606 423 c 0
 606 375 411 345 399 343 c 2
 314 330 l 1
 292 183 l 2
EndSplineSet
Validated: 1
EndChar

StartChar: G
Encoding: 71 71 50
Width: 752
Flags: W
HStem: -6 101<230.457 358.143> 352 120<467.651 571.072> 693 95<631.371 711.148>
VStem: 125 99<101.061 276.307> 572 144<281.743 351.599>
LayerCount: 2
Fore
SplineSet
802 727 m 0
 802 705 766 646 735 646 c 0
 700 647 719 693 705 693 c 0
 666 693 493 652 321 429 c 0
 262 352 256 337 238 251 c 0
 229 206 224 173 224 150 c 0
 224 107 241 95 277 95 c 0
 343 95 406 120 460 172 c 0
 537 245 572 313 572 330 c 0
 572 342 563 352 552 352 c 0
 537 352 534 331 477 331 c 0
 441 331 376 342 376 385 c 0
 376 388 376 391 377 395 c 0
 392 447 447 439 470 458 c 0
 477 464 482 472 522 472 c 0
 567 472 667 457 693 432 c 0
 709 416 716 379 716 332 c 0
 716 259 700 163 684 86 c 0
 678 56 668 -8 616 -8 c 0
 587 -8 577 9 577 40 c 0
 577 66 584 101 593 142 c 2
 607 209 l 1
 597 196 l 1
 487 71 358 -6 255 -6 c 0
 230 -6 202 0 175 15 c 0
 148 31 125 49 125 157 c 0
 125 216 142 262 156 304 c 0
 192 412 215 453 316 561 c 0
 471 726 600 735 627 764 c 0
 644 781 669 788 696 788 c 0
 747 788 802 761 802 727 c 0
EndSplineSet
Validated: 1
EndChar

StartChar: H
Encoding: 72 72 51
Width: 718
Flags: W
LayerCount: 2
Fore
SplineSet
320 837 m 0
 334 837 337 832 337 805 c 0
 337 726 300 528 300 455 c 0
 300 446 301 440 302 435 c 1
 320 441 377 461 539 506 c 1
 575 513 612 522 623 526 c 1
 649 553 678 687 708 725 c 0
 716 735 730 738 742 738 c 0
 762 738 773 737 773 702 c 0
 773 663 758 580 724 407 c 0
 658 71 669 96 664 71 c 0
 659 49 633 37 610 37 c 0
 599 37 589 40 582 46 c 1
 576 55 574 71 574 91 c 0
 574 180 622 358 624 441 c 1
 591 431 505 391 362 344 c 2
 275 315 l 1
 245 144 l 2
 212 -41 198 -60 166 -60 c 0
 139 -60 127 -38 127 13 c 0
 127 123 215 597 236 695 c 0
 246 744 255 783 267 801 c 1
 287 827 306 837 320 837 c 0
EndSplineSet
Validated: 1
EndChar

StartChar: I
Encoding: 73 73 52
Width: 664
Flags: W
HStem: -18 99<156.508 305.502> 763 20G<576.5 628>
DStem2: 386 292 550 518 0.17554 0.984472<-34.0109 379.496>
LayerCount: 2
Fore
SplineSet
707 737 m 0
 707 692 655 683 601 677 c 2
 581 675 l 1
 550 518 l 2
 525 389 491 204 491 144 c 1
 499 148 512 153 526 153 c 0
 550 153 569 140 569 119 c 0
 569 74 506 48 354 6 c 1
 307 -10 272 -18 236 -18 c 0
 228 -18 137 -11 137 34 c 0
 137 81 181 81 198 81 c 0
 215 81 256 86 303 102 c 2
 359 121 l 1
 386 292 l 2
 402 392 426 520 438 578 c 2
 456 665 l 1
 438 662 l 2
 384 653 345 648 317 648 c 0
 264 648 251 662 251 675 c 0
 251 723 395 742 500 774 c 1
 500 774 551 783 602 783 c 0
 654 783 707 774 707 737 c 0
EndSplineSet
Validated: 1
EndChar

StartChar: J
Encoding: 74 74 53
Width: 741
Flags: W
HStem: -53 103<321.216 371.087>
VStem: 153 115<142.63 298.02> 201 647<618 746>
DStem2: 400.369 -53 492.78 -53 0.207912 0.978148<354.351 668.33>
LayerCount: 2
Fore
SplineSet
278 291 m 0xc0
 278 265 268 239 268 204 c 0xc0
 268 175 276 152 291 123 c 0
 314 80 332 50 346 50 c 0
 392 50 487 356 516 491 c 2
 527 542 l 2
 533 571 536 590 536 602 c 0
 536 620 529 624 514 624 c 0
 466 624 284 575 238 575 c 0
 231 575 213 575 207 591 c 0
 204 600 201 609 201 618 c 0
 201 665 274 681 543 736 c 1
 800 793 l 1
 818 789 848 767 848 746 c 0xa0
 848 694 680 677 650 659 c 1
 646 650 635 619 624 565 c 2
 615 522 l 2
 587 392 519 165 483 89 c 0
 441 2 382 -53 348 -53 c 0
 303 -53 241 -22 241 6 c 0
 241 8 242 10 242 12 c 0
 242 16 240 21 230 29 c 0
 206 50 153 176 153 247 c 0
 153 298 188 330 230 330 c 0
 268 330 278 316 278 291 c 0xc0
EndSplineSet
Validated: 1
EndChar

StartChar: K
Encoding: 75 75 54
Width: 831
Flags: W
HStem: 7 131<681.624 739.41>
LayerCount: 2
Fore
SplineSet
308 831 m 0
 325 831 350 818 350 778 c 0
 350 717 314 576 312 508 c 2
 311 479 l 1
 412 561 l 2
 553 675 557 664 568 667 c 0
 588 673 628 716 657 716 c 0
 677 716 701 753 744 753 c 0
 776 753 792 732 792 711 c 0
 792 673 753 662 725 655 c 0
 656 636 351 400 320 354 c 1
 329 348 354 333 473 268 c 0
 663 164 681 138 699 138 c 1
 734 135 790 71 790 44 c 0
 790 40 784 7 760 7 c 0
 727 7 608 56 574 77 c 0
 488 131 308 227 271 242 c 1
 260 210 260 102 241 10 c 0
 231 -39 217 -66 185 -66 c 0
 148 -66 136 -45 136 3 c 0
 136 99 205 518 249 729 c 1
 254 752 l 2
 265 802 275 831 308 831 c 0
EndSplineSet
Validated: 1
EndChar

StartChar: L
Encoding: 76 76 55
Width: 760
Flags: W
HStem: -10 100<192.5 403.446>
VStem: 144 105<27.5 231.673>
LayerCount: 2
Fore
SplineSet
249 117 m 0
 249 93 251 90 271 90 c 0
 341 90 681 173 693 173 c 0
 711 173 735 158 735 135 c 0
 735 119 725 108 704 94 c 0
 654 60 357 -10 218 -10 c 0
 167 -10 144 -4 144 59 c 0
 144 161 250 719 256 749 c 0
 261 772 270 788 292 788 c 0
 314 788 330 761 330 729 c 0
 330 626 249 221 249 117 c 0
EndSplineSet
Validated: 1
EndChar

StartChar: M
Encoding: 77 77 56
Width: 779
Flags: W
VStem: 621 107<-2.22217 197.503>
LayerCount: 2
Fore
SplineSet
675 -12 m 0
 647 -12 621 7 621 39 c 0
 621 110 704 533 717 646 c 1
 666 582 693 598 550 423 c 0
 510 374 423 320 369 320 c 0
 347 320 319 368 302 413 c 2
 284 459 l 1
 239 249 l 2
 181 -23 157 -71 113 -71 c 0
 93 -71 82 -59 82 -20 c 0
 82 44 110 183 170 464 c 0
 218 688 236 767 253 784 c 0
 262 793 284 808 303 808 c 0
 333 808 342 770 350 678 c 0
 364 522 397 419 413 404 c 1
 436 417 521 511 680 734 c 0
 707 772 754 803 787 803 c 0
 804 803 831 794 831 734 c 0
 831 620 726 224 726 86 c 0
 726 68 728 60 728 51 c 0
 728 27 718 -12 675 -12 c 0
EndSplineSet
Validated: 1
EndChar

StartChar: N
Encoding: 78 78 57
Width: 881
Flags: W
HStem: -21 737<694 933>
VStem: 106 137<112.812 203.324>
LayerCount: 2
Fore
SplineSet
263 316 m 0
 245 232 250 219 243 185 c 0
 227 110 189 31 155 31 c 0
 121 31 106 41 106 80 c 0
 106 162 247 721 262 752 c 1
 262 752 280 786 323 786 c 0
 337 786 350 781 361 773 c 0
 381 757 468 600 468 575 c 1
 471 557 519 484 587 284 c 0
 627 166 661 100 678 93 c 1
 693 110 717 186 758 331 c 0
 849 656 863 716 933 716 c 0
 961 716 968 698 968 678 c 0
 968 632 918 512 834 226 c 0
 779 40 760 -21 694 -21 c 0
 590 -21 535 55 490 195 c 0
 437 357 430 334 427 388 c 0
 425 429 365 536 340 589 c 1
 320 540 284 415 263 316 c 0
EndSplineSet
Validated: 1
EndChar

StartChar: O
Encoding: 79 79 58
Width: 707
Flags: W
HStem: -26 94<285.016 422.516> 650 123<580.195 651.013>
VStem: 122 104<150.701 363.236> 686 89<455.562 609.415>
LayerCount: 2
Fore
SplineSet
590 280 m 0
 629 391 686 477 686 518 c 0
 686 560 657 633 649 644 c 1
 645 647 637 650 617 650 c 0
 594 650 555 645 495 628 c 0
 339 584 276 435 256 385 c 0
 240 343 226 311 226 275 c 0
 226 258 228 238 233 210 c 0
 249 110 288 68 346 68 c 0
 362 68 382 72 403 79 c 0
 448 95 567 217 590 280 c 0
775 593 m 0
 775 347 548 14 463 14 c 0
 455 14 452 3 442 -3 c 0
 418 -17 346 -26 296 -26 c 0
 255 -26 237 -19 205 10 c 0
 154 56 122 155 122 248 c 0
 122 410 244 584 354 648 c 0
 404 677 439 691 459 692 c 1
 483 697 520 746 560 746 c 0
 593 746 581 773 637 773 c 0
 726 773 775 705 775 593 c 0
EndSplineSet
Validated: 1
EndChar

StartChar: P
Encoding: 80 80 59
Width: 703
Flags: W
HStem: 320 89<338.141 460.93> 706 106<419.452 655.991>
VStem: 699 97<602.383 744.5>
LayerCount: 2
Fore
SplineSet
699 640 m 0
 699 697 554 706 551 706 c 0
 532 706 511 702 452 691 c 0
 382 678 374 676 359 604 c 0
 346 544 337 462 337 426 c 0
 337 418 337 413 338 410 c 1
 341 409 345 409 350 409 c 0
 386 409 482 426 542 454 c 0
 572 468 594 489 597 499 c 0
 616 552 699 593 699 640 c 0
414 795 m 0
 481 795 518 812 585 812 c 0
 590 812 598 812 606 811 c 0
 718 797 796 788 796 701 c 0
 796 643 748 511 711 509 c 1
 708 505 708 497 706 494 c 0
 683 453 556 364 503 354 c 1
 452 341 461 339 451 333 c 0
 439 326 409 320 372 320 c 2
 324 320 l 1
 299 159 l 2
 274 2 266 -43 213 -65 c 0
 208 -67 203 -68 198 -68 c 0
 180 -68 168 -53 168 -22 c 0
 168 35 226 439 249 553 c 2
 265 632 l 1
 250 624 228 610 209 610 c 0
 198 610 183 620 183 638 c 0
 183 658 202 687 265 740 c 0
 314 781 338 798 368 798 c 0
 387 798 386 795 414 795 c 0
EndSplineSet
Validated: 1
EndChar

StartChar: Q
Encoding: 81 81 60
Width: 813
Flags: W
HStem: -55 104<250.061 410.452> -18 21G<750 764.5> 661 124<550.195 766.5>
VStem: 102 103<104.596 327.284> 735 89<507.764 655.5>
LayerCount: 2
Fore
SplineSet
792 16 m 0xb8
 792 -11 770 -18 759 -18 c 0x78
 741 -18 698 5 679 27 c 0
 674 33 655 49 625 73 c 1
 589 100 l 1
 572 80 l 1
 497 -6 393 -55 300 -55 c 0
 247 -55 199 -39 162 -5 c 0
 127 28 102 126 102 209 c 0
 102 317 172 475 237 566 c 1
 393 780 669 785 734 785 c 0
 799 785 824 679 824 632 c 0
 824 563 792 440 714 288 c 2
 666 195 l 1
 690 174 l 1
 737 131 792 59 792 16 c 0xb8
593 264 m 1
 620 295 735 508 735 564 c 0
 735 587 724 602 706 624 c 0
 681 654 672 661 552 661 c 0
 513 661 490 659 487 658 c 0
 438 643 308 530 303 507 c 0
 301 498 291 476 276 462 c 1
 262 444 205 281 205 215 c 0
 205 196 208 179 212 156 c 0
 227 77 253 49 325 49 c 0xb8
 400 49 510 109 520 151 c 1
 518 162 491 204 423 263 c 0
 409 275 395 287 395 301 c 0
 395 317 423 350 452 350 c 0
 485 350 570 274 593 264 c 1
EndSplineSet
Validated: 1
EndChar

StartChar: R
Encoding: 82 82 61
Width: 688
Flags: W
HStem: 57 131<560.415 621.482> 653 114<373 554.401>
VStem: 181 102<7.92902 147.111>
LayerCount: 2
Fore
SplineSet
191 626 m 0
 191 666 314 767 335 767 c 0
 392 767 641 737 675 726 c 0
 718 712 732 681 732 649 c 0
 732 544 592 442 579 424 c 1
 571 397 358 303 350 299 c 1
 392 285 493 255 545 218 c 0
 567 202 583 191 589 188 c 1
 618 183 659 125 659 99 c 0
 659 91 652 57 620 57 c 0
 575 57 495 129 361 183 c 2
 301 207 l 1
 283 109 l 2
 268 27 267 -24 214 -24 c 0
 190 -24 181 -5 181 27 c 0
 181 77 204 145 204 199 c 0
 204 230 196 242 187 246 c 0
 169 255 158 269 158 286 c 0
 158 308 177 329 206 341 c 2
 233 352 l 1
 248 457 l 2
 258 526 263 569 263 591 c 0
 263 597 263 602 262 605 c 1
 256 601 244 593 226 593 c 0
 205 593 191 606 191 626 c 0
643 614 m 1
 626 623 526 653 435 653 c 2
 373 653 l 1
 371 614 l 2
 368 570 348 424 342 380 c 1
 382 392 474 433 515 462 c 0
 558 492 633 587 643 614 c 1
EndSplineSet
Validated: 1
EndChar

StartChar: S
Encoding: 83 83 62
Width: 631
Flags: W
HStem: 0 241<161.064 233> 681 80<438.933 618.475>
VStem: 120 82<98.2106 161.564> 168 106<467.662 547.544> 514 96<167.192 259.88>
LayerCount: 2
Fore
SplineSet
249 212 m 0xe8
 249 164 202 156 202 134 c 0xe8
 202 130 203 125 205 119 c 0
 211 96 214 95 298 95 c 0
 370 95 397 100 435 122 c 0
 493 156 500 163 511 213 c 0
 513 221 514 228 514 233 c 0
 514 250 502 257 457 278 c 0
 418 297 382 308 373 309 c 1
 306 309 168 440 168 502 c 0
 168 558 281 691 410 743 c 0
 437 754 495 761 561 761 c 0
 624 761 645 754 674 726 c 0
 697 704 707 678 707 661 c 0
 707 654 702 618 678 618 c 0
 644 618 634 681 541 681 c 0
 401 681 274 555 274 498 c 0xd8
 274 468 351 425 465 389 c 0
 572 355 610 305 610 249 c 0
 610 223 601 191 586 163 c 0
 529 52 460 20 254 7 c 2
 145 0 l 1
 128 64 l 2
 123 82 120 100 120 117 c 0
 120 184 159 241 218 241 c 0
 233 241 249 235 249 212 c 0xe8
EndSplineSet
Validated: 1
EndChar

StartChar: T
Encoding: 84 84 63
Width: 884
Flags: W
HStem: 663 104<753.024 984.588>
VStem: 563 102<353.588 618.993>
LayerCount: 2
Fore
SplineSet
563 565 m 0
 563 617 560 619 540 619 c 0
 515 619 428 599 364 599 c 0
 319 599 272 584 235 584 c 0
 200 584 177 600 177 622 c 0
 177 681 274 664 753 746 c 0
 832 759 875 767 907 767 c 0
 961 767 1007 745 1007 718 c 0
 1007 696 978 663 888 663 c 0
 853 663 783 655 738 646 c 2
 667 631 l 1
 665 562 l 2
 662 463 596 2 596 2 c 1
 590 -24 578 -46 545 -46 c 0
 519 -46 507 -28 507 26 c 0
 507 141 563 403 563 565 c 0
EndSplineSet
Validated: 1
EndChar

StartChar: U
Encoding: 85 85 64
Width: 729
Flags: W
HStem: -11 96<296.787 410.129>
VStem: 180 109<90.4249 443.895> 239 97<556.298 742.271> 688 119<589.037 748.816> 702 105<497.454 740.651>
LayerCount: 2
Fore
SplineSet
688 734 m 0x90
 688 785 744 789 746 789 c 0
 804 789 789 666 803 642 c 0
 805 638 807 630 807 620 c 0
 807 598 801 567 795 539 c 0
 700 90 416 -11 340 -11 c 0
 297 -11 231 13 202 46 c 0
 186 65 180 114 180 176 c 0xd0
 180 343 224 609 239 676 c 0
 251 733 260 754 295 770 c 0
 300 772 306 774 311 774 c 0
 330 774 336 755 336 728 c 0xa0
 336 694 289 381 289 175 c 0
 289 107 294 85 338 85 c 0
 356 85 384 91 433 117 c 0
 524 165 580 230 640 357 c 1
 671 419 702 494 702 586 c 0xc8
 702 651 688 702 688 734 c 0x90
EndSplineSet
Validated: 1
EndChar

StartChar: V
Encoding: 86 86 65
Width: 794
Flags: W
VStem: 244 98<570.651 613>
LayerCount: 2
Fore
SplineSet
211 704 m 0
 211 755 265 770 277 770 c 0
 316 770 313 713 324 705 c 1
 328 705 344 705 344 690 c 0
 344 686 342 684 342 679 c 0
 342 649 370 567 398 386 c 0
 415 281 433 189 446 157 c 1
 482 202 582 358 622 434 c 0
 658 502 788 728 840 755 c 0
 842 755 847 757 853 757 c 0
 865 757 899 751 899 726 c 0
 899 687 790 527 698 358 c 0
 670 308 605 211 552 138 c 0
 487 49 453 5 415 5 c 0
 358 5 346 33 318 183 c 2
 266 459 l 2
 255 518 244 581 244 613 c 1
 244 613 243 612 243 611 c 1
 240 631 211 665 211 704 c 0
EndSplineSet
Validated: 1
EndChar

StartChar: W
Encoding: 87 87 66
Width: 930
Flags: W
HStem: 35 476<552 716>
VStem: 197 110<187 458.552>
DStem2: 307 187 508 341 0.533993 0.845489<2.5135 237.538> 792 354 878 328 0.38309 0.923711<-144.626 471.696>
LayerCount: 2
Fore
SplineSet
200 489 m 0
 200 535 206 542 206 555 c 0
 206 573 194 569 194 602 c 0
 194 634 206 702 220 718 c 1
 226 722 234 724 243 724 c 0
 251 724 260 722 266 718 c 1
 315 668 290 309 307 187 c 1
 349 249 454 445 487 486 c 1
 494 493 517 511 552 511 c 0
 629 511 697 395 718 262 c 0
 721 245 727 228 731 219 c 1
 749 244 783 312 792 354 c 1
 802 395 949 750 977 790 c 1
 979 791 983 794 992 794 c 0
 1024 794 1044 787 1044 761 c 0
 1044 743 1035 709 985 586 c 2
 878 328 l 2
 785 104 786 134 776 85 c 0
 769 54 745 35 716 35 c 1
 656 39 661 110 647 125 c 1
 641 126 638 125 634 128 c 1
 628 136 625 154 625 167 c 0
 625 231 582 355 557 383 c 2
 544 398 l 1
 508 341 l 2
 282 -18 310 -42 244 -42 c 0
 231 -42 216 -39 208 -31 c 1
 200 -19 197 27 197 87 c 0
 197 176 203 295 203 386 c 0
 203 447 200 458 200 489 c 0
EndSplineSet
Validated: 1
EndChar

StartChar: X
Encoding: 88 88 67
Width: 813
Flags: W
LayerCount: 2
Fore
SplineSet
792 100 m 0
 792 63 739 54 728 54 c 0
 698 54 676 87 600 172 c 2
 507 276 l 1
 476 246 l 1
 392 149 350 82 329 66 c 1
 308 46 261 -30 203 -30 c 0
 184 -30 163 -22 163 -9 c 0
 163 36 413 313 431 360 c 1
 431 428 197 658 197 729 c 0
 197 746 207 760 236 760 c 0
 270 760 319 701 400 612 c 1
 527 481 l 1
 576 532 l 2
 643 602 772 721 811 721 c 0
 839 721 846 712 846 703 c 0
 846 666 754 584 754 584 c 1
 737 571 691 523 651 467 c 2
 586 376 l 1
 617 335 l 2
 686 243 792 157 792 100 c 0
EndSplineSet
Validated: 1
EndChar

StartChar: Y
Encoding: 89 89 68
Width: 782
Flags: W
HStem: 764 20G<813.5 846>
LayerCount: 2
Fore
SplineSet
223 710 m 0
 223 732 243 747 264 747 c 0
 292 747 314 722 459 553 c 0
 514 489 564 450 578 443 c 1
 609 446 657 526 765 657 c 0
 805 705 786 784 841 784 c 0
 851 784 897 767 897 746 c 0
 897 677 721 437 646 368 c 0
 590 316 605 327 470 122 c 2
 343 -72 l 2
 328 -94 305 -104 285 -104 c 0
 261 -104 241 -88 241 -70 c 0
 241 -55 258 -1 421 221 c 2
 503 333 l 1
 369 495 l 2
 261 627 223 677 223 710 c 0
EndSplineSet
Validated: 1
EndChar

StartChar: Z
Encoding: 90 90 69
Width: 1010
Flags: W
HStem: -3 97<336.328 634.811> 33 100<627 873.31> 68 96<866.785 984.26> 559 21G<209.5 228> 641 97<504.752 755.504>
LayerCount: 2
Fore
SplineSet
1008 136 m 0x38
 1008 92 961 68 923 68 c 0x38
 870 68 874 33 765 33 c 1x58
 638 30 589 -3 421 -3 c 0
 316 -3 254 8 254 47 c 0
 254 78 295 102 299 118 c 1
 308 146 424 281 447 293 c 0
 451 295 451 301 455 308 c 0
 471 335 566 430 633 482 c 0
 676 516 752 616 756 635 c 1
 750 639 722 641 654 641 c 0
 487 641 490 616 340 593 c 0
 290 585 262 576 256 572 c 1
 246 563 234 559 222 559 c 0
 197 559 168 574 168 593 c 0
 168 599 170 606 174 612 c 0
 214 666 540 738 734 738 c 0
 812 738 867 723 867 669 c 0
 867 662 866 655 864 647 c 0
 853 595 767 491 720 448 c 0
 590 331 421 156 401 115 c 1
 402 108 436 94 499 94 c 0x98
 615 94 631 127 779 133 c 1x58
 900 136 836 145 937 161 c 0
 948 163 959 164 969 164 c 0
 992 164 1008 157 1008 136 c 0x38
EndSplineSet
Validated: 1
EndChar

StartChar: bracketleft
Encoding: 91 91 70
Width: 485
Flags: W
HStem: -78 86<239.004 366.909> 605 110<311 443>
VStem: 151 88<-48.5 152.384>
LayerCount: 2
Fore
SplineSet
222 -78 m 0
 163 -78 151 -75 151 -22 c 0
 151 64 195 251 224 502 c 0
 240 645 245 669 323 691 c 0
 383 708 420 715 443 715 c 0
 459 715 494 711 494 684 c 0
 494 639 437 634 413 631 c 0
 330 621 353 606 311 605 c 1
 311 602 311 599 311 596 c 0
 311 488 239 78 239 30 c 0
 239 10 245 8 258 8 c 0
 285 8 318 13 344 13 c 0
 370 13 389 8 389 -14 c 0
 389 -34 378 -49 369 -55 c 0
 351 -68 277 -78 222 -78 c 0
EndSplineSet
Validated: 1
EndChar

StartChar: backslash
Encoding: 92 92 71
Width: 693
Flags: W
VStem: 177 91<601.245 678.066>
LayerCount: 2
Fore
SplineSet
177 644 m 0
 177 676 199 684 219 684 c 0
 234 684 268 677 268 646 c 0
 268 616 412 425 460 296 c 0
 471 265 483 242 486 238 c 0
 505 214 555 112 568 77 c 0
 584 32 602 10 602 -8 c 0
 602 -26 576 -50 549 -50 c 0
 521 -50 505 -22 493 13 c 0
 470 79 392 209 364 274 c 0
 301 418 213 508 208 550 c 0
 208 551 207 556 205 559 c 1
 187 562 177 616 177 644 c 0
EndSplineSet
Validated: 1
EndChar

StartChar: bracketright
Encoding: 93 93 72
Width: 538
Flags: W
HStem: -45 75<190.928 301.083> 596 89<309.617 395.628> 614 71<309.312 443>
VStem: 419 81<421.108 640>
DStem2: 324 42 393 -17 0.223898 0.974613<0 342.371>
LayerCount: 2
Fore
SplineSet
419 588 m 0xb0
 419 611 410 614 397 614 c 0xb0
 368 614 321 596 300 596 c 0xd0
 280 596 270 608 270 621 c 0
 270 644 321 674 347 680 c 0
 357 682 393 685 427 685 c 0
 459 685 489 682 495 671 c 0
 499 664 500 650 500 630 c 0
 500 531 460 294 424 127 c 2
 393 -17 l 1
 359 -32 l 1
 337 -40 281 -45 235 -45 c 0
 186 -45 159 -42 159 -24 c 0
 159 8 228 21 269 30 c 2
 324 42 l 1
 347 143 l 2
 350 158 355 174 358 190 c 0
 390 342 419 540 419 588 c 0xb0
EndSplineSet
Validated: 1
EndChar

StartChar: asciicircum
Encoding: 94 94 73
Width: 447
Flags: W
HStem: 566 21G<199.5 210> 578 230<378 476>
VStem: 182 329<583 621>
LayerCount: 2
Fore
SplineSet
511 621 m 0x60
 511 607 497 578 476 578 c 0x60
 430 578 380 699 357 705 c 1
 340 704 265 586 228 570 c 0
 223 568 214 566 206 566 c 0xa0
 193 566 182 570 182 583 c 0
 182 595 205 635 219 648 c 0
 268 695 341 808 378 808 c 0
 404 808 511 670 511 621 c 0x60
EndSplineSet
Validated: 1
EndChar

StartChar: underscore
Encoding: 95 95 74
Width: 598
Flags: W
HStem: -35 62<33.4253 299.244>
LayerCount: 2
Fore
SplineSet
85 -35 m 0
 51 -35 31 -30 31 3 c 0
 31 9 39 26 74 27 c 0
 104 28 383 54 408 62 c 1
 413 66 417 67 457 67 c 0
 533 67 561 66 561 44 c 0
 561 -15 495 7 285 -17 c 0
 178 -29 119 -35 85 -35 c 0
EndSplineSet
Validated: 1
EndChar

StartChar: grave
Encoding: 96 96 75
Width: 420
Flags: W
HStem: 532 178
VStem: 242 150
LayerCount: 2
Fore
SplineSet
392 569 m 0
 392 560 379 532 359 532 c 0
 322 532 242 643 242 670 c 0
 242 686 272 710 288 710 c 0
 301 710 392 607 392 569 c 0
EndSplineSet
Validated: 1
EndChar

StartChar: a
Encoding: 97 97 76
Width: 608
Flags: W
HStem: -1 73<195.676 332.893> 227 78<305.489 464.144> 472 77<392.595 526.81>
VStem: 116 78<78.8281 155.086> 535 83<292.571 467.673>
LayerCount: 2
Fore
SplineSet
194 100 m 0
 194 83 229 72 246 72 c 0
 295 72 388 115 388 115 c 1
 393 139 472 178 472 192 c 0
 472 198 461 227 375 227 c 0
 249 227 194 143 194 100 c 0
618 428 m 0
 618 372 569 184 555 51 c 1
 545 17 510 -5 500 -5 c 0
 475 -5 469 25 469 56 c 0
 469 73 471 91 472 105 c 1
 422 59 310 -1 249 -1 c 0
 215 -1 152 12 131 30 c 0
 120 40 116 60 116 82 c 0
 116 186 177 228 266 268 c 0
 331 298 385 305 411 305 c 0
 474 305 482 276 491 272 c 1
 505 269 511 264 516 259 c 1
 530 324 535 369 535 401 c 0
 535 459 517 472 496 472 c 0
 384 472 265 395 212 395 c 0
 196 395 191 405 191 413 c 0
 191 415 192 416 192 418 c 0
 205 477 272 485 394 528 c 0
 437 543 474 549 504 549 c 0
 559 549 593 524 609 473 c 0
 615 456 618 445 618 428 c 0
EndSplineSet
Validated: 1
EndChar

StartChar: b
Encoding: 98 98 77
Width: 707
Flags: W
HStem: -23 81<270.332 364.145> 452 90<522.041 637.921>
VStem: 155 109<39.5 190.58> 221 120<630.335 733.862> 645 85<313.086 446.01>
LayerCount: 2
Fore
SplineSet
624 542 m 0xd8
 661 542 730 511 730 416 c 0
 730 312 651 177 541 93 c 0
 475 42 335 -23 278 -23 c 0
 208 -23 155 27 155 52 c 0xe8
 155 95 215 374 221 511 c 0
 225 591 238 720 250 776 c 0
 255 798 262 832 303 851 c 0
 309 854 314 855 318 855 c 0
 335 855 341 841 341 814 c 0
 341 761 318 662 311 536 c 0
 308 490 305 429 301 398 c 2
 297 370 l 1
 372 428 l 2
 449 487 491 513 540 526 c 0
 590 539 608 542 624 542 c 0xd8
560 207 m 0
 606 254 645 339 645 398 c 0
 645 427 635 452 602 452 c 0
 589 452 574 451 551 447 c 0
 531 444 444 393 361 319 c 0
 310 274 264 176 264 110 c 0
 264 67 285 58 295 58 c 0
 317 58 437 78 560 207 c 0
EndSplineSet
Validated: 1
EndChar

StartChar: c
Encoding: 99 99 78
Width: 621
Flags: W
HStem: -4 84<229.363 371.217> 464 81<345.159 527.729>
VStem: 94 83<131.419 281.611> 562 79<350.466 428.434>
LayerCount: 2
Fore
SplineSet
641 404 m 0
 641 361 611 337 591 337 c 1
 591 337 562 337 562 371 c 1
 562 371 561 398 541 428 c 0
 529 445 522 464 413 464 c 0
 360 464 342 450 294 403 c 0
 227 337 177 275 177 190 c 0
 177 148 196 134 213 117 c 0
 243 87 252 80 290 80 c 0
 343 80 417 116 507 194 c 0
 560 240 594 258 612 258 c 0
 627 258 630 247 630 237 c 0
 630 190 493 77 456 55 c 0
 389 16 333 -4 283 -4 c 0
 246 -4 213 5 177 23 c 0
 119 51 94 91 94 163 c 0
 94 202 106 274 108 283 c 0
 132 395 308 521 384 538 c 0
 405 543 433 545 459 545 c 0
 570 545 641 468 641 404 c 0
EndSplineSet
Validated: 1
EndChar

StartChar: d
Encoding: 100 100 79
Width: 767
Flags: W
HStem: -10 93<245.992 400.828> 446 95<406.302 498.767>
VStem: 106 102<115.663 252.018> 593 101<-40.8827 144.396>
DStem2: 666 410 742 298 0.223404 0.974726<0 573.078>
LayerCount: 2
Fore
SplineSet
519 412 m 0
 500 425 463 446 447 446 c 0
 431 446 274 342 242 297 c 0
 226 274 208 187 208 151 c 0
 208 143 209 137 210 133 c 0
 217 117 270 83 321 83 c 0
 368 83 423 108 514 173 c 0
 616 245 616 261 616 267 c 0
 616 303 570 377 519 412 c 0
292 -10 m 0
 236 -10 106 18 106 145 c 0
 106 163 109 182 113 203 c 0
 158 416 387 541 475 541 c 0
 515 541 620 482 648 436 c 0
 655 424 661 415 666 410 c 1
 695 496 773 901 800 944 c 0
 809 959 828 983 859 983 c 2
 899 983 l 1
 742 298 l 1
 687 37 708 67 694 3 c 0
 690 -14 672 -62 632 -62 c 0
 601 -62 593 -35 593 0 c 0
 593 46 607 106 607 141 c 2
 607 146 l 1
 585 130 449 -10 292 -10 c 0
EndSplineSet
Validated: 1
EndChar

StartChar: e
Encoding: 101 101 80
Width: 669
Flags: W
HStem: -10 81<261.002 416.848> 269 69<221.189 442.068> 476 73<345.45 511.449>
VStem: 102 83<146.42 265.04> 563 81<380.997 426.919>
LayerCount: 2
Fore
SplineSet
563 400 m 0
 563 409 540 428 528 440 c 0
 494 471 485 476 451 476 c 0
 386 476 362 470 320 436 c 0
 268 394 226 359 221 339 c 1
 225 338 231 338 238 338 c 0
 284 338 398 350 514 372 c 0
 553 379 563 394 563 400 c 0
658 241 m 0
 667 241 673 235 673 226 c 0
 673 198 610 126 556 86 c 0
 472 25 382 -10 305 -10 c 0
 203 -10 102 61 102 204 c 0
 102 241 109 301 137 352 c 0
 178 425 317 549 413 549 c 0
 427 549 442 548 465 546 c 0
 537 541 552 535 585 510 c 0
 616 486 644 437 644 398 c 0
 644 326 562 308 487 294 c 0
 430 283 338 272 282 269 c 2
 194 265 l 1
 189 239 l 2
 187 228 185 218 185 209 c 0
 185 174 201 146 232 115 c 0
 262 84 296 71 331 71 c 0
 461 71 610 241 658 241 c 0
EndSplineSet
Validated: 1
EndChar

StartChar: f
Encoding: 102 102 81
Width: 702
Flags: W
HStem: 409 91<191.817 297> 463 81<501.667 609.142> 928 71<577.68 715.042>
VStem: 289 88<32.4599 237.542> 750 82<836.536 899.016>
LayerCount: 2
Fore
SplineSet
330 -3 m 0x78
 305 -3 289 10 289 70 c 0
 289 178 344 376 346 428 c 1
 309 426 253 409 212 409 c 0
 172 409 161 426 161 441 c 0
 161 477 219 491 263 500 c 2xb8
 365 521 l 1
 384 598 l 2
 395 646 421 738 442 804 c 0
 480 921 486 930 528 963 c 1
 568 992 583 999 623 999 c 0
 644 999 669 997 706 994 c 0
 770 988 784 979 809 948 c 0
 824 929 832 910 832 891 c 0
 832 848 785 801 761 801 c 0
 752 801 745 808 745 825 c 0
 745 841 750 853 750 865 c 0
 750 887 736 901 682 919 c 0
 661 925 644 928 631 928 c 0
 606 928 584 919 559 885 c 0
 533 851 462 582 462 542 c 0
 462 530 467 530 476 530 c 0
 501 530 559 544 602 544 c 0
 642 544 651 531 651 520 c 0
 651 497 613 482 532 463 c 2
 441 442 l 1
 408 300 l 2
 404 282 377 195 377 125 c 0
 377 91 385 81 385 61 c 0
 385 7 348 -3 330 -3 c 0x78
EndSplineSet
Validated: 1
EndChar

StartChar: g
Encoding: 103 103 82
Width: 756
Flags: W
HStem: -248 85<456.803 556.108> 49 62<235.216 365.766> 518 78<487.652 673.715>
VStem: 119 91<136.717 290.202> 210 116<-99.9546 -48.2394> 674 105<440.129 513.402>
DStem2: 588 134 672 17 0.139053 0.990285<-260.277 73.5423>
LayerCount: 2
Fore
SplineSet
214 252 m 0xf4
 211 239 210 226 210 213 c 0
 210 160 233 111 281 111 c 0
 359 111 484 187 570 298 c 0
 617 360 674 467 674 509 c 1
 663 515 641 518 607 518 c 0
 579 518 549 515 525 509 c 0
 394 475 228 320 214 252 c 0xf4
360 3 m 0
 360 -24 326 -44 326 -70 c 0xec
 326 -98 381 -123 407 -123 c 0
 448 -123 468 -163 515 -163 c 0
 544 -163 555 -151 559 -133 c 0
 596 40 580 67 588 134 c 2
 588 134 595 181 597 207 c 1
 550 158 437 86 377 66 c 0
 346 56 298 49 266 49 c 0
 220 49 200 54 162 92 c 0
 129 125 119 148 119 192 c 0xf4
 119 206 119 228 126 262 c 0
 139 324 244 440 268 463 c 0
 310 504 426 562 491 580 c 0
 528 591 570 596 611 596 c 0
 698 596 779 573 779 504 c 0
 779 443 731 400 717 337 c 0
 708 296 700 215 672 17 c 2
 643 -190 l 1
 596 -222 l 2
 569 -241 551 -248 525 -248 c 0
 405 -248 210 -154 210 -96 c 0xec
 210 -57 291 24 327 24 c 0
 342 24 360 21 360 3 c 0
EndSplineSet
Validated: 1
EndChar

StartChar: h
Encoding: 104 104 83
Width: 590
Flags: W
HStem: 517 20G<494 544>
VStem: 515 92<306.118 474.923>
LayerCount: 2
Fore
SplineSet
138 -23 m 0
 133 -23 105 -18 105 24 c 0
 105 42 109 66 115 95 c 0
 161 309 194 754 234 800 c 1
 250 820 264 828 275 828 c 0
 293 828 301 818 301 784 c 0
 301 732 282 625 252 413 c 2
 242 344 l 1
 294 410 471 537 517 537 c 0
 571 537 607 475 607 441 c 0
 607 413 585 298 566 209 c 1
 562 188 l 1
 550 133 517 -7 481 -7 c 0
 467 -7 461 3 461 26 c 0
 461 85 515 309 515 423 c 0
 515 432 515 439 514 445 c 2
 509 476 l 1
 453 436 l 2
 371 378 291 296 263 242 c 0
 225 169 190 -23 138 -23 c 0
EndSplineSet
Validated: 1
EndChar

StartChar: i
Encoding: 105 105 84
Width: 303
Flags: W
HStem: 737 110<291.875 362.126>
VStem: 277 105<756.998 831.322>
LayerCount: 2
Fore
SplineSet
276 582 m 0
 302 582 303 562 303 539 c 0
 303 432 237 53 215 24 c 1
 202 15 190 8 169 8 c 0
 136 8 130 26 130 30 c 0
 130 63 185 413 203 495 c 0
 213 542 222 559 240 570 c 0
 255 579 267 582 276 582 c 0
277 789 m 0
 277 827 317 847 333 847 c 0
 344 847 382 834 382 806 c 0
 382 785 359 737 324 737 c 0
 301 737 277 757 277 789 c 0
EndSplineSet
Validated: 1
EndChar

StartChar: j
Encoding: 106 106 85
Width: 518
Flags: W
HStem: -243 88<129.803 286.804> 544 20G<410 445> 722 104<407.454 483.836>
VStem: 37 97<-140.972 -69.9265> 371 94<242.944 554.504> 389 109<734.96 807.163>
LayerCount: 2
Fore
SplineSet
271 -152 m 1xf8
 307 -152 371 163 371 249 c 0
 371 260 366 293 366 360 c 0
 366 431 372 492 379 524 c 0
 385 551 391 564 429 564 c 0
 461 564 465 556 465 499 c 0
 465 213 446 133 414 4 c 0
 361 -210 338 -243 185 -243 c 0
 28 -243 69 -196 53 -190 c 0
 44 -187 37 -182 37 -163 c 0
 37 -120 67 -15 111 -15 c 0
 129 -15 134 -40 134 -67 c 0
 134 -102 126 -141 126 -141 c 1
 135 -148 193 -155 235 -155 c 0
 250 -155 263 -154 271 -152 c 1xf8
389 768 m 0xf4
 389 803 432 826 458 826 c 0
 467 826 498 817 498 785 c 0
 498 755 477 722 442 722 c 0
 415 722 389 743 389 768 c 0xf4
EndSplineSet
Validated: 1
EndChar

StartChar: k
Encoding: 107 107 86
Width: 571
Flags: W
HStem: 534 20G<535.5 556.5>
VStem: 111 98<2.43677 148.403> 170 83<354.988 587.196>
LayerCount: 2
Fore
SplineSet
524 66 m 0xa0
 524 56 514 28 483 28 c 1
 440 31 412 75 395 75 c 0
 371 75 371 91 371 91 c 2
 362 98 323 113 251 137 c 2
 216 149 l 1
 209 89 l 2
 205 52 204 -14 153 -14 c 0
 123 -14 111 0 111 42 c 0xc0
 111 119 168 373 170 461 c 0xa0
 171 528 193 667 209 741 c 0xc0
 213 762 223 793 256 793 c 0
 270 793 290 787 290 749 c 0
 290 686 257 466 254 383 c 2
 253 351 l 1
 381 446 l 2
 461 505 523 554 548 554 c 1
 565 551 577 536 577 520 c 0
 577 489 551 492 503 441 c 0
 471 406 399 353 291 289 c 0
 260 271 246 258 243 250 c 0
 243 248 243 243 253 238 c 2
 363 190 l 2
 373 185 524 117 524 66 c 0xa0
EndSplineSet
Validated: 1
EndChar

StartChar: l
Encoding: 108 108 87
Width: 325
Flags: W
HStem: 959 20G<336 355.5>
VStem: 161 213
LayerCount: 2
Fore
SplineSet
269 807 m 0
 302 960 323 979 349 979 c 0
 362 979 374 970 374 958 c 0
 374 905 243 27 242 23 c 0
 238 2 225 -12 196 -12 c 0
 172 -12 161 -5 161 36 c 0
 161 104 192 267 240 644 c 0
 244 672 255 740 269 807 c 0
EndSplineSet
Validated: 1
EndChar

StartChar: m
Encoding: 109 109 88
Width: 922
Flags: W
HStem: 465 85<439.993 499.5> 487 63<775.124 849> 541 20G<265 301>
VStem: 476 70<-11.2441 94.8457> 515 71<323 420.256> 747 110<5 53> 818 77<302.184 486.33>
LayerCount: 2
Fore
SplineSet
476 9 m 0x52
 476 56 515 220 515 321 c 0
 515 372 505 402 486 435 c 0
 482 442 469 465 463 465 c 1x88
 446 461 388 375 347 315 c 0
 331 292 316 256 312 238 c 0
 297 168 296 238 252 60 c 0
 235 -10 227 -74 184 -74 c 0
 168 -74 160 -64 160 -36 c 0
 160 -1 172 63 195 169 c 0
 247 412 238 561 292 561 c 0x28
 310 561 314 531 314 495 c 0
 314 463 311 426 311 400 c 1
 337 443 325 415 375 481 c 0
 421 541 432 550 482 550 c 0x88
 517 550 536 531 558 502 c 0
 580 473 586 454 586 408 c 0
 586 395 585 379 584 360 c 2
 583 323 l 1
 641 433 748 550 825 550 c 0
 873 550 894 498 895 444 c 0x4a
 895 416 878 316 857 218 c 0
 812 5 800 -13 766 -13 c 0
 755 -13 747 -6 747 8 c 0x44
 747 53 818 337 818 445 c 0
 818 471 814 487 804 487 c 0
 774 487 618 300 546 34 c 0
 538 5 527 -21 500 -21 c 0
 483 -21 476 -12 476 9 c 0x52
EndSplineSet
Validated: 1
EndChar

StartChar: n
Encoding: 110 110 89
Width: 671
Flags: W
HStem: 468 98<528.34 615.5>
VStem: 173 89<0.501324 121.266> 513 94<28.1132 113.113> 584 81<290.608 467.044>
LayerCount: 2
Fore
SplineSet
589 566 m 0xd0
 642 566 665 491 665 446 c 0xd0
 665 378 613 132 607 105 c 0
 589 21 576 -8 537 -8 c 0
 520 -8 513 -3 513 13 c 0xe0
 513 47 584 280 584 418 c 0
 584 458 562 468 561 468 c 0
 540 468 435 360 369 264 c 0
 307 173 289 146 262 64 c 0
 235 -17 226 -45 209 -45 c 0
 201 -45 173 -34 173 12 c 0
 173 62 196 160 218 377 c 0
 229 487 233 575 281 575 c 0
 298 575 305 567 305 534 c 0
 305 503 299 450 290 360 c 2
 279 246 l 1
 297 279 l 2
 342 362 356 383 430 459 c 0
 490 521 545 566 589 566 c 0xd0
EndSplineSet
Validated: 1
EndChar

StartChar: o
Encoding: 111 111 90
Width: 703
Flags: W
HStem: -19 83<264.246 429.077> 475 94<423.871 630.117>
VStem: 97 105<121.049 278.764> 650 85<344.371 454.953>
LayerCount: 2
Fore
SplineSet
573 569 m 0
 706 569 735 520 735 447 c 0
 735 312 615 91 476 22 c 0
 421 -5 364 -19 310 -19 c 0
 238 -19 172 5 139 53 c 0
 108 97 97 127 97 165 c 0
 97 186 100 208 106 237 c 0
 124 323 170 389 255 451 c 0
 391 549 456 569 573 569 c 0
650 425 m 0
 650 451 604 475 567 475 c 0
 552 475 531 470 473 465 c 0
 427 461 405 451 356 416 c 0
 263 349 202 282 202 193 c 0
 202 116 260 64 354 64 c 0
 462 64 609 226 647 406 c 0
 649 414 650 420 650 425 c 0
EndSplineSet
Validated: 1
EndChar

StartChar: p
Encoding: 112 112 91
Width: 707
Flags: W
HStem: -247 21G<203.5 243> 37 100<281.001 340.076> 37 75<305.726 411.993> 483 98<393.934 624.572>
VStem: 161 114<-229.372 40.1919> 200 81<154.722 354.912> 637 102<378.169 477.228>
LayerCount: 2
Fore
SplineSet
161 -113 m 0xda
 161 73 200 301 200 362 c 0xd6
 200 385 195 388 189 388 c 0
 155 388 148 402 148 413 c 0
 148 450 216 472 222 499 c 0
 225 513 250 581 297 581 c 0
 332 581 326 550 341 550 c 0
 374 550 455 581 549 581 c 0
 583 581 614 577 648 570 c 0
 709 556 739 520 739 468 c 0
 739 419 712 342 627 221 c 0
 544 104 437 37 334 37 c 0
 327 37 314 37 301 39 c 2
 272 43 l 1
 273 9 l 2
 273 0 275 -29 275 -85 c 0
 275 -186 274 -247 212 -247 c 0
 195 -247 179 -240 173 -230 c 0
 166 -217 161 -178 161 -113 c 0xda
354 112 m 0xb6
 441 112 637 322 637 427 c 0
 637 458 623 475 620 477 c 1
 620 477 610 483 563 483 c 0
 509 483 433 474 385 461 c 2
 318 442 l 1
 308 387 l 2
 296 316 281 204 281 158 c 0
 281 145 282 137 285 137 c 0xd6
 322 137 330 112 354 112 c 0xb6
EndSplineSet
Validated: 1
EndChar

StartChar: q
Encoding: 113 113 92
Width: 714
Flags: W
HStem: -248 21G<419.5 463> 52 64<171.36 246.573> 497 77<406.695 514.86>
VStem: 84 83<117.679 278.967> 367 91<-152.111 77.5128> 515 78<446.701 538> 538 80<-70.9795 68.0828>
LayerCount: 2
Fore
SplineSet
522 -77 m 1xfa
 523 -72 538 34 538 35 c 0
 538 45 514 81 490 81 c 0
 474 81 470 65 468 55 c 0
 461 22 458 -11 458 -42 c 0
 458 -93 466 -136 472 -153 c 1
 485 -135 502 -100 522 -77 c 1xfa
506 497 m 0
 396 497 167 387 167 171 c 0
 167 141 174 116 197 116 c 0
 239 116 373 230 408 274 c 1
 448 329 484 438 506 467 c 0
 512 474 515 481 515 487 c 0xfc
 515 493 512 497 506 497 c 0
721 274 m 0
 721 245 557 129 556 129 c 1
 563 125 570 119 576 112 c 0
 606 74 618 61 618 35 c 0xfa
 618 9 606 -25 601 -50 c 0
 587 -114 582 -113 558 -156 c 0
 512 -237 482 -248 444 -248 c 0
 395 -248 367 -245 367 -120 c 0
 367 -83 369 -36 374 25 c 2
 385 153 l 1
 329 116 l 2
 263 73 220 52 178 52 c 0
 105 52 84 107 84 165 c 0
 84 364 288 574 508 574 c 0
 543 574 593 562 593 514 c 0
 593 453 515 295 487 195 c 0
 484 182 485 176 485 172 c 1
 521 190 641 291 700 291 c 0
 713 291 721 284 721 274 c 0
EndSplineSet
Validated: 1
EndChar

StartChar: r
Encoding: 114 114 93
Width: 578
Flags: W
HStem: 412 76<506.966 594.75> 521 20G<257.5 268>
VStem: 131 138<72.9696 163.5>
LayerCount: 2
Fore
SplineSet
285 514 m 0
 285 507 269 431 269 313 c 2
 269 293 l 1
 277 301 288 313 300 327 c 0
 367 409 492 488 557 488 c 0
 595 488 604 463 604 452 c 0
 604 436 587 424 551 412 c 0
 465 382 316 238 272 130 c 0
 222 6 201 -38 166 -38 c 0
 138 -38 131 -19 131 5 c 0
 131 19 157 266 195 448 c 0
 203 484 210 512 237 532 c 0
 245 538 254 541 261 541 c 0
 275 541 285 531 285 514 c 0
EndSplineSet
Validated: 1
EndChar

StartChar: s
Encoding: 115 115 94
Width: 544
Flags: W
HStem: -56 72<210.671 334.072> 464 72<360.128 497.016>
VStem: 96 79<47.3664 100.088> 140 86<315.331 372.299> 410 74<91.7549 168.602>
LayerCount: 2
Fore
SplineSet
96 50 m 0xe8
 96 87 121 109 138 109 c 0
 152 109 167 98 175 74 c 0xe8
 184 47 236 16 279 16 c 0
 341 16 410 113 410 132 c 0
 410 141 405 168 367 180 c 0
 303 200 281 216 244 225 c 0
 222 230 140 275 140 331 c 0
 140 381 250 501 378 527 c 0
 383 528 480 536 480 536 c 1
 514 536 526 532 548 499 c 0
 563 477 570 458 570 446 c 0
 570 434 561 417 539 417 c 0
 491 417 511 464 449 464 c 0
 352 464 226 367 226 344 c 0xd8
 226 329 254 301 327 278 c 0
 436 243 484 216 484 160 c 0
 484 130 465 76 446 48 c 0
 424 14 349 -56 285 -56 c 0
 247 -56 168 -44 134 -27 c 0
 112 -15 96 19 96 50 c 0xe8
EndSplineSet
Validated: 1
EndChar

StartChar: t
Encoding: 116 116 95
Width: 597
Flags: W
HStem: 526 21G<190.5 221.5>
VStem: 311 106<-20.1643 193.941> 420 95<695.148 922.781>
DStem2: 318 93 455 420 0.128371 0.991726<81.5875 456.005>
LayerCount: 2
Fore
SplineSet
362 -30 m 0
 330 -30 311 -22 311 31 c 0
 311 58 316 86 318 93 c 0
 335 172 332 226 356 439 c 0
 364 511 368 533 368 547 c 1
 304 543 241 526 202 526 c 0
 179 526 165 532 165 550 c 0
 165 622 327 615 379 639 c 1
 386 645 393 670 396 682 c 0
 412 757 401 790 420 881 c 0
 430 928 467 944 488 944 c 0
 509 944 515 932 515 920 c 0
 515 879 493 707 491 662 c 1
 524 665 576 678 617 678 c 0
 661 678 673 661 673 648 c 0
 673 608 595 590 538 581 c 2
 480 572 l 1
 455 420 l 2
 415 176 430 77 417 14 c 0
 410 -19 385 -30 362 -30 c 0
EndSplineSet
Validated: 1
EndChar

StartChar: u
Encoding: 117 117 96
Width: 658
Flags: W
HStem: -40 80<205.272 272.367> 519 20G<216.5 240 643.5 668.5>
VStem: 116 88<41.4442 284.681> 501 104<1.37613 164.426>
LayerCount: 2
Fore
SplineSet
605 29 m 0
 605 -24 568 -30 555 -30 c 0
 497 -30 518 128 501 169 c 1
 494 162 479 145 462 127 c 0
 386 41 277 -40 212 -40 c 0
 140 -40 116 -15 116 73 c 0
 116 145 130 258 153 364 c 0
 179 486 201 539 232 539 c 0
 248 539 268 528 268 497 c 0
 268 469 257 459 244 396 c 0
 242 385 204 183 204 89 c 0
 204 53 207 40 222 40 c 0
 231 40 252 47 295 76 c 0
 387 137 505 289 564 425 c 0
 610 531 629 550 658 550 c 0
 679 550 689 538 689 521 c 0
 689 489 626 351 606 257 c 0
 599 227 597 196 597 167 c 0
 597 112 605 62 605 29 c 0
EndSplineSet
Validated: 1
EndChar

StartChar: v
Encoding: 118 118 97
Width: 642
Flags: W
HStem: 527 20G<210 226 654.5 678>
VStem: 595 106<466.128 519.428>
LayerCount: 2
Fore
SplineSet
195 498 m 0
 195 526 198 547 222 547 c 0
 230 547 234 546 235 546 c 0
 306 529 312 146 330 58 c 1
 360 89 426 177 467 250 c 0
 533 368 589 444 595 474 c 0
 602 507 636 556 673 556 c 0
 683 556 701 553 701 529 c 0
 701 496 667 433 493 145 c 0
 433 46 343 -40 304 -40 c 0
 229 -40 231 125 211 310 c 0
 205 373 195 452 195 498 c 0
EndSplineSet
Validated: 1
EndChar

StartChar: w
Encoding: 119 119 98
Width: 748
Flags: W
HStem: 11 322<425 549> 533 20G<190 210.5 778.5 792>
VStem: 160 76<147.367 476.498> 164 79<388.133 496.158>
LayerCount: 2
Fore
SplineSet
154 497 m 0xd0
 154 518 178 553 202 553 c 0
 219 553 243 535 243 478 c 0xd0
 243 446 236 411 236 387 c 0
 236 379 237 372 239 367 c 0
 250 337 248 177 254 110 c 1
 338 250 372 333 425 333 c 0
 463 333 527 247 540 203 c 0
 546 180 559 156 567 144 c 1
 611 221 711 496 756 539 c 0
 765 547 774 551 783 551 c 0
 801 551 817 537 817 519 c 0
 817 499 788 473 727 317 c 0
 681 199 599 36 579 20 c 0
 572 14 559 11 549 11 c 0
 515 11 504 38 448 196 c 0
 442 211 426 230 418 238 c 1
 403 222 376 169 282 28 c 0
 274 16 247 -27 214 -27 c 0
 201 -27 192 -20 187 -13 c 0
 162 27 171 249 163 335 c 0
 161 356 160 377 160 395 c 0xe0
 160 426 164 422 164 440 c 0
 164 463 154 479 154 497 c 0xd0
EndSplineSet
Validated: 1
EndChar

StartChar: x
Encoding: 120 120 99
Width: 635
Flags: W
HStem: 506 20G<208 230>
VStem: 164 91<454.783 506.171>
DStem2: 325 240 385 178 0.68858 0.725161<-246.245 -1.48588 98.2908 107.115 152.447 346.524>
LayerCount: 2
Fore
SplineSet
164 462 m 0
 164 485 193 526 223 526 c 0
 237 526 249 516 255 491 c 0
 260 470 364 334 396 306 c 1
 406 316 426 336 454 368 c 2
 553 482 l 2
 565 495 590 524 613 524 c 0
 630 524 647 506 647 488 c 0
 647 458 593 430 573 392 c 0
 556 358 473 278 456 255 c 1
 474 227 596 115 599 87 c 0
 599 84 600 81 600 78 c 0
 600 47 577 32 557 32 c 0
 534 32 515 49 506 62 c 0
 478 99 407 163 385 178 c 1
 334 140 221 -5 172 -5 c 0
 166 -5 136 1 136 22 c 0
 136 41 162 70 233 145 c 1
 325 240 l 1
 293 278 l 2
 247 333 164 412 164 462 c 0
EndSplineSet
Validated: 1
EndChar

StartChar: y
Encoding: 121 121 100
Width: 578
Flags: W
HStem: 49 86<156 246.731> 515 20G<499 543>
VStem: 110 89<135.099 271.229> 195 87<-137.689 -52.8916>
LayerCount: 2
Fore
SplineSet
187 49 m 0xd0
 125 49 110 112 110 143 c 0
 110 168 116 203 131 271 c 0
 161 410 181 504 230 504 c 0
 251 504 257 492 257 474 c 0
 257 428 199 240 199 163 c 0xe0
 199 141 204 135 209 135 c 0
 225 135 318 203 360 262 c 0
 453 394 464 535 534 535 c 0
 552 535 568 522 568 502 c 0
 568 451 476 354 453 156 c 1
 454 145 l 1
 474 153 l 2
 478 155 502 165 520 165 c 0
 541 165 554 155 554 141 c 0
 554 123 533 98 492 79 c 1
 454 63 l 1
 438 -37 l 1
 390 -231 388 -249 341 -249 c 0
 321 -249 299 -242 270 -230 c 0
 236 -215 221 -201 208 -162 c 0
 199 -133 195 -109 195 -89 c 0
 195 -23 223 -16 262 29 c 0
 288 59 316 60 333 72 c 0
 339 76 348 81 363 89 c 1
 364 92 366 109 366 125 c 0
 366 132 365 139 364 144 c 1
 337 125 262 49 187 49 c 0xd0
328 -159 m 1
 347 -130 348 -60 348 -31 c 2
 348 -22 l 2
 348 -18 348 -14 351 5 c 1
 340 -7 l 2
 302 -48 282 -87 282 -99 c 0xd0
 282 -119 317 -154 328 -159 c 1
EndSplineSet
Validated: 1
EndChar

StartChar: z
Encoding: 122 122 101
Width: 605
Flags: W
HStem: 234 68<510 560.215> 455 77<376.381 506.435>
VStem: 507 81<397.014 455>
LayerCount: 2
Fore
SplineSet
225 241 m 0
 225 260 249 288 343 288 c 0
 394 288 399 290 415 306 c 0
 473 362 507 430 507 454 c 1
 503 455 498 455 492 455 c 0
 427 455 249 410 221 386 c 1
 208 373 191 368 176 368 c 0
 155 368 136 378 136 394 c 0
 136 403 141 410 148 417 c 0
 193 466 428 525 447 529 c 0
 458 531 472 532 484 532 c 0
 518 532 566 523 581 503 c 0
 587 495 588 486 588 476 c 0
 588 447 574 393 531 333 c 2
 510 304 l 1
 528 302 l 2
 564 298 581 290 581 279 c 0
 581 257 527 239 485 234 c 0
 448 230 434 225 392 194 c 0
 356 167 301 111 281 83 c 1
 323 90 445 114 520 114 c 0
 556 114 585 109 585 88 c 0
 585 51 516 41 462 32 c 0
 292 3 228 -5 197 -5 c 0
 163 -5 155 6 155 17 c 0
 155 48 259 173 286 196 c 0
 291 200 300 208 309 216 c 1
 281 219 225 215 225 241 c 0
EndSplineSet
Validated: 1
EndChar

StartChar: braceleft
Encoding: 123 123 102
Width: 315
Flags: W
HStem: -53 58<164.818 217.974> 579 58<289.187 327.781>
VStem: 109 55<5.03265 138.125>
LayerCount: 2
Fore
SplineSet
329 610 m 0
 329 592 317 579 300 579 c 0
 296 579 293 580 289 582 c 1
 265 546 273 501 251 402 c 0
 228 294 212 292 208 276 c 1
 201 185 166 62 164 17 c 1
 167 10 178 5 187 5 c 0
 198 5 201 12 214 12 c 0
 225 12 231 5 231 -4 c 0
 231 -9 229 -53 175 -53 c 0
 133 -53 109 -21 109 1 c 0
 109 19 119 81 128 128 c 2
 149 236 l 1
 131 239 123 247 123 257 c 0
 123 259 124 261 124 263 c 0
 133 304 166 265 195 402 c 0
 223 536 208 540 240 599 c 2
 264 643 l 1
 295 637 l 2
 309 635 329 631 329 610 c 0
EndSplineSet
Validated: 1
EndChar

StartChar: bar
Encoding: 124 124 103
Width: 364
Flags: W
VStem: 138 235
LayerCount: 2
Fore
SplineSet
360 745 m 2
 362 745 373 732 373 731 c 0
 369 700 290 316 254 145 c 2
 230 33 l 2
 206 -81 197 -107 170 -121 c 0
 166 -123 161 -125 157 -125 c 0
 146 -125 138 -117 138 -108 c 0
 138 -67 263 562 267 579 c 0
 268 582 298 708 319 730 c 0
 331 743 360 745 360 745 c 2
EndSplineSet
Validated: 1
EndChar

StartChar: braceright
Encoding: 125 125 104
Width: 337
Flags: W
HStem: -63 66<105.781 147.907>
VStem: 202 63<374.646 493.024> 257 66<549.777 666.176>
LayerCount: 2
Fore
SplineSet
272 378 m 1xc0
 287 362 334 377 334 348 c 0
 334 305 292 347 252 159 c 0
 228 42 233 40 208 -8 c 0
 190 -42 174 -63 139 -63 c 0
 116 -63 100 -58 100 -40 c 0
 100 -23 114 3 134 3 c 1
 145 0 146 -3 148 -5 c 1
 174 41 207 256 236 303 c 2
 244 316 l 1
 211 334 202 359 202 386 c 0xc0
 202 445 257 592 257 621 c 0
 257 642 243 642 243 656 c 0
 243 667 250 686 275 686 c 0
 287 686 323 675 323 636 c 0xa0
 323 594 265 459 265 400 c 0
 265 391 267 383 271 378 c 1
 272 378 l 1xc0
EndSplineSet
Validated: 1
EndChar

StartChar: asciitilde
Encoding: 126 126 105
Width: 613
Flags: W
HStem: 689 61<339.498 431.297>
VStem: 236 445<635 749>
LayerCount: 2
Fore
SplineSet
236 635 m 0
 236 670 338 750 395 750 c 0
 458 750 505 696 532 681 c 2
 545 674 l 1
 569 693 l 2
 620 733 623 767 656 767 c 1
 669 766 681 764 681 749 c 0
 681 708 588 615 534 615 c 0
 483 615 422 689 380 689 c 1
 355 687 343 664 322 661 c 1
 312 654 282 615 256 615 c 1
 256 615 236 617 236 635 c 0
EndSplineSet
Validated: 1
EndChar

StartChar: uni0E01
Encoding: 3585 3585 107
Width: 662
Flags: W
HStem: 1 22<536 554> 482 74<419.595 561.885>
VStem: 172 102<29.6888 86.1782> 217 87<152.683 358> 586 84<254.731 457.618>
LayerCount: 2
Fore
SplineSet
670 414 m 0xd8
 670 348 624 113 623 106 c 0
 612 55 595 1 554 1 c 0
 542 1 535 10 536 23 c 1
 528 23 523 27 523 41 c 0
 523 58 529 90 543 153 c 2
 583 340 l 2
 585 349 586 360 586 371 c 0
 586 419 568 482 524 482 c 0
 445 482 303 417 298 392 c 1
 298 392 304 379 304 337 c 0xd8
 304 296 298 226 274 111 c 0
 261 50 247 -15 204 -15 c 0
 182 -15 172 0 172 21 c 0xe8
 172 63 195 72 207 126 c 1
 207 126 217 226 217 285 c 0
 217 299 216 310 215 318 c 1
 203 307 180 286 158 286 c 0
 130 286 115 300 115 315 c 0
 115 342 154 353 157 365 c 0
 169 406 384 556 501 556 c 0
 610 556 641 529 661 468 c 0
 667 450 670 436 670 414 c 0xd8
EndSplineSet
Validated: 1
EndChar

StartChar: uni0E02
Encoding: 3586 3586 108
Width: 655
Flags: W
HStem: -17 21G<437 478.5> 325 74<233 295.525> 470 78<286.977 329.255>
LayerCount: 2
Fore
SplineSet
329 447 m 0
 331 455 329 469 326 470 c 1
 293 470 245 421 233 399 c 1
 260 399 322 415 329 447 c 0
378 240 m 0
 378 303 381 361 390 375 c 1
 382 380 372 380 370 398 c 1
 344 377 286 325 210 325 c 0
 164 325 137 348 137 383 c 0
 137 421 159 440 220 484 c 0
 273 523 320 548 359 548 c 0
 497 548 461 227 482 116 c 1
 495 132 514 162 523 185 c 0
 549 254 591 513 623 552 c 0
 634 565 653 572 668 572 c 0
 687 572 695 565 695 544 c 0
 695 511 648 291 615 213 c 0
 611 204 505 -17 452 -17 c 0
 422 -17 397 15 391 42 c 0
 383 77 378 164 378 240 c 0
EndSplineSet
Validated: 1
EndChar

StartChar: uni0E03
Encoding: 3587 3587 109
Width: 670
Flags: W
HStem: 486 81<276.733 338> 508 20G<628.5 674>
VStem: 202 67<427.754 482.808>
DStem2: 543 222 578 73 0.263791 0.96458<0 289.916>
LayerCount: 2
Fore
SplineSet
298 486 m 0xa0
 286 486 269 458 269 442 c 0
 269 430 280 428 299 427 c 1
 306 430 311 450 311 463 c 0
 311 475 307 486 298 486 c 0xa0
202 449 m 0
 202 490 278 567 323 567 c 0xa0
 353 567 392 522 401 476 c 0
 402 470 404 465 405 461 c 1
 432 487 492 565 527 565 c 0
 560 565 570 532 570 479 c 0
 570 414 554 319 543 222 c 1
 548 244 553 265 567 271 c 1
 601 361 595 528 662 528 c 0x60
 686 528 693 508 693 487 c 0
 693 480 692 472 691 465 c 0
 655 336 586 92 578 73 c 1
 559 34 510 -10 490 -10 c 0
 460 -10 454 13 454 139 c 2
 454 171 l 2
 454 218 489 396 493 453 c 1
 464 426 429 373 387 373 c 1
 354 375 351 385 344 390 c 1
 337 386 321 366 293 366 c 0
 284 366 275 367 263 370 c 0
 225 378 215 392 207 419 c 0
 204 428 202 439 202 449 c 0
EndSplineSet
Validated: 1
EndChar

StartChar: uni0E04
Encoding: 3588 3588 110
Width: 612
Flags: W
HStem: 465 74<393.242 470.248>
VStem: 124 67<-27.6223 56.1056> 136 139<195 270> 350 86<279.813 332.436> 441 87<10.9645 174.261> 493 78<225.662 440.273>
LayerCount: 2
Fore
SplineSet
350 305 m 0xb0
 350 320 327 336 318 336 c 0
 305 336 283 326 280 311 c 0
 277 295 275 273 275 270 c 1
 277 269 281 268 286 268 c 0
 308 268 350 283 350 305 c 0xb0
441 31 m 0x98
 441 82 493 326 493 351 c 0
 493 406 467 465 448 465 c 0
 438 465 389 446 349 416 c 2
 330 402 l 1
 342 397 l 2
 381 381 401 388 401 360 c 1
 419 357 436 339 436 314 c 0
 436 251 351 201 273 193 c 0
 260 192 251 189 246 187 c 1
 232 153 206 12 191 -13 c 0
 182 -27 172 -29 159 -29 c 0
 132 -29 124 -16 124 11 c 0xd4
 124 42 133 73 133 115 c 0
 133 160 151 141 151 162 c 0
 151 177 136 166 136 195 c 0
 136 235 157 389 364 510 c 0
 397 529 429 539 459 539 c 0
 504 539 571 519 571 398 c 0xb4
 571 284 528 113 528 62 c 0
 528 42 519 3 481 3 c 0
 475 3 441 8 441 31 c 0x98
EndSplineSet
Validated: 1
EndChar

StartChar: uni0E05
Encoding: 3589 3589 111
Width: 670
Flags: W
HStem: 201 79<257.008 355.516> 336 54<269.705 339.647> 468 78<319.262 407.809> 507 20G<602 655>
VStem: 104 93<-25.8039 56.0882> 356 61<282.6 318.06> 420 90<246.383 339.365> 535 117<98.3833 150.813>
LayerCount: 2
Fore
SplineSet
310 280 m 0xcf
 320 280 356 283 356 292 c 0
 356 304 318 336 302 336 c 0
 288 336 257 306 257 291 c 0
 257 284 268 280 310 280 c 0xcf
107 88 m 0
 107 123 100 108 100 138 c 0
 100 170 109 222 113 241 c 0
 123 286 137 314 170 370 c 0
 228 470 252 499 306 526 c 0
 332 539 352 546 374 546 c 0xef
 486 544 500 472 506 435 c 1
 550 481 573 527 631 527 c 0xdf
 679 527 690 482 691 430 c 0
 691 384 662 240 652 192 c 0
 612 4 605 -3 570 -3 c 0
 556 -3 535 4 535 29 c 0
 535 85 594 292 605 433 c 1
 577 408 517 328 510 296 c 0
 506 277 494 229 452 229 c 0
 428 229 420 241 420 267 c 0
 420 294 429 340 429 356 c 0
 429 370 424 373 417 418 c 0
 412 455 394 468 374 468 c 0xef
 325 468 285 416 267 388 c 1
 280 389 295 390 313 390 c 0
 382 390 417 363 417 313 c 0
 417 280 403 241 387 230 c 0
 369 217 327 201 271 201 c 0
 267 201 263 201 259 201 c 2
 231 203 l 1
 197 18 l 2
 192 -8 184 -34 146 -34 c 0
 111 -34 104 -6 104 26 c 0
 104 46 107 69 107 88 c 0
EndSplineSet
Validated: 1
EndChar

StartChar: uni0E06
Encoding: 3590 3590 112
Width: 829
Flags: W
HStem: 257 315<505.5 596> 485 76<261.023 313> 548 20G<782.5 831.5>
VStem: 169 81<409.038 481.197> 367 75<106.622 185.715> 486 93<343.778 454.809> 682 95<51.2934 157.026>
LayerCount: 2
Fore
SplineSet
280 432 m 1x5e
 280 455 294 469 296 472 c 1
 295 475 286 485 277 485 c 0
 260 485 250 428 250 416 c 0
 250 412 251 409 253 409 c 1
 253 409 274 413 280 432 c 1x5e
472 196 m 1
 452 174 442 154 442 144 c 0
 442 130 451 116 460 106 c 1
 463 122 l 2
 468 144 472 172 472 191 c 2
 472 196 l 1
169 425 m 0
 169 499 285 561 306 561 c 0x5e
 320 561 347 542 368 519 c 2
 398 487 l 1
 435 523 l 2
 464 551 493 572 518 572 c 0x9e
 527 572 542 570 557 550 c 0
 571 532 579 458 579 405 c 0
 579 367 576 363 576 358 c 0
 576 336 646 356 712 272 c 1
 716 290 l 2
 756 469 743 568 822 568 c 0x3e
 841 568 851 562 851 530 c 0
 851 471 777 71 777 70 c 0
 770 36 749 26 736 26 c 0
 722 26 706 29 682 105 c 0
 664 164 617 257 575 257 c 0x9e
 569 257 569 257 568 254 c 0
 567 247 561 147 551 99 c 0
 533 13 471 1 451 1 c 0
 419 1 420 17 413 30 c 1
 410 29 406 28 403 28 c 0
 375 28 367 71 367 115 c 0
 367 220 392 239 435 279 c 0
 470 311 479 325 481 336 c 1
 481 336 486 395 486 431 c 0
 486 442 485 451 484 455 c 1
 481 453 428 394 375 394 c 0
 352 394 351 405 344 405 c 0
 325 405 323 382 314 373 c 0
 294 353 241 340 224 340 c 0
 208 340 199 351 199 367 c 0
 199 373 200 376 200 377 c 0
 200 382 169 376 169 425 c 0
EndSplineSet
Validated: 1
EndChar

StartChar: uni0E07
Encoding: 3591 3591 113
Width: 420
Flags: W
HStem: 475 85<273.87 386>
VStem: 359 84<259.03 406>
LayerCount: 2
Fore
SplineSet
129 386 m 0
 129 427 254 560 348 560 c 0
 424 560 443 510 443 433 c 0
 443 375 432 300 413 210 c 0
 373 20 362 -8 324 -8 c 0
 288 -8 278 20 224 58 c 0
 174 93 143 119 143 145 c 0
 143 162 159 188 187 188 c 0
 232 188 279 133 307 117 c 1
 321 161 359 366 359 406 c 1
 348 395 l 2
 320 368 272 332 207 332 c 0
 160 332 129 358 129 386 c 0
288 436 m 1
 296 453 327 460 340 466 c 1
 338 469 333 475 322 475 c 0
 281 475 239 429 227 407 c 1
 245 412 280 429 288 436 c 1
EndSplineSet
Validated: 1
EndChar

StartChar: uni0E08
Encoding: 3592 3592 114
Width: 451
Flags: W
HStem: 167 74<197.434 294.638> 301 68<227.445 306.746> 470 96<349.604 432>
VStem: 375 93<340.849 523.134>
LayerCount: 2
Fore
SplineSet
307 279 m 1
 302 287 278 301 264 301 c 0
 244 301 207 261 196 247 c 1
 202 244 214 241 228 241 c 0
 257 241 294 251 307 279 c 1
375 457 m 0
 375 464 375 470 365 470 c 0
 328 470 251 384 193 384 c 0
 174 384 164 393 164 405 c 0
 164 442 245 481 336 536 c 0
 350 545 384 566 412 566 c 0
 452 566 468 541 468 490 c 0
 468 452 459 401 445 335 c 0
 385 54 352 -11 309 -11 c 0
 293 -11 287 1 287 21 c 0
 287 59 308 125 308 186 c 0
 308 188 308 190 308 192 c 1
 300 186 291 185 287 185 c 0
 264 185 259 167 219 167 c 0
 155 167 106 203 106 235 c 0
 106 258 135 301 159 301 c 1
 170 340 243 369 290 369 c 0
 328 369 351 343 366 332 c 1
 370 366 375 434 375 457 c 0
EndSplineSet
Validated: 1
EndChar

StartChar: uni0E09
Encoding: 3593 3593 115
Width: 636
Flags: W
HStem: 220 74<169 226.438> 337 72<193.336 263> 481 87<457.523 516.859>
VStem: 222 91<96 201.708> 519 92<334.407 481.286>
LayerCount: 2
Fore
SplineSet
537 149 m 1
 544 167 549 185 550 190 c 1
 541 176 539 162 537 149 c 1
248 409 m 0
 278 409 334 389 334 309 c 0
 334 257 315 186 313 96 c 1
 371 143 427 191 483 240 c 1
 503 340 l 2
 515 401 519 435 519 458 c 0
 519 467 518 475 517 482 c 1
 514 481 511 481 508 481 c 0
 500 481 500 482 499 482 c 0
 473 480 373 419 349 417 c 0
 344 417 338 397 314 397 c 0
 296 397 279 408 279 426 c 0
 279 443 296 463 309 472 c 0
 347 500 422 539 438 542 c 1
 460 542 493 568 519 568 c 0
 534 568 547 560 562 553 c 0
 595 536 611 515 611 471 c 0
 611 417 582 315 582 290 c 0
 582 279 587 281 593 277 c 1
 625 263 634 238 634 213 c 0
 634 164 588 38 510 38 c 0
 505 38 484 39 484 57 c 0
 484 61 485 63 485 64 c 0
 485 71 465 71 465 94 c 0
 465 106 471 119 471 120 c 1
 428 101 314 -21 257 -21 c 0
 236 -21 222 -9 222 43 c 0
 222 109 246 209 254 254 c 1
 218 238 l 2
 190 225 164 220 143 220 c 0
 103 220 77 239 77 270 c 0
 77 328 182 409 248 409 c 0
245 310 m 1
 245 312 245 314 245 316 c 0
 245 327 234 337 230 337 c 0
 221 337 183 309 169 294 c 1
 191 294 211 312 236 312 c 0
 240 312 242 311 245 310 c 1
EndSplineSet
Validated: 1
EndChar

StartChar: uni0E0A
Encoding: 3594 3594 116
Width: 575
Flags: W
HStem: 322 78<140.75 260.345> 477 81<261.538 309.328>
VStem: 97 96<352 421.129> 434 94<323.369 446.682>
LayerCount: 2
Fore
SplineSet
294 432 m 0
 306 432 310 433 310 446 c 0
 310 458 306 474 303 477 c 1
 303 477 297 477 256 457 c 0
 206 433 197 426 193 406 c 0
 193 403 201 400 214 400 c 0
 252 400 254 432 294 432 c 0
289 -13 m 0
 260 -13 248 3 248 39 c 0
 248 76 260 133 278 216 c 2
 284 245 l 2
 290 272 302 335 303 361 c 1
 279 349 248 322 178 322 c 0
 117 322 97 339 97 365 c 0
 97 421 163 465 212 505 c 0
 246 533 301 558 331 558 c 0
 373 558 387 516 399 513 c 1
 425 519 514 611 614 663 c 0
 642 677 668 693 686 693 c 0
 699 693 707 683 707 672 c 0
 707 644 638 580 610 570 c 0
 604 568 575 548 545 521 c 2
 504 485 l 1
 516 465 l 2
 524 452 528 441 528 426 c 0
 528 354 416 15 315 -10 c 0
 310 -11 299 -13 289 -13 c 0
346 122 m 1
 384 183 434 351 434 408 c 0
 434 424 431 437 423 447 c 1
 410 445 402 424 384 338 c 0
 364 244 348 160 346 122 c 1
EndSplineSet
Validated: 1
EndChar

StartChar: uni0E0B
Encoding: 3595 3595 117
Width: 666
Flags: W
VStem: 103 73<419 482.205> 368 84<83 269.484> 538 85<250.002 369.5>
LayerCount: 2
Fore
SplineSet
452 83 m 1
 472 116 536 282 536 284 c 0
 537 288 538 294 538 300 c 0
 538 312 536 326 532 338 c 0
 521 372 516 373 502 373 c 0
 491 373 491 372 486 343 c 1
 472 278 454 129 452 83 c 1
780 591 m 0
 780 537 607 458 588 426 c 1
 591 416 607 403 607 387 c 0
 607 385 606 384 606 382 c 0
 607 377 623 368 623 339 c 0
 623 304 585 199 570 166 c 2
 531 81 l 2
 501 16 450 -30 414 -30 c 0
 382 -30 368 6 368 80 c 0
 368 147 380 246 400 379 c 2
 411 451 l 1
 377 421 l 2
 363 408 322 368 293 368 c 0
 279 368 269 377 266 403 c 1
 237 369 199 333 164 333 c 0
 116 333 103 379 103 419 c 0
 103 484 127 500 156 524 c 0
 205 565 231 572 248 572 c 0
 319 572 320 525 320 525 c 1
 321 519 324 508 329 498 c 1
 335 489 l 1
 371 524 l 2
 391 543 429 577 459 577 c 0
 494 577 500 542 500 507 c 0
 500 490 498 472 498 460 c 1
 549 498 701 617 752 617 c 0
 774 617 780 602 780 591 c 0
226 496 m 1
 197 491 185 473 178 435 c 0
 177 429 176 424 176 419 c 1
 190 437 210 480 226 496 c 1
EndSplineSet
Validated: 1
EndChar

StartChar: uni0E0C
Encoding: 3596 3596 118
Width: 817
Flags: W
HStem: 1 131<251.589 319.668> 477 83<370.29 536.961> 507 20G<829 849.5>
VStem: 164 80<118 363.628> 424 79<57 107.147> 557 89<222 457.393>
LayerCount: 2
Fore
SplineSet
674 -5 m 0xbc
 674 6 676 9 676 23 c 0
 676 60 654 111 633 125 c 2
 622 132 l 1
 602 78 l 2
 560 -35 508 -42 491 -42 c 0
 461 -42 424 -21 424 44 c 0
 424 58 426 74 430 92 c 0
 435 115 440 132 458 133 c 1
 462 148 487 171 513 191 c 2
 552 222 l 1
 555 287 l 2
 556 309 557 329 557 347 c 0
 557 450 538 477 483 477 c 0
 409 477 292 432 252 403 c 1
 247 377 244 302 244 236 c 0
 244 179 246 128 250 118 c 1
 284 127 311 132 330 132 c 0
 352 132 364 124 364 104 c 0
 364 82 352 57 334 37 c 0
 309 10 294 1 249 1 c 0
 185 1 158 -35 132 -35 c 0
 113 -35 106 -15 106 -3 c 0
 106 25 155 53 163 66 c 1
 162 75 161 91 161 107 c 0
 161 129 162 151 162 156 c 0
 163 201 164 236 164 263 c 0
 164 337 159 353 145 363 c 0
 131 373 122 385 122 396 c 0
 122 402 126 409 131 414 c 0
 159 442 317 526 372 544 c 0
 385 548 426 560 502 560 c 0xdc
 557 560 573 553 602 528 c 0
 635 499 646 466 646 394 c 0
 646 341 641 287 641 260 c 0
 641 219 650 227 703 187 c 1
 719 261 l 2
 737 341 773 475 790 503 c 0
 804 525 819 527 839 527 c 0
 860 526 874 519 874 495 c 0
 874 452 840 403 786 174 c 0
 755 44 739 -31 698 -31 c 0
 682 -31 674 -21 674 -5 c 0xbc
503 57 m 1
 511 69 521 92 527 111 c 1
 506 83 503 68 503 57 c 1
EndSplineSet
Validated: 1
EndChar

StartChar: uni0E0D
Encoding: 3597 3597 119
Width: 821
Flags: W
HStem: -257 98<564.5 638.734> -22 157<246.008 314.198> 442 84<373.318 479.225> 547 20G<785 811>
VStem: 135 119<296.203 373.181> 160 85<135.431 345.547> 490 93<-157.736 -104.796> 500 93<172.533 422.328>
LayerCount: 2
Fore
SplineSet
500 366 m 0xf9
 500 409 468 442 444 442 c 0
 407 442 262 374 254 358 c 1xf9
 250 268 245 209 245 174 c 0
 245 147 248 135 258 135 c 0
 276 135 303 154 344 154 c 0
 384 154 393 135 393 117 c 0
 393 53 304 -22 264 -22 c 0
 238 -22 192 -44 165 -44 c 0
 123 -44 104 -16 104 -0 c 0
 104 35 151 32 154 43 c 0
 155 45 160 134 160 213 c 0xf4
 160 271 157 324 147 334 c 0
 139 342 135 351 135 362 c 0
 135 389 159 413 190 429 c 0
 323 499 389 526 469 526 c 0
 561 526 593 493 593 391 c 0
 593 294 563 133 558 68 c 1
 570 74 592 87 620 104 c 0
 680 141 689 147 695 174 c 0
 719 285 720 462 729 503 c 0
 738 545 772 567 798 567 c 0
 824 567 833 550 833 518 c 0
 833 466 809 373 797 248 c 0
 783 99 748 77 651 23 c 0
 604 -4 552 -33 520 -33 c 0
 483 -33 471 0 471 63 c 0
 471 155 500 327 500 366 c 0xf9
628 -76 m 0
 628 -101 583 -102 583 -141 c 0
 583 -156 594 -159 597 -159 c 0
 629 -159 701 -72 738 -72 c 0
 752 -72 758 -84 758 -95 c 0
 758 -120 716 -163 700 -191 c 0
 682 -222 612 -257 581 -257 c 0
 548 -257 490 -202 490 -146 c 0xf2
 490 -92 545 -33 577 -33 c 0
 598 -33 628 -60 628 -76 c 0
EndSplineSet
Validated: 1
Substitution2: "'ccmp' Pali-Sanskrit Descender Removal" uni0E0D.descless
Substitution2: "Thai Descender Removal Single Substitution" uni0E0D.descless
EndChar

StartChar: uni0E0E
Encoding: 3598 3598 120
Width: 598
Flags: W
HStem: -222 81<180.83 287.339> -84 76<198.895 305.536> 125 63<157.17 219.402> 531 20G<508.5 563>
VStem: 62 75<37.8771 96.4508> 93 87<-140.571 -104.365> 315 79<233.567 295.301> 512 90<236.733 466.507>
AnchorPoint: "BelowBase" 363 -251 basechar 0
LayerCount: 2
Fore
SplineSet
143 36 m 1xfb
 143 36 220 47 220 93 c 0
 220 105 217 122 213 125 c 1
 206 125 184 115 176 112 c 0
 151 102 147 101 140 68 c 0
 138 57 137 50 137 45 c 0
 137 36 140 36 143 36 c 1xfb
88 -7 m 1
 74 -7 62 3 62 40 c 0xfb
 62 102 87 83 93 115 c 0
 102 157 131 156 189 182 c 0
 200 187 217 188 229 188 c 0
 242 188 246 188 250 187 c 2
 272 183 l 1
 294 234 l 2
 305 258 313 280 315 291 c 1
 315 292 l 1
 281 302 190 287 190 318 c 0
 190 341 214 338 270 396 c 0
 314 441 477 551 540 551 c 0
 586 551 602 508 602 437 c 0
 602 373 589 285 572 186 c 0
 541 4 520 -138 507 -200 c 0
 502 -224 495 -259 456 -259 c 0
 393 -259 399 -150 373 -150 c 0
 361 -150 297 -222 207 -222 c 0
 173 -222 93 -208 93 -151 c 0xf7
 93 -110 135 -70 161 -47 c 0
 195 -17 209 -8 236 -8 c 0
 343 -8 349 -54 368 -58 c 1
 369 -55 373 -37 421 -6 c 2
 458 18 l 1
 478 141 l 1
 500 262 512 390 512 448 c 0
 512 456 512 463 511 468 c 1
 411 411 l 2
 376 390 354 378 340 369 c 1
 361 366 394 356 394 307 c 0
 394 224 326 138 309 98 c 1
 280 22 163 -28 114 -28 c 0
 94 -28 88 -19 88 -7 c 1
180 -135 m 1xf7
 180 -140 203 -141 218 -141 c 0
 261 -141 259 -137 308 -107 c 1
 296 -99 270 -85 245 -84 c 1
 200 -84 180 -135 180 -135 c 1xf7
EndSplineSet
Validated: 1
EndChar

StartChar: uni0E0F
Encoding: 3599 3599 121
Width: 606
Flags: W
HStem: -256 255<367 461> -54 92<65.8609 185.5> 48 89<167.5 225.083> 92 45<226.164 255.901> 210 70<218.706 284.807> 499 95<471.929 550.393>
VStem: -101 381<-180.5 -32.5> 119 82<106 189.827> 368 88<321.799 420.5> 552 89<310.864 497.805>
AnchorPoint: "BelowBase" 371 -251 basechar 0
LayerCount: 2
Fore
SplineSet
339 49 m 0x4ec0
 339 20 280 -21 280 -44 c 0
 280 -54 287 -67 289 -69 c 1
 300 -54 320 -1 367 -1 c 0
 425 -1 441 -69 454 -102 c 1
 457 -91 l 1
 457 -91 552 399 552 459 c 0
 552 478 549 499 537 499 c 0
 504 498 449 475 431 465 c 1
 438 456 456 439 456 402 c 0
 456 341 397 232 371 201 c 0
 358 186 348 167 347 162 c 1
 336 140 275 93 251 92 c 1x9ec0
 241 88 212 48 181 48 c 0
 154 48 119 82 119 130 c 0
 119 214 219 280 281 280 c 0
 308 280 314 268 322 265 c 1
 323 265 l 1
 341 309 368 370 368 377 c 0
 368 391 345 401 333 401 c 0
 326 401 327 401 326 400 c 0
 321 375 282 361 256 361 c 0
 239 361 225 365 225 381 c 0
 225 452 477 594 546 594 c 0
 588 594 641 557 641 487 c 0
 641 406 603 178 568 12 c 0
 515 -235 501 -256 461 -256 c 0xadc0
 438 -256 410 -238 409 -208 c 0
 409 -198 397 -189 389 -178 c 0
 378 -161 364 -124 356 -106 c 1
 328 -155 295 -253 256 -253 c 0
 215 -253 223 -134 206 -109 c 0
 203 -104 196 -103 191 -103 c 0
 179 -103 165 -110 159 -119 c 0
 128 -165 26 -207 -40 -207 c 0
 -70 -207 -101 -197 -101 -164 c 0
 -101 -120 37 9 84 26 c 0
 114 36 147 38 162 38 c 0
 209 37 208 30 217 24 c 1
 218 24 l 1
 219 25 l 1
 241 31 282 69 317 69 c 0
 325 69 339 63 339 49 c 0x4ec0
26 -116 m 1
 34 -116 l 2
 59 -116 96 -99 102 -90 c 1
 107 -70 125 -61 135 -56 c 1
 131 -55 127 -54 118 -54 c 0x4cc0
 99 -54 77 -55 26 -116 c 1
266 169 m 1
 266 196 277 203 285 209 c 1
 284 210 283 210 278 210 c 0
 249 210 219 192 218 188 c 0
 216 176 201 149 201 139 c 0
 201 137 202 137 205 137 c 0x2dc0
 225 137 264 161 266 169 c 1
EndSplineSet
Validated: 1
EndChar

StartChar: uni0E10
Encoding: 3600 3600 122
Width: 606
Flags: W
HStem: 169 68<267.755 358.917> 293 70<298.926 373.102> 487 80<475.412 526.46>
VStem: 294 109<-141.611 -80.1783> 409 86<350.6 415.869>
LayerCount: 2
Fore
SplineSet
267 244 m 1
 269 239 276 237 288 237 c 0
 318 237 370 250 376 266 c 1
 375 273 354 293 346 293 c 0
 331 293 274 261 267 244 c 1
680 589 m 0
 680 563 629 428 578 428 c 0
 541 428 535 486 472 487 c 1
 489 470 495 425 495 370 c 0
 495 289 481 184 464 104 c 0
 441 -5 425 -32 388 -32 c 0
 364 -32 355 -25 355 3 c 0
 355 40 375 150 375 187 c 0
 375 193 374 198 373 201 c 1
 363 199 352 169 276 169 c 0
 221 169 188 188 188 222 c 0
 188 278 288 363 360 363 c 0
 387 363 399 355 409 349 c 1
 409 380 l 2
 409 384 408 416 401 416 c 0
 381 416 337 374 313 374 c 0
 300 374 284 389 284 410 c 0
 284 461 407 567 503 567 c 0
 554 567 572 544 583 535 c 1
 597 553 620 618 652 618 c 0
 664 618 680 611 680 589 c 0
403 -95 m 1
 403 -182 348 -250 309 -250 c 0
 257 -250 236 -200 224 -188 c 1
 205 -208 179 -247 146 -247 c 0
 122 -247 108 -210 106 -206 c 2
 101 -196 l 1
 93 -205 l 2
 74 -226 42 -245 14 -245 c 0
 -18 -245 -28 -222 -28 -197 c 0
 -28 -160 -5 -103 33 -82 c 0
 43 -76 70 -73 94 -73 c 0
 162 -73 187 -28 234 -28 c 0
 249 -28 253 -37 253 -44 c 0
 253 -64 225 -82 197 -115 c 1
 213 -104 233 -92 253 -92 c 0
 267 -92 276 -100 274 -112 c 1
 275 -117 284 -131 294 -145 c 1
 294 -145 303 -47 369 -47 c 0
 395 -47 401 -55 403 -95 c 1
65 -154 m 1
 69 -152 74 -149 76 -147 c 1
 73 -147 68 -148 65 -154 c 1
EndSplineSet
Validated: 1
Substitution2: "'ccmp' Pali-Sanskrit Descender Removal" uni0E10.descless
Substitution2: "Thai Descender Removal Single Substitution" uni0E10.descless
EndChar

StartChar: uni0E11
Encoding: 3601 3601 123
Width: 772
Flags: W
HStem: 524 20G<453.5 485 715.5 739.5>
VStem: 641 99<19.1719 143.129> 708 87<281.204 485.5>
LayerCount: 2
Fore
SplineSet
267 342 m 1xa0
 262 366 l 1
 231 366 183 316 149 316 c 0
 121 316 115 351 115 379 c 0
 115 495 225 522 253 522 c 0
 281 522 302 507 319 482 c 2
 336 456 l 1
 365 483 l 2
 403 518 439 544 468 544 c 0
 502 544 514 510 514 457 c 0
 514 428 510 393 505 356 c 2
 499 316 l 1
 505 326 l 1
 626 523 698 565 733 565 c 0
 746 565 758 557 763 554 c 0
 785 540 795 509 795 462 c 0xa0
 795 371 740 93 740 93 c 1
 725 21 709 -15 680 -15 c 0
 664 -15 641 -8 641 17 c 0xc0
 641 64 708 339 708 433 c 0
 708 444 707 453 705 458 c 1
 697 453 675 431 608 335 c 0
 472 141 467 17 404 -29 c 0
 397 -34 389 -38 381 -38 c 1
 361 -35 359 -26 359 -14 c 0
 359 49 418 368 423 436 c 1
 397 413 337 324 323 309 c 0
 318 303 313 301 308 301 c 0
 284 301 267 318 267 342 c 1xa0
231 457 m 1
 221 448 206 416 199 395 c 1
 204 399 234 424 234 444 c 0
 234 448 233 453 231 457 c 1
EndSplineSet
Validated: 1
EndChar

StartChar: uni0E12
Encoding: 3602 3602 124
Width: 730
Flags: W
HStem: 542 20G<527 548>
VStem: 80 71<46.0666 135.468> 503 89<265.313 432> 695 95<448.212 493.632>
LayerCount: 2
Fore
SplineSet
176 41 m 1
 200 69 248 148 249 165 c 1
 221 158 166 141 151 135 c 1
 151 133 151 131 151 129 c 0
 151 105 164 56 176 41 c 1
256 260 m 1
 248 254 233 238 224 227 c 1
 247 230 261 239 261 249 c 0
 261 253 260 256 256 260 c 1
294 333 m 0
 300 333 302 341 302 348 c 0
 302 367 289 394 280 401 c 1
 266 389 237 348 224 324 c 1
 247 334 262 337 272 337 c 0
 284 337 290 333 294 333 c 0
592 404 m 0
 592 320 584 292 584 264 c 0
 584 238 593 264 634 200 c 2
 643 186 l 1
 695 489 l 1
 720 494 735 501 744 501 c 0
 773 501 790 476 790 446 c 0
 790 421 787 445 726 192 c 0
 673 -30 669 -44 635 -44 c 0
 567 -44 591 113 568 150 c 1
 555 110 526 -51 460 -51 c 1
 429 -46 441 -22 427 -22 c 0
 394 -21 406 27 391 47 c 0
 385 54 383 64 383 74 c 0
 383 149 487 226 497 274 c 0
 501 292 503 411 503 432 c 1
 468 392 379 264 360 243 c 0
 331 212 301 69 230 -5 c 0
 208 -27 184 -45 159 -45 c 0
 121 -45 80 9 80 107 c 0
 80 310 243 504 296 504 c 0
 353 504 368 420 378 396 c 1
 395 420 430 478 478 523 c 0
 499 543 518 562 536 562 c 0
 560 562 592 532 592 404 c 0
EndSplineSet
Validated: 1
EndChar

StartChar: uni0E13
Encoding: 3603 3603 125
Width: 779
Flags: W
HStem: 466 89<380.887 506.753>
VStem: 483 83<172.331 457.304>
LayerCount: 2
Fore
SplineSet
325 84 m 0
 325 33 266 -39 206 -39 c 0
 142 -39 115 -14 115 56 c 0
 115 93 123 144 137 210 c 1
 140 226 l 2
 146 253 157 307 157 322 c 1
 154 321 151 321 146 321 c 0
 130 321 121 331 121 347 c 0
 121 351 121 369 137 390 c 0
 177 446 392 555 465 555 c 0
 546 555 566 468 566 372 c 0
 566 282 548 185 545 143 c 1
 571 160 620 194 645 215 c 1
 683 250 699 484 746 514 c 0
 752 518 765 522 777 522 c 0
 802 522 808 508 808 491 c 0
 808 451 760 310 760 270 c 0
 760 240 780 238 780 179 c 0
 780 92 723 -7 686 -7 c 0
 661 -7 649 23 645 75 c 2
 641 118 l 1
 585 74 l 2
 542 41 505 15 482 15 c 0
 460 15 452 39 452 76 c 0
 452 151 483 278 483 363 c 0
 483 383 481 400 477 414 c 0
 464 461 459 466 443 466 c 0
 423 466 387 455 335 429 c 2
 264 392 l 1
 230 253 l 2
 217 201 205 153 199 124 c 2
 196 110 l 1
 211 116 240 134 272 134 c 0
 305 134 325 113 325 84 c 0
229 44 m 1
 222 37 215 30 213 26 c 1
 218 30 224 37 229 44 c 1
EndSplineSet
Validated: 1
EndChar

StartChar: uni0E14
Encoding: 3604 3604 126
Width: 511
Flags: W
HStem: 478 82<374.297 447.692>
VStem: 51 72<29.7211 104.099> 389 87<12.8508 103> 455 82<292.216 472.291>
LayerCount: 2
Fore
SplineSet
131 105 m 2xc0
 126 105 123 105 123 85 c 0
 123 61 132 32 140 29 c 1
 161 33 233 103 233 128 c 0
 233 130 233 131 232 132 c 1
 215 126 193 106 143 105 c 1
 131 105 l 2xc0
455 428 m 0xd0
 455 458 434 478 420 478 c 0
 358 478 221 283 220 281 c 1
 233 281 237 284 254 284 c 0
 299 284 322 257 322 214 c 0
 322 144 264 61 247 38 c 0
 213 -10 194 -24 159 -35 c 0
 143 -40 129 -43 117 -43 c 0
 91 -43 51 -25 51 69 c 0
 51 89 55 123 111 244 c 0
 154 339 303 508 372 541 c 0
 392 551 417 560 444 560 c 0
 467 560 488 553 504 537 c 0
 525 515 537 493 537 442 c 0xd0
 537 383 521 284 482 103 c 2
 476 75 l 2
 467 35 453 -16 411 -16 c 0
 396 -16 389 -7 389 21 c 0xe0
 389 94 455 370 455 428 c 0xd0
229 213 m 1
 195 213 169 192 162 182 c 1
 162 182 229 194 229 213 c 1
EndSplineSet
Validated: 1
EndChar

StartChar: uni0E15
Encoding: 3605 3605 127
Width: 549
Flags: W
HStem: -14 80<146.8 204.59> 262 67<230.606 273.999> 530 7G<267 344 534 564>
VStem: 69 77<66.1753 163.992> 453 108<78.9755 192.51> 512 91<282.991 418>
LayerCount: 2
Fore
SplineSet
204 290 m 1xf0
 225 307 230 329 293 329 c 2
 317 329 l 1
 306 380 l 2
 299 410 290 429 286 438 c 1
 265 419 213 334 204 290 c 1xf0
554 557 m 0
 574 557 603 547 603 481 c 0xf4
 603 412 584 280 561 172 c 0
 526 5 509 -2 487 -2 c 0
 462 -2 453 17 453 50 c 0xf8
 453 117 512 358 512 418 c 1xf4
 512 418 403 297 360 284 c 1
 362 280 363 274 363 267 c 0
 363 230 312 109 286 81 c 0
 237 27 189 -14 153 -14 c 0
 111 -14 82 28 81 52 c 0
 80 77 69 58 69 87 c 0
 69 105 75 136 81 164 c 0
 125 370 221 530 313 530 c 0
 375 530 370 459 395 406 c 1
 408 424 514 557 554 557 c 0
149 128 m 0
 149 115 146 104 146 94 c 0
 146 78 153 66 168 66 c 0
 192 66 262 137 279 189 c 1
 258 183 211 156 182 156 c 0
 165 156 152 167 142 169 c 1
 143 159 149 149 149 128 c 0
264 252 m 0
 272 252 274 252 274 259 c 0
 274 262 272 262 270 262 c 0
 257 262 238 256 230 246 c 1
 237 249 247 251 264 252 c 0
EndSplineSet
Validated: 1
EndChar

StartChar: uni0E16
Encoding: 3606 3606 128
Width: 538
Flags: W
HStem: -60 188<206 313> 472 82<388.213 497>
VStem: 476 83<203.469 464.424>
LayerCount: 2
Fore
SplineSet
130 339 m 0
 130 412 358 554 468 554 c 0
 526 554 559 513 559 400 c 0
 559 324 544 217 512 67 c 0
 502 22 496 -9 457 -9 c 0
 436 -9 424 6 424 31 c 0
 424 49 428 57 434 84 c 0
 451 164 476 349 476 401 c 0
 476 428 454 472 447 472 c 0
 424 472 266 400 262 382 c 0
 261 378 264 359 232 210 c 2
 205 87 l 1
 234 101 l 2
 246 107 286 128 313 128 c 0
 328 128 340 122 340 102 c 0
 340 50 274 -60 206 -60 c 0
 193 -60 165 -55 145 -43 c 0
 128 -33 116 -28 116 7 c 0
 116 51 142 173 158 227 c 2
 183 316 l 1
 167 316 l 2
 150 316 130 316 130 339 c 0
208 -11 m 1
 214 -4 224 8 230 19 c 1
 211 12 208 -6 208 -11 c 1
EndSplineSet
Validated: 1
EndChar

StartChar: uni0E17
Encoding: 3607 3607 129
Width: 617
Flags: W
HStem: 298 69<187.57 231.997> 528 20G<549.5 600>
VStem: 186 107<28.5664 126.609> 237 81<224.922 408.002> 479 67<-12.6683 70.4262> 574 85<351.184 508>
LayerCount: 2
Fore
SplineSet
173 356 m 1xdc
 185 357 210 367 232 367 c 0
 236 367 237 370 237 375 c 0
 237 388 223 404 217 409 c 1
 190 403 206 367 175 360 c 0
 175 359 173 357 173 356 c 1xdc
593 548 m 0
 607 548 659 539 659 477 c 0
 659 397 551 10 546 3 c 0
 537 -9 521 -16 507 -16 c 0
 485 -16 479 -1 479 14 c 0
 479 22 481 30 482 37 c 2
 485 50 l 1
 533 273 574 330 574 428 c 0
 574 442 573 450 572 454 c 1
 550 442 497 396 488 383 c 1
 481 358 425 300 367 204 c 0
 323 132 319 154 293 80 c 0
 285 55 259 -16 217 -16 c 0
 198 -16 186 -2 186 39 c 0xec
 186 132 232 233 232 279 c 0
 232 291 228 298 220 298 c 0
 193 298 205 268 151 268 c 0
 127 268 85 278 85 319 c 0
 85 380 184 472 244 472 c 0
 302 472 318 427 318 374 c 0
 318 321 302 259 296 223 c 1
 308 237 315 245 321 250 c 1
 328 258 342 287 344 291 c 0
 363 331 506 548 593 548 c 0
EndSplineSet
Validated: 1
EndChar

StartChar: uni0E18
Encoding: 3608 3608 130
Width: 492
Flags: W
HStem: 430 127<277.047 439.192>
VStem: 195 87<128 285.698> 348 87<279.307 429.767>
LayerCount: 2
Fore
SplineSet
471 547 m 1
 505 596 502 648 551 648 c 0
 569 648 586 640 586 623 c 0
 586 602 568 580 545 520 c 0
 534 492 512 464 502 453 c 2
 469 420 l 1
 436 451 l 2
 429 458 421 461 416 464 c 1
 425 450 435 427 435 389 c 0
 435 371 432 350 427 325 c 0
 417 279 318 -33 240 -33 c 0
 205 -33 195 21 195 86 c 0
 195 158 208 244 216 282 c 0
 224 321 237 375 280 375 c 0
 296 375 302 368 302 353 c 0
 302 324 282 266 282 169 c 0
 282 156 282 142 283 128 c 1
 337 256 348 300 348 374 c 0
 348 429 339 430 329 430 c 0
 292 430 267 394 197 394 c 0
 166 394 158 408 158 421 c 0
 158 454 210 505 274 534 c 0
 304 548 361 557 408 557 c 0
 435 557 458 554 471 547 c 1
EndSplineSet
Validated: 1
EndChar

StartChar: uni0E19
Encoding: 3609 3609 131
Width: 681
Flags: W
HStem: 485 91<252.193 295> 545 20G<636 663>
VStem: 249 98<115 214.144> 607 77<490.449 561.96>
LayerCount: 2
Fore
SplineSet
249 24 m 0x70
 249 122 298 368 298 394 c 0
 298 399 297 402 296 404 c 1
 284 402 255 367 197 367 c 0
 150 367 130 390 130 409 c 0
 130 429 175 512 233 548 c 0
 261 565 282 576 304 576 c 0xb0
 323 576 339 569 359 557 c 0
 384 542 392 531 392 507 c 0
 392 478 349 194 347 115 c 1
 370 140 416 205 483 264 c 2
 534 309 l 1
 564 417 l 2
 577 466 601 540 607 547 c 0
 612 553 623 565 649 565 c 0
 677 565 684 554 684 538 c 0
 684 510 652 407 652 379 c 0
 652 349 692 344 692 295 c 0
 692 230 643 95 609 61 c 0
 600 52 566 33 541 33 c 0
 511 33 502 54 502 82 c 0
 502 114 513 156 514 181 c 1
 465 141 329 -34 282 -34 c 0
 256 -34 249 -10 249 24 c 0x70
569 132 m 1
 580 132 582 132 586 154 c 2
 598 210 l 1
 589 183 578 152 569 132 c 1
295 484 m 1
 294 484 285 485 276 485 c 0
 267 485 256 484 252 482 c 1
 250 472 246 464 243 458 c 1
 274 466 292 477 295 484 c 1
EndSplineSet
Validated: 1
EndChar

StartChar: uni0E1A
Encoding: 3610 3610 132
Width: 624
Flags: W
HStem: -29 93<369.262 417.733> 478 81<255.921 350> 550 20G<632.5 656.5>
VStem: 273 96<64.2128 285.54> 585 93<343.424 528.729>
LayerCount: 2
Fore
SplineSet
574 499 m 0xd8
 574 531 618 570 647 570 c 0xb8
 666 570 678 553 678 505 c 0
 678 467 671 411 653 328 c 0
 629 217 600 159 537 85 c 0
 514 58 444 -29 324 -29 c 0
 293 -29 273 -6 273 89 c 0
 273 139 280 203 294 283 c 2
 313 392 l 1
 303 382 l 2
 256 334 210 330 193 330 c 0
 180 330 166 333 153 337 c 0
 141 340 120 346 120 378 c 0
 120 474 265 559 330 559 c 0
 370 559 356 538 377 537 c 0
 398 536 404 521 404 486 c 0
 404 370 369 294 369 101 c 0
 369 83 370 70 371 64 c 1
 383 64 427 84 475 127 c 0
 506 154 536 191 566 331 c 0
 581 400 585 440 585 460 c 0
 585 485 574 478 574 499 c 0xd8
213 412 m 1
 290 453 242 438 304 465 c 1
 302 470 297 478 288 478 c 0xd8
 266 478 225 435 213 412 c 1
EndSplineSet
Validated: 1
EndChar

StartChar: uni0E1B
Encoding: 3611 3611 133
Width: 594
Flags: W
HStem: -25 97<293 380.313> 395 84<210.5 292.966> 550 20G<303 318>
VStem: 242 82<73.0686 205.142> 293 93<409.071 499.387>
AnchorPoint: "AboveBase" 567 560 basechar 0
LayerCount: 2
Fore
SplineSet
269 479 m 0xe8
 289 479 293 488 293 490 c 0
 293 494 284 500 284 500 c 1
 284 500 258 491 252 483 c 1
 254 480 262 479 269 479 c 0xe8
386 489 m 0
 386 410 324 159 324 95 c 0
 324 76 329 72 340 72 c 1
 366 80 451 141 474 170 c 0
 530 238 602 691 630 821 c 1
 635 847 l 2
 643 884 654 923 689 923 c 0
 712 923 720 904 720 888 c 0
 720 860 650 521 647 506 c 0
 583 204 572 165 485 79 c 0
 420 15 362 -25 316 -25 c 0
 270 -25 242 19 242 83 c 0xf0
 242 154 302 320 302 402 c 2
 302 411 l 1
 291 407 267 395 232 395 c 1
 189 398 169 440 169 465 c 0
 169 496 201 518 244 543 c 0
 275 561 294 570 312 570 c 0
 324 570 333 567 340 563 c 0
 372 547 386 533 386 489 c 0
EndSplineSet
Validated: 1
EndChar

StartChar: uni0E1C
Encoding: 3612 3612 134
Width: 575
Flags: W
HStem: 195 93<344.402 392.741> 328 92<274.236 366.24> 460 67<284.921 398.5> 522 20G<606 621.5>
VStem: 367 83<423.226 477.5>
LayerCount: 2
Fore
SplineSet
367 434 m 0xe8
 367 445 334 460 317 460 c 0
 303 460 281 436 274 423 c 1
 278 421 290 420 304 420 c 0
 329 420 367 423 367 434 c 0xe8
613 542 m 0xd8
 630 542 637 532 637 508 c 0
 637 413 517 53 510 21 c 0
 508 12 501 -1 481 -1 c 0
 461 -1 435 14 431 34 c 0
 408 156 389 195 370 195 c 0
 341 195 258 21 210 -18 c 0
 201 -25 192 -29 184 -29 c 0
 153 -29 143 11 143 77 c 0
 143 118 153 296 167 364 c 0
 182 435 213 476 266 502 c 0
 299 518 336 527 367 527 c 0xe8
 430 527 450 496 450 459 c 0
 450 438 442 398 420 373 c 0
 393 343 327 328 289 328 c 0
 276 328 280 329 245 333 c 1
 241 309 241 317 237 251 c 2
 229 131 l 1
 239 141 251 157 254 171 c 0
 268 221 328 237 333 252 c 0
 344 283 377 288 386 288 c 0
 423 288 464 252 481 216 c 1
 512 323 543 508 579 532 c 0
 583 535 599 542 613 542 c 0xd8
EndSplineSet
Validated: 1
EndChar

StartChar: uni0E1D
Encoding: 3613 3613 135
Width: 549
Flags: W
HStem: 530 20G<304.889 375.355>
VStem: 95 84<115 214.969> 315 94<407.582 480.5> 603 78<815.814 893.583>
AnchorPoint: "AboveBase" 522 560 basechar 0
LayerCount: 2
Fore
SplineSet
312 426 m 0
 315 441 315 439 315 445 c 0
 315 453 309 458 282 458 c 0
 253 458 249 408 249 408 c 1
 249 405 252 405 264 405 c 0
 305 405 309 412 312 426 c 0
635 896 m 0
 667 896 681 889 681 863 c 0
 681 816 646 769 560 379 c 0
 490 60 461 -7 412 -7 c 0
 389 -7 384 6 347 137 c 0
 335 180 329 196 325 201 c 1
 294 174 216 -27 151 -27 c 0
 141 -27 131 -21 123 -16 c 0
 100 -2 95 19 95 55 c 0
 95 173 108 215 108 215 c 1
 125 293 162 413 191 454 c 0
 215 488 238 505 287 523 c 1
 356 550 l 1
 386 519 l 2
 400 505 409 492 409 469 c 0
 409 461 408 453 406 442 c 0
 385 341 322 324 211 309 c 1
 187 264 179 175 179 131 c 0
 179 124 180 119 180 115 c 1
 198 137 231 185 246 220 c 0
 258 246 311 305 347 305 c 0
 375 305 404 251 419 215 c 2
 429 190 l 1
 451 238 484 431 501 515 c 0
 537 686 597 860 603 879 c 1
 611 885 607 896 635 896 c 0
EndSplineSet
Validated: 1
EndChar

StartChar: uni0E1E
Encoding: 3614 3614 136
Width: 647
Flags: W
HStem: -18 21G<531.5 584.5> 236 92<431.546 478.9> 261 72<119.5 212.784> 417 93<206.405 267.267> 522 20G<641.5 669.5>
VStem: 82 72<333.003 381.881> 594 105<324.701 521.224> 594 98<456.652 529.164>
LayerCount: 2
Fore
SplineSet
268 410 m 1xbc
 267 414 257 417 236 417 c 0
 200 417 180 399 157 351 c 0
 157 349 154 346 154 345 c 0
 152 337 159 333 168 333 c 0
 204 333 266 399 268 410 c 1xbc
594 492 m 0xde
 594 526 633 542 650 542 c 0
 689 542 672 498 692 478 c 0xdd
 697 473 699 465 699 453 c 0
 699 429 691 390 679 333 c 2xbe
 664 265 l 1
 617 42 603 -18 566 -18 c 0
 497 -18 523 136 513 141 c 1
 498 162 478 236 460 236 c 0xde
 414 236 301 -42 243 -42 c 0
 235 -42 220 -37 220 -18 c 0
 220 35 276 274 278 334 c 1
 255 316 206 261 146 261 c 0xbe
 93 261 82 305 82 331 c 0
 82 357 95 374 126 409 c 0
 178 470 221 510 262 510 c 0
 295 510 320 485 335 467 c 2
 372 424 l 1
 343 229 l 1
 352 238 l 1
 407 295 439 328 471 328 c 0
 513 328 550 277 569 240 c 1
 589 334 598 421 598 456 c 0
 598 470 594 478 594 492 c 0xde
EndSplineSet
Validated: 1
EndChar

StartChar: uni0E1F
Encoding: 3615 3615 137
Width: 670
Flags: W
HStem: -17 21G<239 279> 224 91<389.7 453.204> 318 74<144.5 265.875> 477 82<236.318 322>
VStem: 111 81<372 427.406> 291 81<416.121 475.151>
AnchorPoint: "AboveBase" 643 560 basechar 0
LayerCount: 2
Fore
SplineSet
756 800 m 0
 772 800 779 792 779 772 c 0
 779 730 736 552 679 339 c 0
 599 40 583 -28 536 -28 c 0
 504 -28 497 3 485 109 c 0
 476 187 443 224 421 224 c 0
 407 224 401 223 377 183 c 0
 331 107 310 -17 248 -17 c 0
 230 -17 223 -6 223 20 c 0
 223 50 232 100 244 176 c 2
 271 337 l 1
 259 334 l 2
 216 323 188 318 168 318 c 0
 121 318 111 359 111 385 c 0
 111 391 111 396 112 400 c 0
 121 440 228 545 269 555 c 0
 274 556 287 559 296 559 c 0
 348 559 372 513 372 440 c 0
 372 408 369 371 359 332 c 2
 355 317 l 2
 346 283 346 268 345 259 c 1
 393 286 391 315 429 315 c 0
 437 315 445 314 455 312 c 0
 535 295 530 264 559 211 c 1
 602 340 683 770 727 793 c 0
 728 794 743 800 756 800 c 0
257 477 m 0
 210 477 228 426 193 421 c 1
 192 419 192 417 192 414 c 0
 192 405 197 392 212 392 c 0
 237 392 284 423 291 435 c 1
 291 463 279 477 257 477 c 0
EndSplineSet
Validated: 1
EndChar

StartChar: uni0E20
Encoding: 3616 3616 138
Width: 621
Flags: W
HStem: -13 76<162.175 235.73> 155 75<191.317 257.82> 365 16<267.5 330.5> 547 20G<506.5 541>
VStem: 339 82<266.833 380.569> 481 103<-13.2891 121.113> 545 82<241.056 472.129>
LayerCount: 2
Fore
SplineSet
161 72 m 1xf8
 171 68 205 63 216 63 c 0
 232 63 224 77 247 96 c 0
 253 101 260 100 260 121 c 0
 260 149 236 155 214 155 c 0
 195 155 162 75 161 72 c 1xf8
297 218 m 1
 300 223 339 310 339 358 c 0
 339 372 335 381 326 381 c 0
 305 381 287 365 273 365 c 0
 262 365 240 373 240 392 c 0
 240 424 357 504 412 527 c 0
 488 559 492 567 521 567 c 0
 561 567 610 543 622 504 c 0
 626 492 627 470 627 442 c 0xfa
 627 343 607 167 584 61 c 0
 570 -3 559 -43 518 -43 c 0
 497 -43 481 -26 481 -3 c 0xfc
 481 16 545 334 545 404 c 0xfa
 545 442 518 481 516 483 c 1
 500 479 429 449 406 434 c 1
 409 425 421 408 421 370 c 0
 421 324 403 277 395 255 c 1
 338 119 310 70 264 28 c 0
 230 -3 215 -13 191 -13 c 0
 148 -13 102 13 102 51 c 0
 102 60 104 60 104 66 c 0
 104 77 94 77 94 93 c 0
 94 121 118 170 134 190 c 0
 156 217 193 230 226 230 c 0
 255 230 279 218 297 218 c 1
EndSplineSet
Validated: 1
EndChar

StartChar: uni0E21
Encoding: 3617 3617 139
Width: 658
Flags: W
HStem: 20 543<566 687> 212 86<423.874 475.473> 274 84<152 252.13> 449 81<251.333 333.651>
VStem: 116 89<331 403.36> 335 92<350.109 447.953> 351 72<298.528 362>
LayerCount: 2
Fore
SplineSet
307 449 m 0x3c
 258 449 205 390 205 362 c 0
 205 358 207 358 209 358 c 0
 234 358 335 426 335 432 c 0
 335 437 327 449 307 449 c 0x3c
668 327 m 0
 639 190 630 20 566 20 c 0x8a
 522 20 537 127 478 189 c 0
 461 207 453 212 443 212 c 0
 421 212 394 201 390 194 c 1
 363 111 319 7 300 -8 c 0
 284 -21 276 -26 263 -26 c 0
 245 -26 224 -1 222 2 c 0
 209 16 203 27 203 46 c 0
 203 58 206 73 210 94 c 0
 230 187 263 176 268 201 c 0
 272 220 307 248 308 249 c 0
 330 267 336 280 344 317 c 0
 348 334 351 352 351 362 c 1x4a
 324 343 246 274 178 274 c 0
 126 274 116 317 116 345 c 0
 116 373 131 419 216 486 c 0
 259 520 282 530 320 530 c 0
 411 530 427 457 427 393 c 0x3c
 427 358 423 332 423 306 c 0
 423 298 424 298 443 298 c 0x5a
 490 298 535 278 559 247 c 1
 588 363 l 2
 622 501 642 563 687 563 c 0x8a
 707 563 721 544 721 515 c 0
 721 468 695 453 668 327 c 0
EndSplineSet
Validated: 1
EndChar

StartChar: uni0E22
Encoding: 3618 3618 140
Width: 530
Flags: W
HStem: -20 82<296.222 371.341> 228 91<155.5 230.278> 236 83<182.004 230.057> 520 35G<327 378 522.5 552>
VStem: 97 85<303.5 357.32> 204 88<62.1542 210.512> 484 85<301.306 508.727>
LayerCount: 2
Fore
SplineSet
537 540 m 0xde
 567 540 569 515 569 489 c 0
 569 422 546 291 538 250 c 0
 507 105 457 39 362 -4 c 0
 339 -15 318 -20 298 -20 c 0
 260 -20 237 2 219 50 c 0
 209 78 204 94 204 112 c 0
 204 136 212 165 217 182 c 2
 231 236 l 1xbe
 199 231 l 2
 187 229 176 228 168 228 c 0
 143 228 134 239 117 262 c 0
 105 279 97 294 97 313 c 0
 97 329 100 341 121 381 c 0
 144 424 292 555 362 555 c 0
 394 555 402 530 402 513 c 0
 402 462 280 390 239 373 c 0
 184 351 182 347 182 338 c 0
 182 329 187 319 211 319 c 0
 246 319 294 336 327 363 c 0
 339 373 351 377 361 377 c 0
 379 377 394 364 394 346 c 0
 394 314 370 304 370 304 c 1
 351 287 292 196 292 115 c 0
 292 74 308 62 313 62 c 0
 320 62 336 69 350 74 c 0
 414 98 431 121 457 242 c 0
 478 343 484 384 484 405 c 0
 484 429 477 417 477 466 c 0
 477 509 508 540 537 540 c 0xde
EndSplineSet
Validated: 1
EndChar

StartChar: uni0E23
Encoding: 3619 3619 141
Width: 454
Flags: W
HStem: -32 101<197.001 237.25> 165 86<207.673 268.995> 477 90<279.867 362.935>
VStem: 123 74<22 162.709> 328 77<250.585 343.018>
LayerCount: 2
Fore
SplineSet
219 69 m 0
 261 69 269 136 269 148 c 0
 269 161 262 163 245 164 c 0
 240 164 235 165 233 165 c 0
 215 165 210 161 204 131 c 0
 199 109 197 95 197 86 c 0
 197 77 199 73 204 71 c 0
 205 71 208 69 219 69 c 0
162 391 m 0
 162 405 195 482 221 491 c 0
 221 492 223 492 223 493 c 0
 230 525 285 567 339 567 c 0
 386 567 422 540 432 522 c 1
 478 607 477 656 525 656 c 0
 552 656 559 642 559 628 c 0
 559 609 556 611 496 473 c 0
 478 433 458 391 429 391 c 0
 399 391 372 402 367 445 c 0
 365 463 345 477 323 477 c 0
 291 477 278 454 276 450 c 1
 281 444 307 434 316 432 c 0
 380 421 405 394 405 340 c 0
 405 258 351 101 301 41 c 0
 267 0 209 -32 169 -32 c 0
 135 -32 123 -3 123 47 c 0
 123 75 128 126 134 154 c 0
 140 181 148 197 174 220 c 0
 199 242 218 251 255 251 c 1
 310 249 l 1
 320 283 l 2
 323 296 328 310 328 322 c 0
 328 343 310 327 298 358 c 1
 290 364 253 367 241 367 c 0
 197 368 162 370 162 391 c 0
EndSplineSet
Validated: 1
EndChar

StartChar: uni0E24
Encoding: 3620 3620 142
Width: 606
Flags: W
HStem: -30 65<234.499 267.145> 95 90<259.259 339.5> 470 88<375.213 493.787>
VStem: 295 94<52.5563 145.5> 504 88<210.173 463.893>
DStem2: 181 272 247 159 0.16121 0.98692<-98.6306 69.0451>
LayerCount: 2
Fore
SplineSet
389 120 m 0
 389 32 292 -30 252 -30 c 0
 233 -30 213 -19 190 -7 c 0
 155 10 139 25 139 61 c 0
 139 103 159 145 181 272 c 2
 193 340 l 1
 162 335 158 334 153 334 c 0
 139 334 119 340 119 359 c 0
 119 378 134 399 152 415 c 2
 196 454 l 1
 232 489 411 558 478 558 c 0
 505 558 525 549 541 540 c 0
 575 521 592 484 592 410 c 0
 592 256 496 -202 496 -202 c 1
 490 -230 485 -249 467 -249 c 0
 463 -249 460 -248 458 -248 c 0
 457 -248 444 -253 431 -253 c 0
 415 -253 411 -245 411 -233 c 0
 411 -153 504 274 504 383 c 0
 504 429 495 470 465 470 c 0
 422 470 343 446 314 427 c 2
 288 410 l 1
 267 282 l 2
 260 238 250 183 247 159 c 1
 270 167 316 185 333 185 c 0
 346 185 389 171 389 120 c 0
234 57 m 1
 239 50 248 35 256 35 c 0
 257 35 259 36 260 37 c 1
 256 37 l 1
 269 42 295 80 295 91 c 0
 295 93 294 95 292 95 c 0
 273 95 243 68 234 57 c 1
EndSplineSet
Validated: 1
EndChar

StartChar: uni0E25
Encoding: 3621 3621 143
Width: 432
Flags: W
HStem: -24 66<106.5 201.499> 238 90<264.562 331.78> 531 20G<420 439>
VStem: 395 98<385.818 454>
LayerCount: 2
Fore
SplineSet
203 56 m 1
 178 54 157 48 156 44 c 0
 156 42 160 42 165 42 c 0
 172 42 188 45 203 56 c 1
64 24 m 0
 64 138 219 328 322 328 c 0
 346 328 362 318 372 312 c 1
 378 335 l 2
 387 370 395 431 395 454 c 1
 372 437 l 2
 267 359 235 320 207 320 c 1
 207 320 187 322 187 343 c 0
 187 390 360 530 386 541 c 0
 400 546 415 551 425 551 c 0
 453 551 491 525 493 496 c 1
 493 470 396 35 367 -2 c 0
 362 -8 354 -14 339 -14 c 0
 311 -14 303 1 303 22 c 0
 303 63 337 164 337 198 c 0
 337 218 317 238 302 238 c 0
 286 238 260 219 184 136 c 1
 200 139 225 145 242 145 c 0
 285 145 310 124 310 91 c 0
 310 74 305 65 302 55 c 1
 285 15 191 -24 132 -24 c 0
 81 -24 64 -9 64 24 c 0
EndSplineSet
Validated: 1
EndChar

StartChar: uni0E26
Encoding: 3622 3622 144
Width: 662
Flags: W
HStem: -248 21G<443.5 474> -13 74<144.284 206.464> 159 63<174.494 237.108> 541 20G<463 513.5>
VStem: 53 90<61.2049 111.721> 332 79<258.266 371.762> 516 74<181.952 453.563>
DStem2: 431 -237 507 -181 0.182089 0.983282<0 350.463>
LayerCount: 2
Fore
SplineSet
163 61 m 0
 196 61 238 105 238 132 c 0
 238 150 215 159 206 159 c 0
 179 159 143 97 143 75 c 0
 143 64 151 61 163 61 c 0
208 373 m 0
 208 426 426 561 500 561 c 0
 527 561 543 546 561 524 c 0
 581 499 590 474 590 420 c 0
 590 321 565 92 517 -130 c 1
 507 -181 l 2
 496 -233 489 -248 459 -248 c 1
 428 -242 451 -237 431 -237 c 1
 491 87 l 2
 514 210 516 289 516 329 c 0
 516 355 514 372 512 399 c 0
 510 439 483 475 474 476 c 1
 467 475 406 449 384 434 c 1
 393 425 411 409 411 363 c 0
 411 234 271 -13 154 -13 c 0
 93 -13 53 34 53 66 c 0
 53 86 72 109 97 141 c 0
 139 195 171 222 215 222 c 0
 251 222 276 208 285 207 c 1
 294 216 332 299 332 340 c 0
 332 365 320 373 301 373 c 0
 267 373 272 354 238 354 c 0
 214 354 208 364 208 373 c 0
EndSplineSet
Validated: 1
EndChar

StartChar: uni0E27
Encoding: 3623 3623 145
Width: 432
Flags: W
HStem: 139 88<262.526 302.549> 550 20G<399 456.5>
VStem: 173 84<69.1547 137.791> 409 84<320.429 471.937>
LayerCount: 2
Fore
SplineSet
267 69 m 0
 285 69 303 101 303 122 c 0
 303 136 294 139 284 139 c 0
 262 139 257 101 257 88 c 0
 257 77 259 69 267 69 c 0
138 324 m 0
 138 372 360 570 438 570 c 0
 475 570 493 519 493 454 c 0
 493 408 485 344 440 222 c 0
 384 71 353 29 277 2 c 2
 217 -20 l 1
 190 25 l 2
 179 45 173 66 173 87 c 0
 173 141 229 227 292 227 c 0
 316 227 340 216 357 214 c 1
 383 291 409 397 409 443 c 0
 409 461 405 472 396 472 c 1
 374 465 287 375 259 373 c 1
 242 365 204 296 164 296 c 0
 144 296 138 314 138 324 c 0
EndSplineSet
Validated: 1
EndChar

StartChar: uni0E28
Encoding: 3624 3624 146
Width: 526
Flags: W
HStem: 206 75<217.642 313.705> 315 65<240.095 312.29> 476 83<323.488 421.944> 523 89<638.47 702.773>
DStem2: 60.9372 -35 149.812 -35 0.207912 0.978148<15.8491 271.411> 352.247 -35 438.286 -35 0.207912 0.978148<92.2834 456.724>
LayerCount: 2
Fore
SplineSet
402 297 m 0xe0
 402 261 360 206 282 206 c 0
 266 206 224 208 202 209 c 1
 197 187 l 2
 150 -20 149 -35 115 -35 c 0
 104 -35 110 -35 62 -30 c 1
 102 173 l 2
 106 191 137 360 158 405 c 1
 186 461 318 559 408 559 c 0xe0
 483 559 502 509 517 493 c 1
 544 521 636 612 676 612 c 0
 696 612 711 592 711 570 c 0
 711 542 688 528 670 523 c 0xd0
 662 521 625 493 588 459 c 2
 527 403 l 1
 491 213 l 2
 461 54 458 4 420 4 c 0
 391 4 379 17 379 52 c 0
 379 87 391 144 409 232 c 2
 446 412 l 1
 428 445 l 2
 416 468 406 476 384 476 c 0
 327 476 224 387 224 357 c 0
 224 355 224 354 225 353 c 1
 238 355 268 380 292 380 c 0
 318 380 402 352 402 297 c 0xe0
232 283 m 1
 237 282 247 281 258 281 c 0
 280 281 308 283 315 289 c 1
 313 295 297 314 276 315 c 0
 258 315 240 295 232 283 c 1
EndSplineSet
Validated: 1
EndChar

StartChar: uni0E29
Encoding: 3625 3625 147
Width: 711
Flags: W
HStem: -5 99<367.56 512.162> 336 78<493.751 571.5> 397 182<673 746> 491 65<272.485 371>
VStem: 328 95<298.833 477.5> 427 66<294.5 334.701>
LayerCount: 2
Fore
SplineSet
522 336 m 0xcc
 516 336 493 332 493 323 c 0
 493 312 528 325 528 296 c 1
 542 296 557 302 559 306 c 1
 559 317 545 336 522 336 c 0xcc
143 434 m 0
 143 486 251 556 336 556 c 0
 406 556 423 491 423 464 c 0
 423 435 407 332 395 259 c 2
 367 94 l 1
 427 92 l 2
 441 91 450 91 459 91 c 0
 487 91 496 93 520 114 c 0
 546 136 562 183 562 204 c 0
 562 207 562 209 561 211 c 1
 526 214 427 280 427 309 c 0
 427 345 497 414 563 414 c 0xdc
 580 414 594 409 600 396 c 1
 622 465 630 579 673 579 c 0
 675 579 721 575 721 529 c 0
 721 511 716 486 709 452 c 2
 694 380 l 1
 705 384 l 2
 717 389 738 397 746 397 c 0xac
 755 397 762 392 762 382 c 0
 762 343 677 274 648 194 c 0
 599 57 528 -5 411 -5 c 0
 317 -5 281 15 281 94 c 0
 281 181 328 351 328 398 c 0
 328 409 326 413 321 413 c 0
 301 413 267 388 214 388 c 0
 174 388 143 406 143 434 c 0
267 466 m 1
 282 468 305 478 315 485 c 1
 306 489 295 491 289 491 c 0
 286 491 289 484 267 466 c 1
EndSplineSet
Validated: 1
EndChar

StartChar: uni0E2A
Encoding: 3626 3626 148
Width: 473
Flags: W
HStem: -25 63<156.199 221.809> 68 86<165.309 238.5> 283 90<278.425 356.5> 452 91<340.127 381.525> 585 75<597.302 666.886>
VStem: 382 95<370.875 452>
LayerCount: 2
Fore
SplineSet
309 101 m 0
 309 35 256 -25 186 -25 c 0
 123 -25 151 -5 121 -4 c 0
 98 -3 69 29 69 75 c 0
 69 83 70 91 72 100 c 0
 96 211 160 266 210 307 c 0
 249 339 299 373 349 373 c 0
 364 373 374 370 382 368 c 1
 382 452 382 452 373 452 c 1
 340 443 270 359 230 359 c 0
 211 359 206 375 206 386 c 0
 206 438 346 543 401 543 c 0
 423 543 465 563 511 603 c 0
 551 638 614 660 645 660 c 0
 668 660 677 648 677 635 c 0
 677 615 659 591 640 585 c 0
 618 579 547 532 495 508 c 0
 483 502 476 498 475 495 c 1
 476 490 477 477 477 456 c 0
 477 416 472 345 447 228 c 0
 412 65 391 -24 336 -24 c 0
 320 -24 314 -16 314 4 c 0
 314 50 349 194 349 250 c 0
 349 283 338 283 317 283 c 1
 293 278 177 194 164 135 c 1
 214 154 217 154 232 154 c 0
 245 154 256 151 270 146 c 0
 288 139 309 135 309 101 c 0
156 55 m 1
 161 48 170 39 184 38 c 1
 201 38 219 54 224 61 c 1
 220 66 213 68 205 68 c 0
 189 68 168 60 156 55 c 1
EndSplineSet
Validated: 1
EndChar

StartChar: uni0E2B
Encoding: 3627 3627 149
Width: 685
Flags: W
HStem: 438 80<219.416 312.5>
VStem: 104 104<339.5 410.302> 267 109<353.142 456.5>
LayerCount: 2
Fore
SplineSet
243 438 m 0
 215 438 208 400 208 389 c 0
 208 375 214 368 217 366 c 1
 237 376 267 409 267 423 c 0
 267 436 248 438 243 438 c 0
498 40 m 0
 498 73 508 96 508 144 c 0
 508 150 507 156 507 161 c 2
 505 180 l 1
 494 168 l 2
 463 135 446 117 417 83 c 0
 386 47 309 -4 272 -4 c 0
 244 -4 234 17 234 58 c 0
 234 93 241 144 251 206 c 2
 271 335 l 1
 248 325 l 2
 225 314 198 308 173 308 c 0
 117 308 104 330 104 349 c 0
 104 370 131 430 158 455 c 0
 193 488 255 518 294 518 c 0
 331 518 318 498 350 485 c 0
 370 477 376 464 376 449 c 0
 376 441 337 236 328 111 c 1
 365 144 449 230 494 285 c 0
 527 326 540 352 547 384 c 0
 568 484 587 523 635 545 c 0
 676 564 693 564 694 564 c 0
 698 577 711 586 725 586 c 0
 737 586 777 576 777 538 c 0
 777 507 750 462 684 385 c 0
 635 327 626 316 619 285 c 0
 590 144 623 -21 539 -21 c 0
 512 -21 498 2 498 40 c 0
EndSplineSet
Validated: 1
EndChar

StartChar: uni0E2C
Encoding: 3628 3628 150
Width: 772
Flags: W
HStem: 466 75<271.038 351>
VStem: 266 136<25.4202 107.141> 325 120<405.5 465.654>
DStem2: 560.968 -42 678.948 -42 0.207912 0.978148<360.886 758.231>
AnchorPoint: "AboveBase" 675 560 basechar 0
LayerCount: 2
Fore
SplineSet
325 455 m 0xa0
 325 462 320 466 313 466 c 0
 298 466 273 451 256 427 c 2
 243 409 l 1
 255 412 l 2
 301 423 325 424 325 455 c 0xa0
690 799 m 0
 690 865 773 942 820 942 c 0
 833 942 869 938 869 864 c 2
 869 823 l 1
 926 867 l 2
 975 905 1017 929 1041 929 c 0
 1054 929 1062 921 1062 909 c 0
 1062 871 964 762 883 719 c 2
 831 692 l 1
 734 217 l 2
 696 35 693 13 654 13 c 1
 593 17 607 116 594 155 c 1
 587 163 574 188 565 204 c 2
 550 232 l 1
 500 193 l 2
 452 155 430 124 402 66 c 0
 365 -9 334 -42 304 -42 c 0
 275 -42 266 -19 266 13 c 0xc0
 266 40 273 75 280 109 c 2
 292 166 l 2
 309 245 318 311 318 331 c 1
 289 330 250 295 183 295 c 0
 129 295 113 323 113 351 c 0
 113 400 162 449 193 473 c 0
 248 516 294 541 333 541 c 0
 369 541 396 520 422 483 c 0
 435 464 445 450 445 424 c 0
 445 387 411 291 401 241 c 0
 400 236 401 232 400 229 c 1
 470 264 483 318 551 318 c 0
 562 318 572 317 586 316 c 2
 636 311 l 1
 665 433 l 2
 674 475 717 644 717 710 c 0
 717 767 690 749 690 799 c 0
EndSplineSet
Validated: 1
EndChar

StartChar: uni0E2D
Encoding: 3629 3629 151
Width: 648
Flags: W
HStem: -29 267<332 440.5> 281 66<361.894 429.812> 455 105<475.849 551>
VStem: 228 102<84.1149 167> 498 107<335.743 453.859>
LayerCount: 2
Fore
SplineSet
228 125 m 0
 228 151 233 160 233 176 c 0
 233 200 221 216 221 230 c 0
 221 252 240 245 279 290 c 0
 313 329 374 347 421 347 c 0
 437 347 452 347 467 342 c 2
 490 335 l 1
 495 386 l 2
 496 401 498 418 498 432 c 0
 498 446 496 455 490 455 c 0
 467 455 376 393 352 377 c 0
 322 357 290 347 266 347 c 0
 231 347 226 365 226 373 c 0
 226 406 483 560 528 560 c 0
 574 560 605 482 605 414 c 0
 605 388 602 355 593 313 c 0
 552 120 482 80 465 39 c 1
 458 5 388 -29 356 -29 c 0
 308 -29 228 32 228 125 c 0
365 57 m 1
 383 77 420 127 432 146 c 1
 413 150 351 163 330 167 c 1
 331 140 351 77 365 57 c 1
356 254 m 1
 370 245 408 238 437 238 c 0
 444 238 450 238 455 239 c 1
 439 255 399 281 389 281 c 0
 385 281 366 263 356 254 c 1
EndSplineSet
Validated: 1
EndChar

StartChar: uni0E2E
Encoding: 3630 3630 152
Width: 638
Flags: W
HStem: -27 85<225 313.516> 299 73<281.468 373.956> 473 82<382.503 420.595>
VStem: 155 88<197 257.426>
LayerCount: 2
Fore
SplineSet
243 197 m 1
 266 224 378 210 378 261 c 0
 378 276 366 299 347 299 c 0
 336 299 286 289 269 267 c 0
 254 247 243 216 243 197 c 1
272 448 m 0
 272 497 382 555 418 555 c 0
 465 555 506 525 506 497 c 1
 539 505 628 573 661 573 c 0
 670 573 695 564 695 544 c 0
 695 542 694 540 694 538 c 0
 682 498 550 417 542 413 c 0
 529 406 522 398 506 321 c 0
 492 256 442 84 403 52 c 0
 380 33 339 -27 268 -27 c 0
 182 -27 155 115 155 167 c 0
 155 330 322 372 372 372 c 1
 407 370 403 359 408 355 c 1
 410 355 411 357 411 362 c 0
 411 371 404 376 391 379 c 0
 328 390 272 411 272 448 c 0
365 145 m 1
 358 146 350 146 340 146 c 0
 311 146 274 143 258 139 c 1
 260 125 276 58 291 58 c 0
 301 58 364 144 365 145 c 1
382 463 m 1
 392 458 416 456 421 455 c 1
 421 460 410 473 395 473 c 0
 392 473 385 467 382 463 c 1
EndSplineSet
Validated: 1
EndChar

StartChar: uni0E2F
Encoding: 3631 3631 153
Width: 590
Flags: W
HStem: 304 64<256.563 337.034> 474 71<254.811 337.367>
LayerCount: 2
Fore
SplineSet
428 -58 m 0
 405 -58 402 -44 402 -26 c 0
 402 45 454 255 478 423 c 1
 432 385 362 304 271 304 c 0
 221 304 170 324 170 391 c 0
 170 466 236 545 315 545 c 0
 358 545 380 530 411 491 c 2
 427 471 l 1
 452 499 l 2
 482 533 512 546 532 546 c 0
 558 546 565 526 565 504 c 0
 565 396 489 -21 463 -44 c 0
 453 -53 440 -58 428 -58 c 0
365 406 m 1
 361 431 331 474 290 474 c 0
 266 474 243 441 240 428 c 1
 268 424 237 392 272 374 c 0
 282 369 286 368 290 368 c 0
 302 368 349 395 365 406 c 1
EndSplineSet
Validated: 1
EndChar

StartChar: uni0E30
Encoding: 3632 3632 154
Width: 532
Flags: W
HStem: 287 65<288.264 331.513>
LayerCount: 2
Fore
SplineSet
321 384 m 1
 309 379 288 360 287 354 c 0
 287 352 289 352 296 352 c 0
 311 352 332 359 333 364 c 0
 335 375 325 379 321 384 c 1
472 426 m 0
 480 426 499 421 499 404 c 0
 499 390 489 379 460 355 c 0
 443 341 386 287 293 287 c 0
 218 287 202 338 202 357 c 1
 214 396 313 440 344 440 c 0
 355 440 380 425 394 414 c 2
 418 395 l 1
 423 400 444 426 472 426 c 0
423 181 m 0
 432 181 444 176 444 160 c 0
 444 126 385 88 343 75 c 1
 285 55 297 49 275 49 c 0
 256 49 218 61 203 61 c 1
 188 63 150 79 150 102 c 0
 150 125 207 176 220 181 c 0
 224 183 246 190 262 190 c 0
 291 190 319 162 319 134 c 0
 319 127 318 125 317 123 c 1
 346 135 401 181 423 181 c 0
237 121 m 1
 236 121 233 119 230 117 c 1
 235 117 237 119 237 121 c 1
EndSplineSet
Validated: 1
EndChar

StartChar: uni0E31
Encoding: 3633 3633 155
Width: 0
Flags: W
HStem: 565 21G<-151 -94.5> 708 67<-144.012 -108.005>
VStem: -217 57<604 693.404> -108 68<661.051 707.948>
AnchorPoint: "AboveMark" -73 560 mark 0
AnchorPoint: "AboveMark" -26 780 basemark 0
AnchorPoint: "AboveBase" 57 560 mark 0
LayerCount: 2
Fore
SplineSet
-155 642 m 1
 -146 647 -138 658 -116 663 c 1
 -112 666 -108 673 -108 689 c 0
 -108 703 -115 708 -122 708 c 1
 -128 707 -160 673 -160 651 c 0
 -160 647 -158 644 -155 642 c 1
-62 652 m 1
 -33 671 39 732 60 762 c 0
 73 780 88 789 102 789 c 0
 120 789 131 780 131 765 c 0
 131 738 95 705 89 699 c 0
 27 636 -56 565 -133 565 c 0
 -169 565 -217 578 -217 630 c 0
 -217 657 -196 720 -173 738 c 0
 -142 763 -124 775 -106 775 c 0
 -83 775 -40 746 -40 704 c 0
 -40 675 -55 668 -62 652 c 1
EndSplineSet
Validated: 1
EndChar

StartChar: uni0E32
Encoding: 3634 3634 156
Width: 428
Flags: W
HStem: 471 89<334.916 438.5>
VStem: 396 77<314.828 470.519>
LayerCount: 2
Fore
SplineSet
322 27 m 0
 322 104 396 380 396 455 c 2
 396 463 l 2
 396 471 396 471 388 471 c 0
 350 470 200 391 170 391 c 0
 160 391 148 397 148 412 c 0
 148 426 157 440 165 447 c 0
 191 471 352 560 418 560 c 0
 459 560 473 522 473 468 c 0
 473 422 463 363 451 306 c 0
 401 73 420 -16 353 -16 c 0
 332 -16 322 -5 322 27 c 0
EndSplineSet
Validated: 1
EndChar

StartChar: uni0E33
Encoding: 3635 3635 157
Width: 432
Flags: W
HStem: 490 90<325.105 423> 693 78<-48.5 27.8796>
VStem: -106 88<760.5 826.467> 376 102<363.55 511.499>
LayerCount: 2
Fore
SplineSet
-12 912 m 0
 29 943 68 962 85 962 c 0
 128 962 165 926 165 883 c 0
 165 824 78 725 -3 701 c 0
 -26 694 -31 693 -38 693 c 0
 -59 693 -70 706 -84 722 c 0
 -99 739 -106 752 -106 769 c 0
 -106 774 -105 778 -104 784 c 0
 -88 858 -39 892 -12 912 c 0
376 466 m 0
 376 486 374 490 366 490 c 0
 335 490 225 398 191 398 c 0
 184 398 167 400 167 420 c 0
 167 498 352 580 403 580 c 0
 443 580 478 533 478 488 c 0
 478 479 403 60 399 40 c 0
 391 2 367 -6 347 -6 c 0
 315 -6 309 16 309 49 c 0
 309 151 376 385 376 466 c 0
-7 771 m 0
 12 771 64 819 64 849 c 2
 64 857 l 1
 35 853 -2 832 -10 821 c 0
 -17 811 -18 797 -18 791 c 0
 -18 780 -15 771 -7 771 c 0
EndSplineSet
Validated: 1
MultipleSubs2: "Thai Sara Am Decomposition" uni0E4D uni0E32
Substitution2: "Thai Sara Am Lakkhang" uni0E32
EndChar

StartChar: uni0E3F
Encoding: 3647 3647 158
Width: 662
Flags: W
HStem: 325 77<490.342 545.351> 623 69<527.281 581.039>
VStem: 84 90<155.155 222.632> 549 78<221.188 319.86>
DStem2: 258.086 -241 328.11 -241 0.207912 0.978148<966.358 1078.84> 370 645 344 560 0.929578 0.368626<-206.541 -138.138 -55.5022 20.1178>
LayerCount: 2
Fore
SplineSet
502 325 m 0
 467 325 430 321 419 317 c 0
 400 310 397 303 358 172 c 2
 340 113 l 1
 363 119 l 2
 417 133 498 180 516 204 c 0
 544 242 549 269 549 285 c 0
 549 307 538 325 502 325 c 0
324 363 m 1
 354 381 353 385 383 477 c 0
 389 497 415 578 415 587 c 1
 408 586 388 578 383 576 c 2
 344 560 l 1
 340 488 l 2
 337 449 331 389 324 363 c 1
454 457 m 1
 528 513 557 541 573 594 c 2
 582 623 l 1
 567 623 l 2
 504 623 507 621 476 526 c 0
 467 499 459 474 454 457 c 1
168 -209 m 0
 168 -149 229 -13 229 9 c 0
 229 17 224 36 177 63 c 0
 129 91 84 161 84 189 c 0
 84 211 121 238 135 238 c 0
 159 238 174 201 174 188 c 1
 177 177 199 149 214 135 c 1
 222 176 215 191 248 389 c 0
 261 471 267 512 267 530 c 1
 262 528 225 508 201 508 c 0
 188 508 179 514 179 530 c 0
 179 560 190 578 370 645 c 2
 453 676 l 1
 466 738 l 2
 481 810 490 832 515 832 c 0
 535 832 543 825 543 802 c 0
 543 789 541 771 536 746 c 2
 526 690 l 1
 562 692 l 1
 575 692 l 2
 641 692 656 662 656 633 c 0
 656 544 534 439 502 410 c 2
 490 399 l 1
 503 400 l 2
 512 401 525 402 534 402 c 0
 581 402 627 358 627 293 c 0
 627 260 614 219 587 183 c 0
 549 130 438 68 354 45 c 0
 334 39 318 34 313 31 c 1
 292 -16 259 -177 231 -219 c 0
 221 -234 207 -241 194 -241 c 0
 174 -241 168 -227 168 -209 c 0
EndSplineSet
Validated: 1
EndChar

StartChar: uni0E40
Encoding: 3648 3648 159
Width: 364
Flags: W
HStem: -20 73<205.468 258.855> 92 95<235.045 321> 546 20G<260.5 273>
LayerCount: 2
Fore
SplineSet
202 66 m 0
 201 62 202 53 213 53 c 0
 232 53 266 76 270 89 c 1
 270 89 270 92 263 92 c 0
 259 92 206 85 202 66 c 0
266 566 m 0
 280 566 286 557 286 537 c 0
 286 499 250 348 243 318 c 2
 207 166 l 1
 269 182 290 187 303 187 c 0
 339 187 358 161 358 122 c 0
 358 86 338 34 326 18 c 0
 305 -11 262 -20 230 -20 c 0
 176 -20 130 1 124 36 c 0
 123 44 122 55 122 68 c 0
 122 143 142 289 164 394 c 0
 186 498 193 533 223 550 c 0
 240 559 255 566 266 566 c 0
EndSplineSet
Validated: 1
EndChar

StartChar: uni0E41
Encoding: 3649 3649 160
Width: 621
Flags: W
HStem: -48 71<204.06 243.519> 532 20G<228.593 338 591.5 608.5>
VStem: 83 120<23.2659 78.0774>
DStem2: 104.548 -48 202.113 -48 0.207912 0.978148<248.987 613.595>
LayerCount: 2
Fore
SplineSet
269 100 m 1
 211 79 203 66 203 43 c 0
 203 26 213 23 223 23 c 0
 231 23 239 29 269 100 c 1
216 -48 m 0
 159 -48 83 -10 83 27 c 0
 83 49 170 268 207 434 c 2
 233 552 l 1
 338 552 l 1
 295 389 l 2
 250 219 236 192 231 179 c 1
 252 185 295 197 333 197 c 0
 362 197 374 177 374 148 c 0
 374 89 325 -1 291 -14 c 0
 254 -28 256 -48 216 -48 c 0
598 550 m 0
 619 550 625 532 625 513 c 0
 625 475 586 328 553 232 c 2
 542 199 l 1
 581 196 l 2
 613 193 639 191 639 156 c 0
 639 130 625 96 609 65 c 0
 584 18 567 8 530 1 c 0
 521 -1 513 -2 505 -2 c 0
 478 -2 465 14 447 39 c 2
 413 84 l 1
 466 293 l 2
 500 426 521 501 546 525 c 0
 566 545 585 550 598 550 c 0
529 97 m 1
 528 97 527 97 526 97 c 0
 521 97 518 92 517 87 c 1
 519 88 526 91 529 97 c 1
EndSplineSet
Validated: 1
EndChar

StartChar: uni0E42
Encoding: 3650 3650 161
Width: 522
Flags: W
HStem: -26 86<321.504 386.273> 102 98<377.133 447.5> 764 20G<361 389>
VStem: 195 236<691.401 761.55> 271 72<16.5 91.6207> 388 103<66.2105 158> 568 103<836.513 890.654>
DStem2: 330 591 384 310 0.109507 0.993986<-392.111 -26.802>
LayerCount: 2
Fore
SplineSet
383 102 m 0xee
 370 102 343 74 343 70 c 0
 343 67 354 60 365 60 c 0
 380 60 388 80 388 92 c 0
 388 98 386 102 383 102 c 0xee
671 898 m 0
 671 837 589 717 559 717 c 0
 520 717 482 811 423 811 c 0
 403 811 379 803 346 783 c 1
 351 784 358 784 364 784 c 0
 414 784 431 756 431 695 c 0xf2
 431 619 405 493 384 310 c 2
 371 192 l 1
 397 197 414 200 427 200 c 0
 468 200 491 177 491 139 c 0
 491 118 486 90 451 34 c 0
 436 11 409 -26 344 -26 c 0
 300 -26 271 -3 271 36 c 0xee
 271 93 312 463 330 591 c 2
 344 690 l 1
 316 685 l 2
 275 678 236 667 221 667 c 0
 216 667 195 669 195 697 c 0xf2
 195 749 260 838 296 838 c 0
 303 838 307 848 313 855 c 0
 342 885 427 906 466 906 c 0
 528 906 552 852 568 833 c 1
 575 884 611 932 646 932 c 0
 662 932 671 920 671 898 c 0
EndSplineSet
Validated: 1
EndChar

StartChar: uni0E43
Encoding: 3651 3651 162
Width: 477
Flags: W
HStem: -14 85<288 357.593> 600 96<229 293.018>
VStem: 231 85<27.5 106.591> 357 77<753.521 809> 387 81<95.085 164.5>
LayerCount: 2
Fore
SplineSet
321 71 m 0xe8
 339 71 387 103 387 126 c 0
 387 133 384 142 382 147 c 1
 366 137 316 89 316 75 c 0
 316 73 318 71 321 71 c 0xe8
272 696 m 0
 282 696 357 751 357 809 c 1xf0
 331 793 260 740 246 722 c 1
 248 713 266 696 272 696 c 0
300 -14 m 0
 276 -14 231 11 231 44 c 0
 231 68 243 90 254 142 c 0
 280 266 285 391 309 557 c 0
 315 593 318 622 320 639 c 1
 298 625 266 600 243 600 c 0
 215 600 183 650 183 693 c 0
 183 758 288 867 340 892 c 0
 377 910 393 916 403 916 c 0
 419 916 438 900 438 866 c 0
 438 845 432 840 432 814 c 0
 432 798 434 794 434 786 c 0xf0
 434 717 356 354 356 242 c 0
 356 223 358 212 363 210 c 1
 370 211 388 234 413 234 c 0
 457 234 468 181 468 148 c 0xe8
 468 68 341 -14 300 -14 c 0
EndSplineSet
Validated: 1
EndChar

StartChar: uni0E44
Encoding: 3652 3652 163
Width: 469
Flags: W
HStem: -23 255<337 453>
VStem: 224 95<770 906.958> 270 216<128.171 212.684>
LayerCount: 2
Fore
SplineSet
376 751 m 1xa0
 367 737 299 640 277 640 c 0
 244 640 224 736 224 812 c 0
 224 834 225 854 229 870 c 0
 243 922 273 930 282 930 c 0
 288 930 289 929 294 922 c 0
 301 910 319 831 319 770 c 1xc0
 391 865 414 955 466 955 c 0
 491 955 498 921 498 888 c 0
 498 826 490 873 423 486 c 2
 376 217 l 1
 394 223 428 232 453 232 c 0
 477 232 486 223 486 201 c 0
 486 133 427 -23 337 -23 c 0
 300 -23 270 12 270 56 c 0
 270 116 354 542 376 751 c 1xa0
361 67 m 1
 370 78 384 105 393 128 c 1
 367 96 364 79 361 67 c 1
EndSplineSet
Validated: 1
EndChar

StartChar: uni0E45
Encoding: 3653 3653 164
Width: 534
Flags: W
HStem: 498 75<318.185 384.441>
VStem: 315 94<-223.079 -124> 389 88<179.447 497.313>
LayerCount: 2
Fore
SplineSet
335 -256 m 0xc0
 320 -256 315 -247 315 -230 c 0xc0
 315 -211 363 12 383 298 c 0
 387 350 389 390 389 421 c 0
 389 475 382 498 367 498 c 0
 323 498 220 393 176 393 c 0
 164 393 157 400 157 412 c 0
 157 459 296 553 330 565 c 0
 340 568 360 573 379 573 c 0
 389 573 392 573 395 572 c 0
 459 559 477 523 477 440 c 0xa0
 477 374 466 278 458 140 c 1
 454 94 432 -38 414 -124 c 2
 409 -148 l 2
 398 -198 388 -237 366 -247 c 0
 356 -251 345 -256 335 -256 c 0xc0
EndSplineSet
Validated: 1
EndChar

StartChar: uni0E46
Encoding: 3654 3654 165
Width: 594
Flags: W
HStem: 236 66<202 265.007> 321 215<287 361>
VStem: 143 77<304.66 402.5> 404 79<-191.5 -9.3114> 481 84<232.753 411>
LayerCount: 2
Fore
SplineSet
255 302 m 0xe0
 264 302 267 328 267 334 c 0
 267 346 262 350 256 350 c 0
 242 350 220 336 220 326 c 0
 220 315 236 303 255 302 c 0xe0
404 -156 m 0xf0
 404 -102 481 277 481 385 c 2
 481 395 l 1
 480 411 l 1
 453 380 l 2
 414 336 392 321 361 321 c 0
 358 321 345 321 344 318 c 0
 339 296 284 236 216 236 c 0
 188 236 168 247 161 267 c 0
 152 294 143 338 143 370 c 0
 143 435 241 536 287 536 c 0
 328 536 363 465 370 442 c 2
 377 416 l 1
 420 457 l 2
 474 508 498 514 515 514 c 0
 551 514 565 484 565 426 c 0xe8
 565 369 552 284 533 173 c 0
 482 -134 486 -127 483 -141 c 0
 480 -153 470 -203 438 -203 c 0
 413 -203 404 -188 404 -156 c 0xf0
237 410 m 1
 260 423 278 420 294 422 c 1
 290 432 279 448 272 454 c 1
 265 450 246 435 237 410 c 1
EndSplineSet
Validated: 1
EndChar

StartChar: uni0E47
Encoding: 3655 3655 166
Width: 0
Flags: W
HStem: 770 91<80.0049 130.396>
AnchorPoint: "AboveMark" 10 889 basemark 0
AnchorPoint: "AboveBase" 141 560 mark 0
LayerCount: 2
Fore
SplineSet
82 720 m 0
 82 674 34 647 19 647 c 1
 -2 650 -24 679 -24 692 c 1
 -27 698 -33 703 -38 705 c 1
 -50 689 -70 637 -104 637 c 0
 -120 637 -141 647 -141 682 c 0
 -141 730 -104 808 -51 841 c 0
 -24 858 -12 861 45 861 c 0
 113 861 118 853 131 844 c 1
 140 858 l 2
 185 928 216 976 239 976 c 0
 256 976 263 967 263 956 c 0
 263 929 173 794 152 779 c 0
 143 772 134 770 126 770 c 0
 103 770 84 791 73 796 c 1
 70 788 55 776 32 759 c 1
 39 761 46 762 51 762 c 0
 66 762 82 745 82 720 c 0
30 693 m 1
 27 696 l 1
 22 692 l 1
 26 690 l 1
 30 693 l 1
-12 795 m 1
 -21 791 -29 786 -36 780 c 1
 -28 785 -20 790 -12 795 c 1
EndSplineSet
Validated: 1
Substitution2: "Thai Mark High Variant" uni0E47.high
Substitution2: "Thai Phinthu Maitaikhu Reordering" uni0E3A
EndChar

StartChar: uni0E4A
Encoding: 3658 3658 167
Width: 0
Flags: W
HStem: 846 118<-18 19.4706>
VStem: -140 127<784.573 846>
AnchorPoint: "AboveMark" 38 1038 basemark 0
AnchorPoint: "AboveMark" -17 780 mark 0
LayerCount: 2
Fore
SplineSet
-140 848 m 0
 -140 939 -63 964 -28 964 c 0
 -21 964 9 947 20 943 c 1
 26 946 41 950 56 950 c 0
 93 950 94 928 108 903 c 1
 144 916 162 1005 167 1014 c 0
 174 1026 182 1032 195 1032 c 2
 225 1030 l 1
 212 971 l 2
 188 863 149 867 93 823 c 0
 69 805 56 796 43 796 c 0
 32 796 20 805 20 820 c 1
 38 883 l 1
 36 881 33 879 33 878 c 0
 29 859 9 845 -10 845 c 1
 -10 845 -14 845 -18 846 c 1
 -18 844 -13 837 -13 823 c 0
 -13 797 -26 771 -70 771 c 0
 -84 771 -108 774 -120 784 c 0
 -134 796 -140 822 -140 848 c 0
-71 834 m 2
 -84 825 l 1
 -82 823 l 1
 -81 825 -73 832 -71 834 c 2
-47 899 m 1
 -49 898 -60 892 -67 886 c 1
 -55 886 -46 884 -39 881 c 1
 -41 888 -44 897 -47 899 c 1
EndSplineSet
Validated: 1
Substitution2: "Thai Mai Tri Tilde Reordering" tildecomb
MultipleSubs2: "Thai Tone Nikhahit Attachment" uni0E4D uni0E4A
Substitution2: "Thai Tone Low Variant" uni0E4A.low
Substitution2: "Thai Sara U Mai Tri Reordering" uni0E38
Substitution2: "Thai Sara UU Mai Tri Reordering" uni0E39
Substitution2: "Thai Phinthu Mai Tri Reordering" uni0E3A
EndChar

StartChar: uni0E4D
Encoding: 3661 3661 168
Width: 0
Flags: W
HStem: 585 86<-14 57.6131>
VStem: -54 86<640 701.08> 59 85<672.313 701.501>
AnchorPoint: "AboveMark" 70 780 basemark 0
AnchorPoint: "AboveBase" 117 560 mark 0
LayerCount: 2
Fore
SplineSet
41 671 m 0
 47 671 59 677 59 679 c 0
 59 684 48 697 36 702 c 1
 34 699 32 691 32 683 c 0
 32 674 36 671 41 671 c 0
-54 659 m 0
 -54 732 9 781 64 781 c 0
 118 781 144 735 144 698 c 0
 144 630 40 585 7 585 c 0
 -35 585 -54 621 -54 659 c 0
EndSplineSet
Validated: 1
Substitution2: "Thai Mark High Variant" uni0E4D.high
Substitution2: "Thai Sara U Nikhahit Reordering" uni0E38
Substitution2: "Thai Sara UU Nikhahit Reordering" uni0E39
Substitution2: "Thai Phinthu Nikhahit Reordering" uni0E3A
EndChar

StartChar: uni0E4E
Encoding: 3662 3662 169
Width: 0
Flags: W
HStem: 719 51<69.456 108.569>
VStem: -78 52<623.909 679.567>
AnchorPoint: "AboveMark" 80 780 basemark 0
AnchorPoint: "AboveBase" 141 560 mark 0
LayerCount: 2
Fore
SplineSet
34 604 m 0
 34 588 15 565 -1 565 c 0
 -20 565 -36 580 -45 584 c 1
 -66 590 -78 620 -78 650 c 0
 -78 658 -78 665 -76 673 c 0
 -56 746 10 723 22 741 c 0
 35 761 61 770 78 770 c 0
 99 770 105 763 109 759 c 1
 178 849 197 889 225 889 c 0
 239 889 247 882 247 870 c 0
 247 843 215 821 183 776 c 0
 152 733 128 701 109 701 c 0
 100 701 78 706 70 719 c 1
 69 719 l 1
 80 699 89 685 89 672 c 0
 89 659 71 639 58 639 c 1
 51 641 49 638 40 654 c 0
 36 662 23 681 -3 681 c 0
 -24 681 -24 673 -24 671 c 0
 -25 666 -26 661 -26 657 c 0
 -26 624 7 619 21 615 c 1
 30 615 34 610 34 604 c 0
EndSplineSet
Validated: 1
Substitution2: "Thai Mark High Variant" uni0E4E.high
EndChar

StartChar: uni0E4F
Encoding: 3663 3663 170
Width: 677
Flags: W
HStem: -2 91<289.903 439.036> 172 76<335 397.587> 329 64<387.52 436.898> 459 99<403.87 505.215>
VStem: 137 88<148.437 330.913> 283 83<248.215 307.428> 438 65<293.856 347.995> 564 89<239.477 409.799>
LayerCount: 2
Fore
SplineSet
225 221 m 0
 225 109 332 89 381 89 c 0
 417 89 439 98 451 106 c 0
 527 158 564 267 564 346 c 0
 564 399 557 402 538 412 c 0
 520 422 505 433 505 444 c 1
 500 449 479 458 455 459 c 0
 452 459 442 457 433 457 c 0
 417 457 413 465 412 472 c 1
 272 440 225 316 225 221 c 0
137 248 m 0
 137 309 158 350 195 401 c 0
 301 544 385 537 473 558 c 1
 509 558 568 513 603 476 c 0
 638 439 653 412 653 367 c 0
 653 344 649 316 642 281 c 0
 613 145 545 62 428 15 c 0
 401 4 375 -2 349 -2 c 0
 314 -2 281 8 243 27 c 0
 174 63 137 117 137 248 c 0
417 329 m 1
 393 323 366 284 366 262 c 0
 366 251 373 248 379 248 c 0
 397 248 397 292 432 295 c 0
 437 295 438 302 438 305 c 0
 438 314 431 329 417 329 c 1
503 328 m 0
 503 295 453 172 360 172 c 0
 310 172 283 214 283 252 c 0
 283 284 314 345 341 370 c 0
 351 379 373 393 413 393 c 0
 464 393 503 367 503 328 c 0
EndSplineSet
Validated: 1
EndChar

StartChar: uni0E50
Encoding: 3664 3664 171
Width: 844
Flags: W
HStem: -36 88<290.437 460.93> 435 99<433.604 685.394>
VStem: 89 97<126.736 237.712> 790 92<330.895 432>
LayerCount: 2
Fore
SplineSet
186 175 m 0
 186 94 336 52 385 52 c 0
 409 52 431 60 477 80 c 0
 626 144 790 319 790 390 c 0
 790 399 783 399 755 399 c 0
 728 399 695 407 681 422 c 0
 673 431 651 435 603 435 c 0
 437 435 422 425 364 390 c 0
 226 307 186 207 186 175 c 0
89 152 m 0
 89 205 113 303 252 416 c 0
 303 457 406 534 595 534 c 0
 652 534 715 528 779 514 c 0
 846 500 882 460 882 404 c 0
 882 282 744 165 726 147 c 0
 605 30 464 -36 337 -36 c 0
 225 -36 89 25 89 152 c 0
EndSplineSet
Validated: 1
EndChar

StartChar: uni0E51
Encoding: 3665 3665 172
Width: 640
Flags: W
HStem: 164 78<261.272 338.139> 445 90<385.694 543.868>
VStem: 133 114<255.054 328.994> 583 78<277.565 394.782>
LayerCount: 2
Fore
SplineSet
354 -66 m 0
 340 -66 324 -55 324 -37 c 0
 324 -19 341 11 392 53 c 0
 462 111 539 218 546 246 c 0
 553 272 569 278 574 280 c 1
 576 283 583 302 583 317 c 0
 583 360 548 434 523 444 c 0
 520 445 515 445 509 445 c 0
 467 445 383 426 343 409 c 1
 357 412 371 414 385 414 c 0
 427 414 473 400 473 349 c 0
 473 284 422 257 417 242 c 0
 405 202 312 164 268 164 c 0
 231 164 210 177 174 220 c 0
 152 246 133 271 133 295 c 0
 133 329 179 355 182 370 c 0
 189 403 313 497 354 508 c 0
 432 528 444 535 490 535 c 0
 533 535 604 525 624 501 c 0
 642 479 661 436 661 371 c 0
 661 252 613 190 583 147 c 0
 520 56 491 42 424 -23 c 0
 406 -40 377 -66 354 -66 c 0
286 335 m 0
 266 335 247 311 247 298 c 0
 247 278 272 242 293 242 c 0
 334 242 366 294 376 312 c 1
 342 324 305 335 286 335 c 0
EndSplineSet
Validated: 1
EndChar

StartChar: uni0E52
Encoding: 3666 3666 173
Width: 700
Flags: W
HStem: 1 93<221.141 577> 2 85<404 577> 517 20G<642.5 692>
VStem: 206 114<494 770.149> 276 96<293.5 392.964> 641 99<296.722 482>
LayerCount: 2
Fore
SplineSet
412 370 m 1x2c
 410 376 405 386 392 394 c 1
 388 393 372 381 372 373 c 0
 372 369 376 366 389 366 c 0
 397 366 407 368 412 370 c 1x2c
206 726 m 0xb4
 206 768 255 794 278 794 c 0
 312 794 320 732 320 684 c 0
 320 603 300 484 268 325 c 1
 220 94 l 1xb4
 404 91 l 1
 577 87 l 1
 610 205 l 2
 621 241 641 331 641 380 c 0
 641 400 638 416 632 426 c 1
 608 405 513 280 466 279 c 0
 465 278 462 275 460 268 c 0
 446 219 388 206 381 206 c 0
 367 206 364 215 364 225 c 0
 364 234 367 243 367 248 c 0
 367 253 362 254 339 254 c 0
 293 254 276 273 276 314 c 0
 276 331 279 351 284 376 c 0
 297 437 309 452 341 470 c 0
 359 480 377 486 395 486 c 0
 415 486 446 481 483 438 c 2
 505 413 l 1
 537 455 l 2
 580 510 620 537 665 537 c 0
 719 537 740 512 740 452 c 0
 740 402 725 328 703 224 c 2
 655 2 l 1x6c
 451 1 l 2
 238 0 175 -14 146 -14 c 0
 115 -14 113 6 113 9 c 2
 113 16 l 2
 113 99 210 529 210 663 c 0
 210 685 206 709 206 726 c 0xb4
392 394 m 1
 392 394 l 1
EndSplineSet
Validated: 1
EndChar

StartChar: uni0E53
Encoding: 3667 3667 174
Width: 662
Flags: W
HStem: -22 88<214.338 268.302> 101 96<219.438 321> 406 114<523.96 618.5>
VStem: 88 117<101.5 271.505> 582 105<199.414 404.339>
LayerCount: 2
Fore
SplineSet
269 72 m 1
 269 79 259 101 251 101 c 0
 245 101 226 86 214 74 c 1
 221 70 240 66 254 66 c 0
 262 66 268 68 269 72 c 1
372 117 m 0
 372 58 286 -22 237 -22 c 0
 217 -22 198 -16 148 21 c 0
 106 52 88 76 88 127 c 0
 88 168 100 225 119 317 c 0
 135 391 147 409 179 438 c 0
 204 461 234 477 265 477 c 0
 313 477 356 441 377 375 c 2
 382 359 l 1
 412 396 l 2
 506 512 553 520 582 520 c 0
 655 520 687 437 687 378 c 0
 687 327 674 238 659 168 c 0
 622 -7 596 -53 516 -53 c 0
 501 -53 497 -48 497 -40 c 0
 497 7 582 163 582 311 c 0
 582 368 570 406 556 406 c 0
 547 406 528 396 490 341 c 0
 439 267 374 203 346 199 c 0
 345 199 344 187 340 187 c 0
 336 187 335 199 330 204 c 0
 321 213 315 233 312 249 c 0
 300 310 254 382 246 382 c 1
 225 373 205 224 205 186 c 0
 205 181 205 178 206 176 c 1
 217 178 259 197 293 197 c 0
 349 197 372 153 372 117 c 0
EndSplineSet
Validated: 1
EndChar

StartChar: uni0E54
Encoding: 3668 3668 175
Width: 715
Flags: W
HStem: 30 150<516.358 593.434> 350 101<627.317 683.973> 362 66<382.364 476.821> 440 103<336.173 506.801>
VStem: 109 105<113.178 304.101> 289 101<243.611 330.332> 289 92<253.335 346> 341 326<74 168> 479 88<284.737 359.915>
LayerCount: 2
Fore
SplineSet
667 85 m 0xb9
 667 63 649 30 601 30 c 0
 546 30 479 70 473 74 c 2
 428 100 l 1
 381 62 l 2
 318 12 281 -20 249 -20 c 0
 216 -20 109 49 109 190 c 0
 109 238 119 268 129 299 c 0
 166 406 218 467 307 509 c 0
 360 534 407 543 447 543 c 0xba
 573 543 640 451 660 451 c 0
 686 451 817 678 825 716 c 0
 832 751 852 755 857 756 c 1
 860 761 860 770 868 781 c 0
 878 795 903 808 920 808 c 0
 932 808 936 802 936 793 c 0
 936 759 870 597 839 567 c 0
 834 562 827 546 824 532 c 0
 815 488 736 350 633 350 c 0xca
 605 350 557 361 509 418 c 0
 495 435 477 440 428 440 c 2
 419 440 l 2
 343 440 339 440 292 395 c 0
 246 351 242 339 227 267 c 0
 219 229 214 204 214 182 c 0
 214 129 259 81 259 81 c 1
 273 90 337 134 341 154 c 1x99
 341 182 289 218 289 256 c 0
 289 293 336 428 433 428 c 0
 493 428 567 368 567 305 c 0xbc80
 567 249 508 219 502 215 c 1
 514 202 537 182 543 180 c 0
 648 143 667 107 667 85 c 0xb9
479 324 m 0xac80
 479 362 458 362 444 362 c 0
 393 362 381 353 381 339 c 0xaa80
 381 326 391 309 391 290 c 0
 391 283 390 280 390 278 c 0
 390 266 404 246 410 242 c 1
 411 243 479 292 479 324 c 0xac80
EndSplineSet
Validated: 1
EndChar

StartChar: uni0E55
Encoding: 3669 3669 176
Width: 810
Flags: W
HStem: -19 21G<281.5 316> 47 160<513.913 663.41> 256 88<443.456 559.568> 423 96<320.954 473>
VStem: 126 104<116.501 280.918> 322 100<207.389 258.872> 567 113<595.151 657.317> 677 110<476.832 520.895>
LayerCount: 2
Fore
SplineSet
693 660 m 1xfe
 691 656 680 634 680 617 c 0
 680 599 691 595 704 595 c 1
 704 634 696 655 693 660 c 1xfe
567 610 m 0
 567 670 694 746 743 746 c 0
 780 746 812 694 815 653 c 0
 816 644 817 639 820 639 c 0
 834 639 994 786 1058 786 c 0
 1068 786 1082 781 1082 763 c 0
 1082 760 1082 757 1081 753 c 0
 1072 713 917 594 843 554 c 0
 808 535 790 520 786 515 c 1
 787 514 787 512 787 510 c 0
 787 489 740 420 705 395 c 0
 698 390 680 368 672 347 c 0
 648 289 567 256 494 256 c 0
 467 256 446 260 433 260 c 0
 426 260 422 259 422 253 c 0
 422 241 425 200 473 200 c 0
 499 200 528 207 568 207 c 0
 685 207 727 136 727 99 c 0
 727 78 712 47 639 47 c 0
 550 47 473 86 452 89 c 1
 392 53 344 -19 288 -19 c 0
 275 -19 262 -16 227 -5 c 0
 171 13 126 93 126 181 c 0
 126 285 205 426 258 468 c 0
 300 502 357 519 419 519 c 0
 527 519 600 473 643 473 c 0
 666 473 677 506 677 513 c 0xfd
 677 523 624 532 587 572 c 0
 575 585 567 596 567 610 c 0
560 362 m 1
 557 364 508 384 508 384 c 1
 501 384 485 376 469 361 c 2
 453 347 l 1
 472 345 l 2
 476 344 481 344 489 344 c 0
 530 344 554 357 560 362 c 1
322 253 m 0
 322 355 395 406 411 419 c 1
 406 421 398 423 387 423 c 0
 370 423 346 418 321 402 c 0
 282 378 278 373 252 282 c 1
 241 239 230 213 230 186 c 0
 230 163 259 84 280 82 c 1
 293 84 354 117 354 135 c 0
 354 157 322 192 322 253 c 0
EndSplineSet
Validated: 1
EndChar

StartChar: uni0E56
Encoding: 3670 3670 177
Width: 757
Flags: W
HStem: -36 105<470 523.375> 192 90<433.793 490.818> 260 407<217 342> 458 86<569.596 693.932>
VStem: 491 105<169.329 220> 701 103<316.203 451.807>
LayerCount: 2
Fore
SplineSet
453 192 m 0xcc
 431 192 417 185 417 174 c 0
 417 167 426 164 438 164 c 0
 456 164 491 172 491 182 c 0
 491 190 460 192 453 192 c 0xcc
143 585 m 0
 143 644 197 667 217 667 c 0xac
 259 667 370 497 380 445 c 2
 386 414 l 1
 441 450 l 1
 549 522 601 544 667 544 c 0
 716 544 735 538 767 493 c 0
 789 462 804 433 804 398 c 0
 804 361 787 323 779 306 c 2
 722 187 l 2
 664 67 534 -36 450 -36 c 0
 423 -36 390 -21 347 38 c 2
 300 102 l 1
 343 168 l 2
 373 214 442 282 488 282 c 0
 502 282 519 276 535 270 c 0
 557 262 596 245 596 195 c 0
 596 188 595 179 593 170 c 0
 573 74 473 70 470 69 c 1
 477 69 l 2
 605 69 701 311 701 404 c 0
 701 445 681 458 652 458 c 0xdc
 638 458 621 456 600 450 c 0
 552 437 429 345 396 300 c 0
 375 271 357 260 342 260 c 0xac
 311 260 292 309 279 353 c 0
 254 443 190 544 170 546 c 0
 148 548 143 568 143 585 c 0
EndSplineSet
Validated: 1
EndChar

StartChar: uni0E57
Encoding: 3671 3671 178
Width: 1002
Flags: W
HStem: -22 79<167.5 266.817> 11 105<512.33 573.975> 375 115<271.097 401.555> 546 20G<662.5 684>
VStem: 293 97<115.271 215.5> 446 121<211.905 327.292> 675 111<290.663 439.334> 1041 104<703.198 866.968>
LayerCount: 2
Fore
SplineSet
231 57 m 0xbf
 256 57 293 100 293 139 c 0
 293 155 286 162 277 164 c 1
 261 164 268 119 222 95 c 0
 213 90 208 84 208 76 c 0
 208 67 214 57 231 57 c 0xbf
314 277 m 0
 363 277 390 230 390 201 c 0
 390 159 341 44 334 33 c 0
 312 -4 246 -22 203 -22 c 0xbf
 132 -22 100 25 100 78 c 0
 100 118 114 134 119 159 c 0
 143 274 90 365 238 458 c 0
 277 483 301 490 338 490 c 0
 484 490 479 446 497 446 c 0
 517 446 648 566 677 566 c 1
 691 565 715 550 737 535 c 0
 772 511 786 467 786 416 c 0
 786 356 774 331 749 232 c 1
 784 263 861 351 889 394 c 0
 941 476 1006 635 1027 732 c 0
 1034 763 1036 792 1041 816 c 0
 1055 884 1094 892 1104 892 c 0
 1132 892 1145 838 1145 787 c 0
 1145 756 1141 723 1110 634 c 0
 1048 456 1013 386 933 281 c 0
 830 146 630 11 542 11 c 0
 516 11 487 29 487 54 c 0
 487 66 494 90 547 116 c 1x7f
 613 152 666 280 671 304 c 0
 674 317 675 333 675 349 c 0
 675 386 669 426 664 440 c 1
 653 432 582 375 567 309 c 0
 562 289 555 172 504 172 c 0
 459 172 447 243 446 263 c 0
 445 319 395 375 360 375 c 0
 277 375 266 362 255 311 c 2
 246 267 l 1
 283 274 l 2
 294 276 305 277 314 277 c 0
EndSplineSet
Validated: 1
EndChar

StartChar: uni0E58
Encoding: 3672 3672 179
Width: 919
Flags: W
HStem: 214 81<462.869 543.301> 416 116<420.868 557.846>
VStem: 105 126<99.044 257.968> 534 94<100.138 170.967>
LayerCount: 2
Fore
SplineSet
628 186 m 0
 628 110 543 -39 479 -39 c 0
 455 -39 384 63 357 80 c 1
 334 60 293 -47 246 -47 c 0
 227 -47 212 -35 169 18 c 1
 127 72 105 116 105 165 c 0
 105 220 135 277 148 302 c 0
 185 372 310 483 351 483 c 0
 389 483 429 532 512 532 c 0
 642 532 674 413 707 391 c 1
 722 439 945 709 980 722 c 0
 988 725 997 727 1005 727 c 0
 1023 727 1037 718 1037 696 c 0
 1037 663 1009 624 981 600 c 0
 920 547 766 269 677 269 c 0
 658 269 610 336 602 347 c 0
 560 400 542 416 498 416 c 0
 479 416 456 413 423 408 c 0
 390 403 352 383 310 351 c 2
 250 305 l 1
 237 219 l 2
 233 192 231 170 231 152 c 0
 231 116 239 98 250 98 c 0
 263 98 283 123 284 126 c 0
 291 152 315 165 404 241 c 0
 445 276 487 295 523 295 c 0
 596 295 628 220 628 186 c 0
534 132 m 0
 534 157 548 166 559 173 c 1
 554 184 529 214 501 214 c 0
 475 214 445 176 445 162 c 0
 445 147 485 149 485 125 c 0
 485 120 485 122 482 108 c 1
 482 88 497 87 497 87 c 1
 510 87 535 111 535 124 c 0
 535 126 534 127 534 132 c 0
EndSplineSet
Validated: 1
EndChar

StartChar: uni0E59
Encoding: 3673 3673 180
Width: 984
Flags: W
HStem: -25 69<216.844 300.288> 98 91<220.849 368> 331 128<798.446 849.823> 383 95<243.446 363.042> 423 107<631.954 737.5>
VStem: 88 108<81.3857 312.584> 539 113<55.0905 220.737>
LayerCount: 2
Fore
SplineSet
288 98 m 0xc6
 244 98 216 91 216 55 c 0
 216 46 220 44 228 44 c 0
 247 44 314 59 323 91 c 1
 318 96 304 98 288 98 c 0xc6
652 112 m 0
 652 27 621 9 600 9 c 0
 567 9 539 106 539 153 c 0
 539 158 539 162 540 166 c 0
 540 168 535 196 503 246 c 0
 451 325 346 383 281 383 c 0
 261 383 256 380 247 375 c 1
 225 354 196 255 196 206 c 0
 196 186 200 174 209 174 c 0
 221 174 301 189 335 189 c 0
 401 189 417 143 417 110 c 0
 417 63 380 27 363 13 c 0
 326 -19 304 -25 234 -25 c 0
 160 -25 144 -17 116 18 c 0
 96 43 88 65 88 115 c 0
 88 188 98 262 106 298 c 0
 138 449 217 478 310 478 c 0xd6
 451 478 493 429 513 419 c 1
 530 472 664 530 714 530 c 0xce
 761 530 808 459 834 459 c 0
 840 459 847 473 856 492 c 0
 887 560 1013 777 1055 812 c 0
 1067 822 1086 832 1104 832 c 0
 1124 832 1133 819 1133 800 c 0
 1133 757 1114 765 1016 587 c 0
 923 419 873 331 814 331 c 0xe6
 757 331 704 423 667 423 c 0xce
 651 423 620 402 618 392 c 0
 617 389 617 385 617 381 c 0
 617 334 652 205 652 112 c 0
EndSplineSet
Validated: 1
EndChar

StartChar: uni0E5A
Encoding: 3674 3674 181
Width: 632
Flags: W
HStem: -17 21G<493 536> 313 62<210.979 284.356> 473 69<208.154 283.26>
LayerCount: 2
Fore
SplineSet
456 543 m 0
 467 543 487 537 487 500 c 0
 487 434 451 223 428 116 c 0
 403 -2 395 -29 359 -29 c 0
 341 -29 333 -20 333 4 c 0
 333 54 366 173 405 423 c 1
 362 385 300 313 222 313 c 0
 177 313 131 330 131 393 c 0
 131 475 203 526 214 532 c 0
 226 539 244 542 261 542 c 0
 303 542 324 528 350 490 c 2
 362 473 l 1
 384 497 l 2
 414 529 438 543 456 543 c 0
612 406 m 0
 559 153 569 -17 503 -17 c 0
 483 -17 475 -7 475 23 c 0
 475 71 526 385 535 429 c 0
 547 485 560 524 576 533 c 0
 588 540 598 543 606 543 c 0
 622 543 628 529 628 506 c 0
 628 481 620 445 612 406 c 0
305 410 m 1
 303 426 281 473 240 473 c 0
 220 473 200 443 197 431 c 1
 222 425 195 395 225 381 c 0
 227 380 233 375 240 375 c 0
 251 375 291 400 305 410 c 1
EndSplineSet
Validated: 1
EndChar

StartChar: uni0E5B
Encoding: 3675 3675 182
Width: 874
Flags: W
HStem: -79 85<156.5 265.708> 402 94<255.155 314.2> 452 92<783.351 892.125>
VStem: 104 81<19.6674 284.685> 309 82<329.298 401.828>
LayerCount: 2
Fore
SplineSet
909 510 m 0xb8
 909 472 866 452 829 452 c 0xb8
 798 452 742 428 728 415 c 0
 695 384 664 261 569 261 c 0
 550 261 513 84 440 84 c 0
 424 84 411 93 403 97 c 1
 375 49 320 -79 191 -79 c 0
 122 -79 104 20 104 113 c 0
 104 297 150 371 200 428 c 0
 232 464 270 496 307 496 c 0
 354 496 391 434 391 382 c 0
 391 327 349 316 339 316 c 0
 322 316 309 330 309 357 c 0
 309 379 315 384 315 401 c 1
 312 402 308 402 298 402 c 0xd8
 287 402 268 400 260 396 c 1
 245 383 209 312 193 238 c 0
 187 213 185 179 185 146 c 0
 185 95 191 45 199 23 c 0
 203 14 216 6 231 6 c 0
 238 6 250 8 256 15 c 0
 330 90 324 76 357 219 c 0
 374 295 387 388 438 388 c 0
 457 388 463 370 463 345 c 0
 463 299 442 228 442 194 c 0
 442 186 443 181 446 178 c 1
 448 180 454 186 455 191 c 0
 463 229 483 217 493 264 c 0
 509 343 504 447 561 447 c 0
 607 447 587 383 597 347 c 1
 614 364 652 414 667 450 c 0
 678 478 702 490 746 508 c 0
 781 523 846 544 874 544 c 0
 904 544 909 524 909 510 c 0xb8
EndSplineSet
Validated: 1
EndChar

StartChar: endash
Encoding: 8211 8211 184
Width: 587
Flags: W
HStem: 231 63<101.663 306.201> 248 72<422.783 601.068>
LayerCount: 2
Fore
SplineSet
608 289 m 0x40
 608 264 580 248 542 248 c 0x40
 522 248 504 252 493 252 c 2
 493 252 265 243 213 239 c 0
 197 238 172 231 149 231 c 0
 119 231 96 242 96 278 c 2
 96 294 l 1
 112 294 l 2x80
 208 294 270 311 308 311 c 0
 343 311 389 306 421 306 c 0
 459 306 500 320 550 320 c 0
 596 320 608 303 608 289 c 0x40
EndSplineSet
Validated: 1
EndChar

StartChar: emdash
Encoding: 8212 8212 185
Width: 706
Flags: W
HStem: 261 63<92.8419 297.286> 269 55<147.115 310.518 314.429 646.646> 271 71<147.115 511.756 515.016 707.609>
LayerCount: 2
Fore
SplineSet
713 308 m 0x40
 713 289 688 267 641 267 c 0
 620 267 598 271 585 271 c 0x20
 577 271 538 269 507 269 c 0x40
 444 269 367 271 303 271 c 0x20
 179 271 191 261 145 261 c 0x80
 114 261 87 272 85 308 c 1
 85 324 l 1x40
 102 324 l 2x80
 210 324 281 342 312 342 c 0x20
 363 342 467 324 514 324 c 0
 535 324 599 339 649 339 c 0
 701 339 713 322 713 308 c 0x40
EndSplineSet
Validated: 1
EndChar

StartChar: quoteleft
Encoding: 8216 8216 186
Width: 322
Flags: W
HStem: 470 266
VStem: 211 132<585.679 664.87>
LayerCount: 2
Fore
SplineSet
211 675 m 0
 211 720 242 736 263 736 c 0
 321 736 343 597 343 518 c 0
 343 505 342 493 341 484 c 1
 301 470 l 1
 268 500 211 610 211 675 c 0
EndSplineSet
Validated: 1
EndChar

StartChar: quoteright
Encoding: 8217 8217 187
Width: 315
Flags: W
HStem: 481 231
VStem: 196 201
LayerCount: 2
Fore
SplineSet
196 510 m 0
 196 569 308 712 365 712 c 0
 390 712 397 695 397 679 c 0
 397 618 283 481 224 481 c 0
 209 481 196 489 196 510 c 0
EndSplineSet
Validated: 1
EndChar

StartChar: quotedblleft
Encoding: 8220 8220 188
Width: 349
Flags: W
HStem: 471 308
VStem: 187 141<537.543 634.521> 311 123<557.738 673.037>
LayerCount: 2
Fore
SplineSet
187 630 m 0xc0
 187 688 217 705 237 705 c 0
 285 705 328 606 328 540 c 0
 328 487 297 471 276 471 c 0
 231 471 187 561 187 630 c 0xc0
434 572 m 0xa0
 434 517 397 509 382 509 c 0
 326 509 311 628 311 710 c 0
 311 732 312 752 314 766 c 1
 356 779 l 1
 387 745 434 639 434 572 c 0xa0
EndSplineSet
Validated: 1
EndChar

StartChar: quotedblright
Encoding: 8221 8221 189
Width: 398
Flags: W
HStem: 460 297<311 365> 525 21G<224 261>
VStem: 199 304
LayerCount: 2
Fore
SplineSet
399 727 m 0xa0
 399 669 291 525 231 525 c 0x60
 217 525 199 534 199 559 c 0
 199 620 311 757 369 757 c 0
 392 757 399 743 399 727 c 0xa0
302 460 m 0xa0
 280 460 270 478 270 495 c 0
 270 549 404 675 477 720 c 1
 503 694 l 1
 483 641 365 460 302 460 c 0xa0
EndSplineSet
Validated: 1
EndChar

StartChar: bullet
Encoding: 8226 8226 190
Width: 674
Flags: W
HStem: 149 293<319.142 472.229>
VStem: 246 298<216.48 368.304>
LayerCount: 2
Fore
SplineSet
246 294 m 0
 246 399 334 442 400 442 c 0
 490 442 544 363 544 287 c 0
 544 219 501 149 392 149 c 0
 295 149 246 222 246 294 c 0
EndSplineSet
Validated: 1
EndChar

StartChar: ellipsis
Encoding: 8230 8230 191
Width: 632
Flags: W
HStem: -10 129<433.141 491.875> 1 129<140.005 200.299 288.88 348.417>
VStem: 121 127<54.5351 111.965> 264 128<50.1605 104.62> 413 127<44.2831 98.3266>
LayerCount: 2
Fore
SplineSet
121 50 m 0x78
 121 92 145 130 182 130 c 0
 210 130 239 102 248 94 c 1
 231 58 198 1 156 1 c 0
 129 1 121 26 121 50 c 0x78
413 38 m 0
 413 80 438 119 474 119 c 0
 489 119 500 115 540 82 c 1
 508 16 474 -10 449 -10 c 0xb8
 428 -10 413 9 413 38 c 0
264 43 m 0
 264 85 289 124 325 124 c 0
 353 124 382 96 392 88 c 1
 360 22 325 -5 300 -5 c 0
 279 -5 264 14 264 43 c 0
EndSplineSet
Validated: 1
LCarets2: 2 0 0 
Ligature2: "'liga' Standard Ligatures lookup 2 subtable" period period period
EndChar

StartChar: uniF000
Encoding: 61440 61440 192
Width: 768
Flags: W
HStem: 271 54<384.631 465.273> 429 77<318.059 354.965 381.312 436.978 520.606 573.749> 514 45<294.053 354.46> 544 44<445.984 475.283 582.519 639.852> 838 44<491.6 679.37>
VStem: 139 51<177 332.614> 184 59<613.583 710.352> 208 50<154.435 195> 222 60<264.847 506.566> 609 50<241.793 493.971> 679 45<236.081 501.907> 784 51<405.471 719.868>
DStem2: 688 130 733 114 0.282569 0.959247<-67.293 398.049>
LayerCount: 2
Fore
SplineSet
475 835 m 0xc870
 475 882 599 882 601 882 c 0
 634 882 669 879 683 873 c 0
 721 857 769 820 789 787 c 0
 809 753 835 643 835 583 c 0
 835 553 822 433 807 362 c 0
 796 312 746 177 733 114 c 2
 731 104 l 1
 718 56 693 46 687 46 c 0
 683 46 668 49 668 65 c 0
 668 81 676 80 688 130 c 1
 699 182 710 159 753 360 c 0
 777 472 784 541 784 586 c 0
 784 655 767 672 764 711 c 1
 756 774 667 838 613 838 c 0
 522 838 510 819 490 819 c 0
 480 819 475 826 475 835 c 0xc870
395 840 m 0
 408 840 416 833 416 823 c 0
 416 806 400 797 391 795 c 1
 385 784 374 789 328 755 c 1
 294 733 287 726 280 726 c 1
 279 730 269 733 269 743 c 0
 269 759 300 805 323 806 c 1
 330 808 364 840 395 840 c 0
184 663 m 0xea70
 184 704 225 727 232 727 c 0
 236 727 236 723 236 723 c 1
 260 721 l 1
 260 720 l 2
 260 718 259 716 259 714 c 0
 255 697 243 698 243 682 c 0
 243 655 263 584 327 559 c 0
 351 550 355 540 355 534 c 0
 355 533 355 532 355 531 c 0
 349 520 351 514 321 514 c 0
 219 514 184 617 184 663 c 0xea70
476 570 m 0
 476 560 464 544 438 544 c 0
 396 544 388 603 379 610 c 1
 369 621 366 641 366 658 c 0
 366 708 383 717 394 717 c 0
 400 717 405 714 409 710 c 0
 420 697 441 598 461 588 c 0xd870
 466 585 476 580 476 570 c 0
641 561 m 0
 641 559 638 539 607 539 c 0
 513 539 495 636 495 659 c 0
 495 674 508 688 524 688 c 0
 559 688 549 612 617 583 c 0
 633 576 641 569 641 561 c 0
208 214 m 0xc970
 208 236 212 264 231 264 c 2
 232 264 l 1
 224 282 222 305 222 327 c 0
 222 353 225 377 225 385 c 2
 225 396 l 2
 225 424 229 468 234 491 c 0
 237 506 244 521 261 521 c 0
 268 521 279 515 282 507 c 0
 285 498 286 473 286 443 c 0
 286 378 282 345 282 334 c 0xc8f0
 282 303 303 229 315 218 c 0
 318 215 327 205 328 196 c 1
 339 187 393 163 410 163 c 0
 435 163 536 248 565 248 c 0
 575 248 585 241 585 231 c 0
 585 217 570 201 503 159 c 2
 428 111 l 1
 391 113 l 1
 315 120 278 159 258 195 c 1
 258 180 253 147 231 147 c 1
 226 148 224 147 219 154 c 0
 213 163 208 190 208 214 c 0xc970
582 463 m 0
 582 450 568 432 544 432 c 0
 517 432 528 461 503 461 c 1
 481 459 477 443 457 443 c 1
 448 447 443 452 443 458 c 0
 443 473 472 500 483 506 c 0
 489 509 497 510 517 512 c 1
 556 510 582 484 582 463 c 0
174 472 m 0
 174 487 196 506 210 506 c 0
 221 506 224 498 224 492 c 2
 224 492 218 382 201 271 c 0
 194 226 190 198 190 177 c 1
 230 85 l 1
 228 82 224 65 201 65 c 1
 187 66 175 74 145 114 c 1
 141 121 139 135 139 153 c 0xcc70
 139 236 177 408 177 455 c 0
 177 465 174 468 174 472 c 0
442 467 m 0
 442 445 426 429 410 429 c 0
 386 429 386 453 374 456 c 1
 342 452 325 427 305 427 c 0
 299 427 286 430 286 441 c 0
 286 463 329 506 386 506 c 1
 427 504 442 486 442 467 c 0
723 449 m 2
 723 436 724 410 724 385 c 0
 724 347 721 319 709 264 c 0
 703 238 699 210 679 210 c 0
 668 210 664 218 664 232 c 0
 664 260 679 310 679 365 c 0
 679 397 674 407 674 435 c 0
 674 470 680 502 703 502 c 0
 721 502 723 489 723 466 c 2
 723 449 l 2
659 420 m 0
 659 188 593 58 550 58 c 0
 538 58 529 65 529 76 c 0
 529 86 537 95 543 100 c 0
 550 106 578 152 590 208 c 0
 608 295 599 411 609 458 c 0
 615 486 630 496 638 496 c 0
 650 496 659 485 659 420 c 0
347 314 m 0
 347 324 352 349 374 349 c 0
 396 349 400 325 413 325 c 0
 424 325 462 345 485 348 c 1
 533 351 l 1
 491 315 l 1
 466 289 436 271 406 271 c 0
 374 271 347 288 347 314 c 0
EndSplineSet
Validated: 1
LCarets2: 1 0 
EndChar

StartChar: uniF001
Encoding: 61441 61441 193
Width: 549
Flags: W
HStem: 672 48<237.109 321.301> 760 58<483.237 511>
VStem: 179 61<417.828 463.717> 212 55<185.838 310.306>
DStem2: 349 645 394 614 0.762509 0.646977<0 91.463>
LayerCount: 2
Fore
SplineSet
530 818 m 1xc0
 549 816 586 798 586 776 c 0
 586 754 527 720 515 718 c 1
 506 715 508 705 481 705 c 0
 473 705 415 706 415 739 c 0
 415 751 424 768 434 771 c 1
 452 779 497 818 530 818 c 1xc0
393 764 m 0
 393 718 297 672 255 672 c 0
 238 672 219 678 219 695 c 0
 219 704 225 716 242 741 c 0
 268 778 280 785 309 793 c 0
 323 797 335 799 345 799 c 0
 377 799 393 783 393 764 c 0
228 543 m 1
 227 547 226 550 226 553 c 0
 226 565 235 573 242 575 c 1
 241 579 240 582 240 585 c 0
 240 605 261 623 263 634 c 0
 273 671 298 676 309 676 c 0
 337 676 347 650 349 645 c 1
 360 655 l 2
 375 668 401 690 428 695 c 1
 429 693 440 683 440 681 c 2
 437 669 l 2
 435 658 420 638 394 614 c 1
 361 586 l 1
 349 529 l 2
 347 520 347 512 345 503 c 0
 332 444 317 439 301 405 c 0
 288 379 254 354 227 354 c 0
 218 354 210 357 203 363 c 0
 184 380 179 395 179 451 c 2xe0
 180 510 l 1
 228 543 l 1
212 253 m 0xd0
 212 282 214 312 244 312 c 0
 249 312 261 309 267 300 c 1
 275 280 273 203 282 184 c 1
 296 191 332 224 344 244 c 0
 368 281 382 283 389 283 c 0
 398 283 412 279 412 262 c 0
 412 219 317 122 265 122 c 0
 222 122 212 170 212 253 c 0xd0
483 756 m 1
 486 754 487 752 488 749 c 1
 494 751 504 755 511 760 c 1
 504 760 l 2
 496 760 488 758 483 756 c 1
324 743 m 1
 305 739 286 728 278 721 c 1
 280 720 281 720 283 720 c 0
 296 720 321 741 324 743 c 1
466 476 m 0
 466 475 466 474 467 473 c 1
 469 476 469 478 470 481 c 1
 469 479 467 477 466 476 c 0
485 601 m 1
 485 602 485 604 484 606 c 1
 484 604 l 2
 484 602 484 601 485 601 c 1
453 395 m 0
 424 395 405 435 405 461 c 0
 405 470 407 481 410 496 c 0
 420 542 424 547 441 559 c 1
 438 565 424 577 424 599 c 0
 424 635 460 680 498 680 c 1
 533 677 535 656 541 643 c 1
 542 645 542 654 568 679 c 2
 613 722 l 1
 608 672 l 1
 604 653 591 626 555 582 c 1
 535 555 565 568 508 433 c 0
 502 420 478 395 453 395 c 0
282 484 m 1
 264 466 246 466 242 464 c 1
 240 458 240 449 240 440 c 0xe0
 240 431 240 423 242 417 c 1
 252 428 264 446 274 454 c 1
 276 460 278 471 282 484 c 1
EndSplineSet
Validated: 1
EndChar

StartChar: uniF002
Encoding: 61442 61442 194
Width: 832
Flags: W
HStem: 432 69<189.684 255.966> 513 70<178.175 273.825>
VStem: 298 61<309.101 636.183> 408 150<534 654> 490 60<207.491 331.291>
DStem2: 437 432 508 462 0.344453 0.938804<-139.547 52.6203 133.27 147.33> 614 312 712 425 0.324813 0.945778<-75.5636 138.705 161.164 162.617>
LayerCount: 2
Fore
SplineSet
383 654 m 1xf0
 368 628 359 550 359 459 c 0
 359 390 364 326 373 306 c 1
 385 319 409 359 437 432 c 2
 479 544 l 2
 483 554 485 563 488 571 c 1
 478 562 465 556 455 523 c 1
 461 516 l 1
 458 513 429 437 393 432 c 1
 385 432 373 437 373 453 c 0
 373 482 408 505 408 563 c 0
 408 602 393 639 383 654 c 1xf0
729 417 m 0
 724 417 715 418 712 425 c 1
 678 326 606 137 529 137 c 0
 507 137 512 161 504 171 c 0
 493 186 490 203 490 225 c 0xe8
 490 255 496 292 496 334 c 0
 496 378 501 424 508 462 c 1
 483 394 452 322 434 298 c 1
 419 280 388 247 363 247 c 0
 311 247 298 335 298 452 c 2
 298 493 l 2
 298 534 317 637 329 669 c 1
 341 698 381 707 387 707 c 0
 402 707 449 674 449 655 c 1
 450 652 458 643 464 624 c 1
 474 638 508 684 530 684 c 1
 540 683 558 673 558 635 c 0
 558 607 550 580 535 538 c 1
 538 543 542 547 543 553 c 0
 554 586 584 589 593 589 c 0
 617 589 648 563 648 533 c 0
 648 531 648 520 649 519 c 1
 663 532 l 1
 671 552 702 572 723 572 c 0
 736 572 746 564 746 544 c 0
 746 524 730 475 720 446 c 1
 743 471 839 511 850 511 c 0
 855 511 871 507 871 492 c 0
 871 482 862 471 861 469 c 0
 845 452 744 417 729 417 c 0
259 513 m 0
 204 513 160 540 160 555 c 0
 160 561 165 579 210 583 c 0
 218 583 291 568 291 538 c 0
 291 528 280 513 259 513 c 0
160 447 m 0
 160 468 218 501 251 501 c 0
 268 501 282 492 282 481 c 0
 282 452 196 432 181 432 c 0
 175 432 160 437 160 447 c 0
717 336 m 0
 717 362 790 408 830 408 c 0
 842 408 848 401 848 392 c 0
 848 363 751 322 732 322 c 0
 731 322 717 324 717 336 c 0
606 485 m 1
 598 486 596 492 596 499 c 0
 596 502 597 505 597 508 c 0
 597 515 596 522 590 528 c 1
 574 505 563 454 556 380 c 1
 584 427 607 446 607 475 c 0
 607 478 607 481 606 485 c 1
670 466 m 1
 658 453 654 426 640 419 c 1
 633 410 598 330 563 330 c 0
 559 330 557 330 553 332 c 1
 551 301 550 271 550 247 c 0
 550 230 551 216 552 207 c 1
 564 222 582 248 590 265 c 1
 604 301 608 284 614 312 c 0
 620 342 654 417 670 466 c 1
EndSplineSet
Validated: 1
EndChar

StartChar: uniF003
Encoding: 61443 61443 195
Width: 727
Flags: W
HStem: 337 57<304.377 382 435.188 582.359> 549 21G<407.5 434.5> 561 147<549.579 603.622>
VStem: 176 57<187.455 218.943> 235 56<406.379 556.247> 247 94<195 239> 467 81<209.5 249.465> 542 175<589 652> 562 60<216.423 253>
LayerCount: 2
Fore
SplineSet
291 237 m 1x98
 297 243 306 250 321 250 c 0
 331 250 341 245 341 233 c 0x94
 341 215 304 186 301 181 c 1
 293 160 250 126 220 126 c 0
 186 126 176 156 176 189 c 0
 176 231 186 296 228 296 c 1
 259 292 278 250 291 237 c 1x98
548 238 m 0x9280
 548 237 559 237 559 224 c 2
 559 219 l 2
 559 218 559 217 560 216 c 1
 561 225 562 235 562 244 c 2
 562 253 l 1
 556 248 548 240 548 238 c 0x9280
237 186 m 1
 244 190 247 193 247 197 c 0x94
 247 203 242 210 233 220 c 1
 233 215 l 2
 233 206 235 193 237 186 c 1
622 265 m 0x9280
 622 227 600 156 567 156 c 0
 544 156 508 180 499 194 c 0
 495 200 490 201 490 201 c 1
 477 201 467 204 467 215 c 0
 467 231 489 251 533 293 c 0
 552 311 570 318 585 318 c 0
 608 318 622 299 622 265 c 0x9280
426 235 m 2
 416 140 426 79 381 79 c 0
 363 79 356 96 356 125 c 0
 356 173 374 253 382 336 c 1
 328 343 269 324 237 422 c 0
 236 426 235 431 235 438 c 0
 235 481 262 598 280 631 c 0
 301 672 333 701 359 701 c 0
 384 701 410 673 425 631 c 1
 430 619 l 1
 514 705 547 708 572 708 c 0
 609 708 611 686 611 668 c 2
 611 660 l 1
 632 677 661 708 685 708 c 0
 699 708 717 699 717 652 c 0xb9
 717 633 714 607 707 574 c 1
 707 574 661 413 645 386 c 0
 629 358 620 372 596 351 c 0
 583 340 562 337 539 337 c 0
 526 337 512 338 499 338 c 0
 477 338 458 336 447 326 c 2
 435 316 l 1
 426 235 l 2
345 639 m 1
 323 606 291 494 291 441 c 2
 291 434 l 1
 303 428 303 414 304 406 c 1
 311 398 385 394 455 394 c 0
 514 394 570 396 583 402 c 1
 584 403 l 1
 587 417 596 418 601 420 c 1
 659 595 656 615 658 637 c 1
 633 612 592 561 561 561 c 0xb9
 547 561 542 570 542 589 c 0
 542 604 545 624 549 651 c 1
 493 624 450 549 419 549 c 0xd9
 396 549 360 621 345 639 c 1
EndSplineSet
Validated: 1
EndChar

StartChar: uniF004
Encoding: 61444 61444 196
Width: 1074
Flags: W
HStem: 239 52<881.371 903.597> 348 56<751.189 857.563> 357 55<963.252 1044.53>
VStem: 904 61<291.795 319.859>
DStem2: 572 316 526 274 0.590443 -0.80708<-6.54109 139.366>
LayerCount: 2
Fore
SplineSet
295 336 m 1x90
 397 351 536 357 539 371 c 1
 549 398 603 471 621 524 c 1
 515 482 420 405 343 363 c 0
 327 355 309 344 295 336 c 1x90
721 100 m 0
 719 92 712 74 694 74 c 0
 673 74 666 88 618 97 c 1
 565 110 574 119 500 123 c 1
 401 131 402 144 266 182 c 0
 174 208 130 236 130 271 c 0
 130 295 152 318 167 320 c 1
 183 325 300 400 327 414 c 0
 348 425 533 553 597 572 c 0
 620 578 629 597 672 597 c 1
 702 599 l 1
 686 539 l 2
 665 464 602 382 597 359 c 0
 593 342 575 320 572 316 c 1
 616 257 l 2
 684 166 699 135 711 126 c 0
 713 124 725 118 721 100 c 0
880 291 m 1
 882 291 884 291 886 291 c 0
 902 291 904 298 904 300 c 0
 904 309 903 316 902 320 c 1
 896 317 885 305 880 291 c 1
1104 361 m 0
 1104 342 1091 324 1071 324 c 0
 1047 324 1033 353 1018 357 c 1xb0
 997 357 968 350 963 349 c 1
 964 341 965 328 965 318 c 0
 965 283 925 239 885 239 c 1
 846 241 816 268 816 283 c 0
 816 302 850 338 858 347 c 1
 855 348 849 348 838 348 c 0
 795 348 725 322 707 306 c 0
 697 297 683 289 669 289 c 0
 656 289 650 296 653 309 c 0
 664 361 795 404 851 404 c 0xd0
 878 404 902 390 916 390 c 0
 935 390 977 412 1014 412 c 0xb0
 1068 412 1104 392 1104 361 c 0
220 266 m 1
 258 246 371 221 419 198 c 0
 432 192 486 181 520 181 c 0
 550 181 581 172 603 166 c 1
 526 274 l 2
 508 298 505 300 488 300 c 0
 461 300 489 297 348 283 c 0
 295 278 240 270 220 266 c 1
EndSplineSet
Validated: 1
EndChar

StartChar: uniF005
Encoding: 61445 61445 197
Width: 1195
Flags: W
HStem: -32 59<331.637 387.227> -16 53<685.352 746.244> 101 62<823.074 948.739> 119 78<375.103 413.328> 202 49<1109.74 1148> 281 53<1106.9 1156.76> 287 58<515.626 597.392> 332 58<212 382.185> 349 48<1095.3 1122.18> 377 43<554.01 611> 406 50<974 986.54 1134.6 1211> 469 57<443.949 568.51> 504 53<538.5 692.784> 545 20G<720.5 736.5>
VStem: 384 55<393.245 468.466> 599 46<345.097 376.417> 624 61<37.0974 87.5299> 988 61<360.531 406> 1045 54<287.617 332.5> 1074 49<365.094 396.495> 1188 52<341.97 405.995>
LayerCount: 2
Fore
SplineSet
414 121 m 1x980208
 411 121 404 119 398 119 c 0
 376 119 377 138 374 144 c 1
 367 140 350 124 347 114 c 0
 340 82 329 83 329 67 c 0
 329 62 330 56 332 47 c 1
 338 31 340 27 356 27 c 0
 371 27 384 33 401 73 c 1
 411 101 414 111 414 121 c 1x980208
706 37 m 0x480288
 723 37 776 65 776 125 c 0
 776 141 771 155 760 158 c 1
 722 155 685 95 685 60 c 0
 685 39 700 37 706 37 c 0x480288
124 207 m 1
 125 209 127 212 128 219 c 1
 127 219 126 218 125 215 c 0
 125 213 124 210 124 207 c 1
1041 310 m 1
 1039 305 1037 296 1037 290 c 0
 1037 289 1037 288 1037 287 c 1
 1040 290 1045 297 1045 303 c 0x0a0228
 1045 306 1044 308 1041 310 c 1
443 469 m 1x081248
 443 403 439 409 439 402 c 0
 439 399 446 391 446 375 c 0
 446 331 421 334 312 332 c 0
 261 331 226 329 212 327 c 1
 212 325 210 323 210 321 c 0
 191 219 190 236 182 150 c 1
 177 104 l 1
 247 115 275 109 303 142 c 0
 322 165 366 197 393 197 c 1x191248
 406 196 461 178 468 143 c 0
 469 135 470 127 470 120 c 1
 501 133 533 137 647 144 c 0
 673 146 706 192 711 195 c 0
 718 200 744 214 772 216 c 1
 813 216 826 181 830 168 c 0
 831 163 831 163 847 163 c 0
 925 163 957 179 961 184 c 1
 979 329 988 400 988 406 c 1
 974 404 l 1
 896 394 828 392 807 384 c 0
 775 371 700 355 684 355 c 0
 671 355 665 361 665 378 c 0
 665 394 671 419 682 459 c 2
 694 504 l 1x282a48
 536 496 528 469 461 469 c 2
 443 469 l 1x081248
1099 328 m 0x088628
 1099 291 1074 235 1033 235 c 2
 1024 235 l 1
 1022 218 l 1
 1018 175 1019 170 1018 165 c 0
 1016 155 1004 129 980 129 c 0
 973 129 974 130 973 130 c 0
 958 127 899 101 824 101 c 1
 815 74 778 -16 693 -16 c 0x688628
 639 -16 624 21 624 52 c 0
 624 56 625 75 631 88 c 1
 585 79 474 83 460 67 c 0
 436 41 425 3 379 -20 c 1
 359 -28 346 -32 339 -32 c 2
 337 -32 l 1
 331 -31 328 -30 323 -30 c 2
 322 -30 l 1
 294 -27 276 9 271 38 c 1
 268 60 l 1
 234 54 l 2
 225 52 193 46 165 46 c 0
 123 46 117 59 117 86 c 0
 117 106 122 127 124 143 c 1
 107 129 94 122 85 122 c 0
 72 122 66 135 66 158 c 0
 66 173 68 192 73 214 c 0
 85 270 92 287 139 287 c 2
 149 287 l 1x8a02a8
 167 392 152 385 294 390 c 0
 326 391 366 393 384 395 c 1
 385 399 385 405 385 411 c 0
 385 423 384 437 384 452 c 0
 384 467 385 483 388 498 c 0
 393 521 401 525 456 526 c 0x0912a8
 520 527 542 552 646 557 c 0x080aa8
 710 560 718 565 723 565 c 0
 750 565 758 555 758 538 c 0
 758 529 756 518 753 506 c 2
 747 478 l 2
 744 462 739 442 736 424 c 1
 857 452 839 453 880 453 c 2
 900 453 l 2
 933 453 979 467 1011 467 c 0
 1037 467 1049 460 1049 423 c 0x0806c8
 1049 415 1048 405 1047 394 c 2
 1045 360 l 1x080628
 1064 364 1068 365 1072 365 c 2
 1076 365 l 1
 1075 367 1074 369 1074 372 c 0
 1078 392 1090 397 1102 397 c 0
 1115 397 1123 390 1123 378 c 0x088618
 1123 360 1110 349 1095 349 c 1
 1097 344 1099 337 1099 328 c 0x088628
1099 137 m 0
 1099 164 1148 162 1148 198 c 0
 1148 201 1147 202 1143 202 c 0
 1135 202 1140 200 1128 200 c 0
 1115 200 1106 206 1106 216 c 0
 1106 218 1108 251 1153 251 c 2
 1157 251 l 1
 1155 253 1154 257 1154 261 c 0
 1154 273 1163 289 1176 292 c 1
 1181 296 1187 306 1191 314 c 1
 1183 310 1177 308 1172 308 c 0
 1168 308 1164 310 1161 311 c 1
 1158 296 1143 281 1126 281 c 0
 1120 281 1105 284 1105 301 c 0
 1105 319 1118 334 1137 334 c 0x0c2228
 1146 334 1152 332 1157 327 c 1
 1166 358 1188 330 1188 390 c 0x090228
 1188 399 1187 406 1183 406 c 0
 1176 406 1160 399 1145 399 c 0
 1136 399 1133 399 1130 400 c 2
 1080 408 l 1
 1128 437 l 2
 1138 444 1167 456 1191 456 c 0
 1234 456 1245 438 1245 414 c 0
 1245 397 1240 385 1240 372 c 0
 1240 356 1246 349 1246 334 c 0x0c2228
 1246 301 1218 259 1185 246 c 1
 1191 244 1193 242 1196 238 c 1
 1192 220 1190 176 1184 150 c 1
 1171 105 1135 93 1126 93 c 0
 1119 93 1111 96 1111 109 c 0
 1111 116 1112 116 1112 117 c 0
 1112 120 1099 126 1099 137 c 0
583 345 m 1x0a4308
 591 347 599 364 599 372 c 0
 599 375 598 377 596 377 c 0
 592 377 585 372 580 367 c 0
 579 366 571 364 568 362 c 1
 559 371 l 1
 562 366 l 1
 523 348 520 351 515 328 c 1
 528 330 564 345 583 345 c 1x0a4308
485 262 m 0
 466 262 459 279 459 301 c 0
 459 339 478 389 490 396 c 0
 506 406 571 420 598 420 c 0
 623 420 645 412 645 368 c 0
 645 346 639 307 631 296 c 1
 625 291 616 288 584 287 c 0
 524 286 507 262 485 262 c 0
EndSplineSet
Validated: 1
EndChar

StartChar: uniF006
Encoding: 61446 61446 198
Width: 840
Flags: W
HStem: 30 54<390.537 495.684> 202 84<405.437 460.427> 302 174<302.413 430.205> 311 52<210.001 222.859> 382 51<210.892 222.952> 533 20G<251 276 760 780> 546 7G<158 180.5 535.5 541.5> 564 1<536 538.075> 587 59<227.152 500.284> 647 56<759.885 933.913> 682 59<303.341 495.334> 776 57<371.365 543.965 685.982 847.918>
VStem: 153 57<363.191 380.944> 226 61<476 538.891>
LayerCount: 2
Fore
SplineSet
674 790 m 0xc19c
 674 807 696 833 782 833 c 0
 826 833 854 829 854 811 c 0
 854 790 821 776 705 776 c 0
 691 776 674 776 674 790 c 0xc19c
343 780 m 0
 343 830 490 830 491 830 c 0
 499 830 546 830 546 802 c 0
 546 789 536 776 521 776 c 0
 406 775 385 759 368 759 c 0
 360 759 343 764 343 780 c 0
569 671 m 0
 569 729 739 768 789 768 c 0
 821 768 828 758 828 750 c 0
 828 716 736 712 642 676 c 0
 611 664 591 656 580 656 c 0
 571 656 569 664 569 671 c 0
567 672 m 0
 567 671 565 650 538 650 c 0
 504 650 469 682 376 682 c 0xc1bc
 366 682 351 680 337 680 c 0
 317 680 299 684 299 703 c 0xc1dc
 299 718 309 741 358 741 c 0xc1bc
 484 741 567 702 567 672 c 0
936 679 m 0
 936 672 932 647 895 647 c 0
 884 647 877 648 869 648 c 0
 839 648 667 609 612 565 c 0
 585 543 577 540 569 539 c 0
 562 538 547 525 536 525 c 0
 535 525 535 527 535 529 c 0
 535 533 536 539 536 539 c 1
 541 565 l 1
 536 564 l 2
 538 565 556 578 581 598 c 0
 637 643 665 658 767 684 c 0
 818 697 858 703 887 703 c 0xc1dc
 919 703 936 695 936 679 c 0
518 558 m 0
 500 558 507 569 492 569 c 0
 459 569 466 587 389 587 c 2
 367 587 l 2
 240 587 196 553 165 553 c 0xc39c
 151 553 143 561 143 572 c 0
 143 579 149 599 171 609 c 0
 194 619 320 646 364 646 c 0
 432 646 546 625 546 588 c 0
 546 578 535 558 518 558 c 0
223 362 m 1
 222 378 220 382 213 382 c 0
 212 382 211 382 210 382 c 1
 210 376 212 367 215 363 c 1xd99c
 217 363 220 363 223 362 c 1
226 433 m 1
 228 466 235 553 267 553 c 0
 285 553 288 533 288 512 c 0
 288 499 287 487 287 480 c 2
 287 476 l 1xe59c
 330 476 389 461 440 455 c 0
 513 447 502 433 509 433 c 1
 520 445 598 472 624 484 c 0
 661 502 677 507 689 507 c 0
 705 507 713 499 723 485 c 1
 739 524 748 553 772 553 c 0xcd9c
 788 553 796 548 796 534 c 0
 796 525 791 495 778 471 c 1
 797 469 804 452 804 439 c 0
 804 413 760 362 730 355 c 1
 719 338 690 265 606 143 c 0
 595 127 513 46 487 38 c 0
 474 34 447 30 421 30 c 2
 410 30 l 2
 397 30 389 30 350 60 c 1
 281 109 268 225 226 310 c 1
 223 310 219 311 212 311 c 0
 167 313 153 341 153 365 c 0
 153 395 180 433 225 433 c 2
 226 433 l 1
376 199 m 1
 366 203 362 203 362 212 c 0
 362 216 363 221 364 228 c 1
 381 263 l 1
 389 254 l 1
 412 271 457 286 488 286 c 0
 506 286 519 281 519 268 c 0
 519 233 452 222 389 202 c 0
 387 201 381 199 376 199 c 1
654 329 m 1
 607 292 588 283 557 283 c 0
 511 283 483 328 475 360 c 1
 441 323 399 302 358 302 c 0
 336 302 305 319 289 335 c 1
 302 284 326 204 337 184 c 0
 364 135 354 130 396 102 c 0
 400 99 425 84 447 84 c 0
 471 84 494 98 535 143 c 0
 608 224 635 286 654 329 c 1
EndSplineSet
Validated: 1
EndChar

StartChar: uniF007
Encoding: 61447 61447 199
Width: 685
Flags: W
HStem: 60 61<338.5 402.131>
VStem: 342 63<424.084 552.982> 523 58<282.462 344.227> 630 54<429.265 551.186>
LayerCount: 2
Fore
SplineSet
684 468 m 0
 684 446 678 428 652 428 c 0
 643 428 634 432 630 438 c 0
 624 449 621 553 607 564 c 1
 602 560 584 541 565 525 c 0
 537 503 528 464 502 464 c 1
 482 468 479 482 479 490 c 0
 479 515 565 609 586 610 c 1
 590 612 604 627 621 627 c 0
 647 627 679 581 679 552 c 0
 679 535 684 494 684 468 c 0
342 464 m 0
 342 484 344 488 344 498 c 0
 344 522 332 548 326 554 c 1
 304 543 236 466 224 456 c 0
 218 451 213 451 210 451 c 1
 204 454 183 460 183 474 c 0
 183 498 294 614 347 614 c 0
 381 614 403 552 403 517 c 0
 403 506 401 506 401 499 c 0
 401 488 405 473 405 459 c 0
 405 428 384 422 369 422 c 0
 353 422 342 427 342 464 c 0
280 253 m 0
 280 283 285 305 304 305 c 0
 359 305 332 153 368 123 c 0
 370 122 371 121 372 121 c 0
 385 123 432 167 453 199 c 0
 499 270 523 326 523 326 c 2
 529 336 545 348 561 348 c 1
 575 346 581 337 581 326 c 0
 581 290 527 227 510 185 c 1
 501 172 429 60 354 60 c 0
 323 60 300 103 294 131 c 0
 286 169 280 218 280 253 c 0
EndSplineSet
Validated: 1
EndChar

StartChar: uni0E10.descless
Encoding: 63232 63232 200
Width: 606
Flags: W
HStem: 169 68<267.755 358.917> 293 70<298.926 373.102> 487 80<475.412 526.46>
VStem: 409 86<350.6 415.869>
LayerCount: 2
Fore
SplineSet
267 244 m 1
 269 239 276 237 288 237 c 0
 318 237 370 250 376 266 c 1
 375 273 354 293 346 293 c 0
 331 293 274 261 267 244 c 1
680 589 m 0
 680 563 629 428 578 428 c 0
 541 428 535 486 472 487 c 1
 489 470 495 425 495 370 c 0
 495 289 481 184 464 104 c 0
 441 -5 425 -32 388 -32 c 0
 364 -32 355 -25 355 3 c 0
 355 40 375 150 375 187 c 0
 375 193 374 198 373 201 c 1
 363 199 352 169 276 169 c 0
 221 169 188 188 188 222 c 0
 188 278 288 363 360 363 c 0
 387 363 399 355 409 349 c 1
 409 380 l 2
 409 384 408 416 401 416 c 0
 381 416 337 374 313 374 c 0
 300 374 284 389 284 410 c 0
 284 461 407 567 503 567 c 0
 554 567 572 544 583 535 c 1
 597 553 620 618 652 618 c 0
 664 618 680 611 680 589 c 0
EndSplineSet
Validated: 1
EndChar

StartChar: uni0E0D.descless
Encoding: 63247 63247 215
Width: 821
Flags: W
HStem: -22 157<246.008 314.198> 442 84<373.318 479.225> 547 20G<785 811>
VStem: 135 119<296.203 373.181> 160 85<135.431 345.547> 500 93<172.533 422.328>
LayerCount: 2
Fore
SplineSet
500 366 m 0xf4
 500 409 468 442 444 442 c 0
 407 442 262 374 254 358 c 1xf4
 250 268 245 209 245 174 c 0
 245 147 248 135 258 135 c 0
 276 135 303 154 344 154 c 0
 384 154 393 135 393 117 c 0
 393 53 304 -22 264 -22 c 0
 238 -22 192 -44 165 -44 c 0
 123 -44 104 -16 104 -0 c 0
 104 35 151 32 154 43 c 0
 155 45 160 134 160 213 c 0xec
 160 271 157 324 147 334 c 0
 139 342 135 351 135 362 c 0
 135 389 159 413 190 429 c 0
 323 499 389 526 469 526 c 0
 561 526 593 493 593 391 c 0
 593 294 563 133 558 68 c 1
 570 74 592 87 620 104 c 0
 680 141 689 147 695 174 c 0
 719 285 720 462 729 503 c 0
 738 545 772 567 798 567 c 0
 824 567 833 550 833 518 c 0
 833 466 809 373 797 248 c 0
 783 99 748 77 651 23 c 0
 604 -4 552 -33 520 -33 c 0
 483 -33 471 0 471 63 c 0
 471 155 500 327 500 366 c 0xf4
EndSplineSet
Validated: 1
EndChar

StartChar: uni0E47.high
Encoding: 63263 63263 230
Width: 0
Flags: W
HStem: 944 78<98.2361 144.489>
AnchorPoint: "AboveMark" 38 1038 basemark 0
AnchorPoint: "AboveMark" -17 780 mark 0
LayerCount: 2
Fore
SplineSet
104 902 m 0
 104 863 63 840 50 840 c 1
 32 843 14 867 14 878 c 1
 11 883 6 887 2 889 c 1
 -8 875 -25 831 -54 831 c 0
 -68 831 -86 840 -86 870 c 0
 -86 911 -54 977 -9 1005 c 0
 14 1019 24 1022 72 1022 c 0
 130 1022 134 1015 145 1007 c 1
 153 1019 l 1
 191 1079 217 1120 237 1120 c 0
 251 1120 258 1112 258 1103 c 0
 258 1080 181 965 163 952 c 0
 155 946 148 944 141 944 c 0
 121 944 105 963 96 967 c 1
 93 960 81 949 61 935 c 1
 67 937 73 938 77 938 c 0
 90 938 104 923 104 902 c 0
60 879 m 1
 57 882 l 1
 53 878 l 1
 56 876 l 1
 60 879 l 1
24 966 m 1
 16 963 9 958 3 953 c 1
 10 957 17 962 24 966 c 1
EndSplineSet
Validated: 1
EndChar

StartChar: ff
Encoding: 64256 64256 231
Width: 1072
Flags: W
HStem: 377 92<188.57 282.333> 486 32<676 683.586> 928 71<547.732 679.118 964.992 1087.54>
VStem: 262 89<4.75172 235.03> 685 84<4.48828 235.376> 711 92<838.198 901.409> 1120 82<836.536 900.297>
LayerCount: 2
Fore
SplineSet
711 827 m 0xf6
 711 842 715 854 715 866 c 0
 715 887 701 901 647 919 c 0
 627 925 610 928 598 928 c 0
 574 928 554 919 530 885 c 0
 510 856 427 551 427 505 c 0
 427 494 431 494 439 494 c 0
 495 494 579 518 603 518 c 2
 610 518 l 2
 617 518 657 527 688 535 c 2
 769 557 l 1
 780 599 l 1
 866 940 890 936 923 963 c 0
 959 992 972 999 1007 999 c 0
 1025 999 1047 997 1079 994 c 0
 1139 988 1154 979 1179 948 c 0
 1194 929 1202 910 1202 891 c 0
 1202 848 1155 801 1131 801 c 0
 1122 801 1115 808 1115 825 c 0
 1115 842 1120 854 1120 866 c 0
 1120 887 1107 902 1057 919 c 0
 1039 925 1024 928 1012 928 c 0
 990 928 971 919 948 885 c 0
 923 849 862 616 862 577 c 0
 862 566 866 566 873 566 c 0
 897 566 947 580 984 580 c 0
 1020 580 1028 567 1028 556 c 0
 1028 526 964 509 922 498 c 2
 840 477 l 1
 800 300 l 2
 793 267 769 185 769 119 c 0
 769 92 774 81 774 64 c 0
 774 12 743 -3 723 -3 c 0
 700 -3 685 11 685 69 c 0xfa
 685 177 740 382 754 486 c 1
 676 484 546 450 494 446 c 0
 471 444 432 435 410 429 c 1
 383 315 l 2
 374 278 351 184 351 127 c 0
 351 97 357 85 357 67 c 0
 357 28 338 -3 303 -3 c 0
 272 -3 262 28 262 73 c 0
 262 166 306 319 314 397 c 1
 291 395 242 377 203 377 c 0
 165 377 154 395 154 409 c 0
 154 444 217 458 257 469 c 2
 333 490 l 1
 358 598 l 2
 369 646 395 738 416 804 c 0
 454 921 460 930 501 963 c 0
 538 993 553 999 591 999 c 0
 610 999 634 997 669 994 c 0
 734 988 751 979 778 948 c 0
 795 929 803 910 803 891 c 0
 803 852 756 801 729 801 c 0
 718 801 711 808 711 827 c 0xf6
EndSplineSet
Validated: 1
LCarets2: 1 0 
Ligature2: "'liga' Standard Ligatures lookup 2 subtable" f f
EndChar

StartChar: fi
Encoding: 64257 64257 232
Width: 748
Flags: W
HStem: 443 92<203.375 295.182> 928 71<549.445 687.138>
VStem: 262 89<33.3508 235.318> 718 107<751.818 900.835>
LayerCount: 2
Fore
SplineSet
303 -3 m 0
 279 -3 262 11 262 69 c 0
 262 170 313 354 328 463 c 1
 306 461 256 443 217 443 c 0
 179 443 168 461 168 476 c 0
 168 510 228 523 271 535 c 2
 347 557 l 1
 358 599 l 2
 447 938 467 937 502 963 c 0
 541 992 556 999 595 999 c 0
 615 999 639 997 675 994 c 0
 742 988 758 979 783 948 c 0
 803 924 812 894 815 873 c 0
 819 841 825 826 825 807 c 0
 825 758 792 737 769 737 c 0
 729 737 718 778 718 813 c 0
 718 844 724 850 724 865 c 0
 724 887 709 901 652 919 c 0
 631 925 615 928 602 928 c 0
 577 928 556 919 531 885 c 0
 504 849 443 614 443 577 c 0
 443 566 448 566 456 566 c 0
 486 566 679 618 727 618 c 0
 738 618 754 613 754 593 c 2
 754 571 l 2
 754 473 684 53 658 27 c 0
 645 15 629 8 614 8 c 0
 598 8 576 16 576 40 c 0
 576 80 636 438 653 518 c 1
 602 509 533 503 512 498 c 2
 421 476 l 1
 381 300 l 2
 378 285 351 191 351 124 c 0
 351 92 358 81 358 62 c 0
 358 7 320 -3 303 -3 c 0
EndSplineSet
Validated: 1
LCarets2: 1 0 
Ligature2: "'liga' Standard Ligatures lookup 2 subtable" f i
EndChar

StartChar: ffi
Encoding: 64259 64259 234
Width: 1164
Flags: W
HStem: 377 92<188.57 282.333> 486 32<676 683.586> 928 71<547.907 679.118 971.445 1109.14>
VStem: 262 89<4.75172 235.03> 685 84<4.48828 235.376> 711 92<838.198 901.409> 972 82<12.7732 85.3657> 1140 107<751.818 901.14>
LayerCount: 2
Fore
SplineSet
711 827 m 0xf7
 711 842 715 854 715 866 c 0
 715 887 701 901 647 919 c 0
 627 925 610 928 598 928 c 0
 574 928 554 919 530 885 c 1
 509 857 427 551 427 505 c 0
 427 494 431 494 439 494 c 0
 495 494 579 518 603 518 c 2
 610 518 l 2
 617 518 657 527 688 535 c 2
 769 557 l 1xfb
 780 599 l 1
 866 938 888 937 924 963 c 0
 963 992 978 999 1017 999 c 0
 1037 999 1061 997 1097 994 c 0
 1164 988 1180 979 1205 948 c 0
 1223 926 1233 899 1237 873 c 0
 1241 841 1247 826 1247 807 c 0
 1247 758 1214 737 1191 737 c 0
 1151 737 1140 778 1140 813 c 0
 1140 844 1146 850 1146 865 c 0
 1146 887 1131 901 1074 919 c 0
 1053 925 1037 928 1024 928 c 0
 999 928 978 919 953 885 c 0
 926 849 865 614 865 577 c 0
 865 566 870 566 878 566 c 0
 908 566 1101 618 1149 618 c 0
 1160 618 1176 613 1176 593 c 0
 1176 590 1176 587 1175 584 c 1
 1175 574 l 2
 1175 484 1098 188 1080 109 c 0
 1073 76 1065 38 1054 27 c 0
 1041 15 1025 8 1010 8 c 0
 994 8 973 15 972 38 c 1
 972 70 1070 496 1075 518 c 1
 1024 509 955 503 934 498 c 2
 843 476 l 1
 803 300 l 2xf7
 802 294 769 199 769 119 c 0
 769 92 774 81 774 64 c 0
 774 12 743 -3 723 -3 c 0
 700 -3 685 11 685 69 c 0xfb
 685 177 740 382 754 486 c 1
 676 484 546 450 494 446 c 0
 471 444 432 435 410 429 c 1
 383 315 l 1
 373 278 351 184 351 127 c 0
 351 97 357 85 357 67 c 0
 357 28 338 -3 303 -3 c 0
 272 -3 262 28 262 73 c 0
 262 166 306 319 314 397 c 1
 291 395 242 377 203 377 c 0
 165 377 154 395 154 409 c 0
 154 444 217 458 257 469 c 2
 333 490 l 1
 358 598 l 2
 369 646 395 738 416 804 c 0
 454 921 459 931 501 963 c 0
 539 992 553 999 591 999 c 0
 610 999 634 997 669 994 c 0
 734 988 751 979 778 948 c 0
 795 929 803 910 803 891 c 0
 803 852 756 801 729 801 c 0
 718 801 711 808 711 827 c 0xf7
EndSplineSet
Validated: 1
LCarets2: 2 0 0 
Ligature2: "'liga' Standard Ligatures lookup 2 subtable" ff i
Ligature2: "'liga' Standard Ligatures lookup 2 subtable" f f i
EndChar

